STARTFONT 2.1
FONT -HP-Sammul-Bold-R-Normal--64-640-75-75-C-320-KSC5636.1989-0
SIZE 64 75 75
FONTBOUNDINGBOX 32 64 0 -6

STARTPROPERTIES 23
FONTNAME_REGISTRY ""
FOUNDRY "HP"
FAMILY_NAME "Sammul"
WEIGHT_NAME "Bold"
SLANT "R"
SETWIDTH_NAME "Normal"
ADD_STYLE_NAME ""
PIXEL_SIZE 64
POINT_SIZE 640
RESOLUTION_X 75
RESOLUTION_Y 75
SPACING "C"
AVERAGE_WIDTH 320
CHARSET_REGISTRY "KSC5636.1989"
CHARSET_ENCODING "0"
COPYRIGHT "Copyright (c) 1994 Samsung Hewlett-Packard Company."
WEIGHT 200
X_HEIGHT 58
QUAD_WIDTH 32
_HP_ASXVERSION "@(#) ASX 3.00 $Revision: 13.9 $ samB64a"
DEFAULT_CHAR 32
FONT_DESCENT 6
FONT_ASCENT 58
ENDPROPERTIES

CHARS 256

STARTCHAR CODE000
ENCODING 0
SWIDTH 451 0
DWIDTH 32 0
BBX 32 64 0 -6
BITMAP
00000000
00000000
00000000
00000000
00000000
00000000
00000000
00000000
00000000
00000000
00000000
00000000
00000000
00000000
00000000
00000000
00000000
00000000
00000000
00000000
00000000
00000000
00000000
00000000
00000000
00000000
00000000
00000000
00000000
00000000
00000000
00000000
00000000
00000000
00000000
00000000
00000000
00000000
00000000
00000000
00000000
00000000
00000000
00000000
00000000
00000000
00000000
00000000
00000000
00000000
00000000
00000000
00000000
00000000
00000000
00000000
00000000
00000000
00000000
00000000
00000000
00000000
00000000
00000000
ENDCHAR

STARTCHAR CODE001
ENCODING 1
SWIDTH 451 0
DWIDTH 32 0
BBX 32 64 0 -6
BITMAP
00000000
00000000
00000000
00000000
001FF000
007FFC00
01FFFF00
03F83F80
07E00FC0
078003E0
0F0001F0
1E0000F8
1E000078
3C00003C
3C00003C
3800001C
78F01E1E
71F83F0E
71F83F0E
F1F83F0F
F1F83F0F
E1F83F07
E0F01E07
E0000007
E0000007
E0000007
E0000007
E0000007
E0000007
E0000007
E0000007
E1800187
E38001C7
F3C003CF
F1C0038F
71E0078E
70F00F0E
78FC3F1E
387FFE1C
383FFC1C
3C1FF83C
1C07E038
1E000078
0E0000F0
0F0001F0
078003E0
07E007C0
03F81F80
01FFFF00
007FFE00
001FF800
00000000
00000000
00000000
00000000
00000000
00000000
00000000
00000000
00000000
00000000
00000000
00000000
00000000
ENDCHAR

STARTCHAR CODE002
ENCODING 2
SWIDTH 451 0
DWIDTH 32 0
BBX 32 64 0 -6
BITMAP
00000000
00000000
00000000
00000000
001FF000
007FFC00
01FFFF00
03FFFF80
07FFFFC0
0FFFFFE0
0FFFFFF0
1FFFFFF0
1FFFFFF8
3FFFFFF8
3FFFFFFC
3FFFFFFC
7FFFFFFE
7F3FF9FE
7E1FF0FE
7E1FF0FE
FE1FF0FF
FF3FF9FF
FFFFFFFF
FFFFFFFF
FFFFFFFF
FFFFFFFF
FFFFFFFF
FFFFFFFF
FFFFFFFF
FFFFFFFF
FFFFFFFF
FFFFFFFF
FFFFFFFF
FFFFFFFF
FEFFFF7F
7FFFFFFE
7F7FFEFE
7FBFFDFE
7FDFFBFE
3FE7E7FC
3FF00FFC
3FFC3FFC
1FFFFFF8
1FFFFFF8
0FFFFFF0
0FFFFFF0
07FFFFE0
03FFFFC0
01FFFF80
007FFE00
001FF800
00000000
00000000
00000000
00000000
00000000
00000000
00000000
00000000
00000000
00000000
00000000
00000000
00000000
ENDCHAR

STARTCHAR CODE003
ENCODING 3
SWIDTH 451 0
DWIDTH 32 0
BBX 32 64 0 -6
BITMAP
00000000
00000000
00000000
03E007C0
0FF81FF0
1FFC3FF8
3FFC3FF8
3FFE7FFC
7FFE7FFC
7FFFFFFE
7FFFFFFE
7FFFFFFE
FFFFFFFF
FFFFFFFF
FFFFFFFF
FFFFFFFF
FFFFFFFF
FFFFFFFF
FFFFFFFF
FFFFFFFF
FFFFFFFF
FFFFFFFF
FFFFFFFF
FFFFFFFF
7FFFFFFE
7FFFFFFE
7FFFFFFE
7FFFFFFE
3FFFFFFC
3FFFFFFC
3FFFFFFC
3FFFFFFC
1FFFFFF8
1FFFFFF8
1FFFFFF8
0FFFFFF0
0FFFFFF0
07FFFFE0
07FFFFE0
03FFFFC0
03FFFFC0
01FFFF80
01FFFF80
00FFFF00
00FFFF00
007FFE00
007FFE00
003FFC00
003FFC00
001FF800
001FF800
000FF000
000FF000
0007E000
0007E000
0003C000
00018000
00018000
00000000
00000000
00000000
00000000
00000000
00000000
ENDCHAR

STARTCHAR CODE004
ENCODING 4
SWIDTH 451 0
DWIDTH 32 0
BBX 32 64 0 -6
BITMAP
00000000
00018000
00018000
0003C000
0003C000
0007E000
0007E000
000FF000
000FF000
001FF800
001FF800
003FFC00
003FFC00
007FFE00
007FFE00
00FFFF00
00FFFF00
01FFFF80
01FFFF80
03FFFFC0
03FFFFC0
07FFFFE0
07FFFFE0
0FFFFFF0
0FFFFFF0
1FFFFFF8
1FFFFFF8
3FFFFFFC
3FFFFFFC
7FFFFFFE
FFFFFFFF
FFFFFFFF
7FFFFFFE
3FFFFFFC
3FFFFFFC
1FFFFFF8
1FFFFFF8
0FFFFFF0
0FFFFFF0
07FFFFE0
07FFFFE0
03FFFFC0
03FFFFC0
01FFFF80
01FFFF80
00FFFF00
00FFFF00
007FFE00
007FFE00
003FFC00
003FFC00
001FF800
001FF800
000FF000
000FF000
0007E000
0007E000
0003C000
0003C000
00018000
00018000
00000000
00000000
00000000
ENDCHAR

STARTCHAR CODE005
ENCODING 5
SWIDTH 451 0
DWIDTH 32 0
BBX 32 64 0 -6
BITMAP
00000000
00000000
00000000
00000000
0007E000
001FF800
003FFC00
003FFC00
007FFE00
007FFE00
007FFE00
00FFFF00
00FFFF00
00FFFF00
00FFFF00
00FFFF00
00FFFF00
00FFFF00
00FFFF00
007FFE00
007FFE00
007FFE00
007FFE00
07BFFDE0
1FFFFFF8
3FFFFFFC
3FFFFFFC
7FFFFFFE
7FFFFFFE
7FFFFFFE
FFFFFFFF
FFFFFFFF
FFFFFFFF
FFFFFFFF
FFFFFFFF
FFFFFFFF
FFFFFFFF
FFFFFFFF
FFFFFFFF
FFFFFFFF
FFFFFFFF
7FFFFFFE
7FFFFFFE
7FFBDFFE
3FFBDFFC
3FF3CFFC
1FE3C7F8
0783C1E0
0003C000
0007E000
0007E000
0007E000
0007E000
0007E000
000FF000
000FF000
000FF000
000FF000
00000000
00000000
00000000
00000000
00000000
00000000
ENDCHAR

STARTCHAR CODE006
ENCODING 6
SWIDTH 451 0
DWIDTH 32 0
BBX 32 64 0 -6
BITMAP
00000000
00018000
00018000
0003C000
0003C000
0007E000
0007E000
000FF000
001FF800
001FF800
003FFC00
007FFC00
007FFE00
00FFFF00
00FFFF00
01FFFF80
01FFFF80
03FFFFC0
03FFFFC0
07FFFFE0
07FFFFE0
0FFFFFF0
0FFFFFF0
1FFFFFF8
1FFFFFF8
1FFFFFF8
3FFFFFFC
3FFFFFFC
3FFFFFFC
7FFFFFFE
7FFFFFFE
7FFFFFFE
FFFFFFFF
FFFFFFFF
FFFFFFFF
FFFFFFFF
FFFFFFFF
FFFFFFFF
FFFFFFFF
FFFFFFFF
FFFFFFFF
FFFFFFFF
FFFFFFFF
7FFBDFFE
7FFBDFFE
3FF3CFFC
1FF7EFF8
07C7E3E0
0007E000
000FF000
000FF000
000FF000
001FF800
001FF800
001FF800
003FFC00
003FFC00
003FFC00
00000000
00000000
00000000
00000000
00000000
00000000
ENDCHAR

STARTCHAR CODE007
ENCODING 7
SWIDTH 451 0
DWIDTH 32 0
BBX 32 64 0 -6
BITMAP
00000000
00000000
00000000
00000000
00000000
00000000
00000000
00000000
00000000
00000000
00000000
00000000
00000000
00000000
00000000
00000000
00000000
00000000
001FF800
007FFE00
01FFFF80
03FFFFC0
07FFFFE0
07FFFFE0
0FFFFFF0
0FFFFFF0
0FFFFFF0
1FFFFFF8
1FFFFFF8
1FFFFFF8
1FFFFFF8
1FFFFFF8
1FFFFFF8
1FFFFFF8
1FFFFFF8
0FFFFFF0
0FFFFFF0
0FFFFFF0
07FFFFE0
07FFFFE0
03FFFFC0
01FFFF80
007FFE00
001FF800
00000000
00000000
00000000
00000000
00000000
00000000
00000000
00000000
00000000
00000000
00000000
00000000
00000000
00000000
00000000
00000000
00000000
00000000
00000000
00000000
ENDCHAR

STARTCHAR CODE008
ENCODING 8
SWIDTH 451 0
DWIDTH 32 0
BBX 32 64 0 -6
BITMAP
00000000
00000000
00000000
00000000
00000000
00000000
00000000
FFFFFFFF
FFFFFFFF
FFFFFFFF
FFFFFFFF
FFFFFFFF
FFFFFFFF
FFFFFFFF
FFFFFFFF
FFFFFFFF
FFFFFFFF
FFFFFFFF
FFFC7FFF
FFF01FFF
FFE00FFF
FFC007FF
FF8003FF
FF8003FF
FF0001FF
FF0001FF
FF0001FF
FE0000FF
FE0000FF
FE0000FF
FE0000FF
FE0000FF
FE0000FF
FE0000FF
FE0000FF
FF0001FF
FF0001FF
FF0001FF
FF8003FF
FF8003FF
FFC007FF
FFE00FFF
FFF01FFF
FFFC7FFF
FFFFFFFF
FFFFFFFF
FFFFFFFF
FFFFFFFF
FFFFFFFF
FFFFFFFF
FFFFFFFF
FFFFFFFF
FFFFFFFF
FFFFFFFF
FFFFFFFF
00000000
00000000
00000000
00000000
00000000
00000000
00000000
00000000
00000000
ENDCHAR

STARTCHAR CODE009
ENCODING 9
SWIDTH 451 0
DWIDTH 32 0
BBX 32 64 0 -6
BITMAP
00000000
00000000
00000000
00000000
00000000
00000000
00000000
00000000
00000000
00000000
00000000
00000000
00000000
00000000
00000000
00000000
00000000
00000000
000FE000
007FFC00
01FFFF00
03FFFF80
07F01FC0
0FC007E0
0F8003E0
1F0001F0
1E0000F0
1E0000F0
3E0000F8
3C000078
3C000078
3C000078
3C000078
3E0000F8
1E0000F0
1E0000F0
1F0001F0
0F8003E0
0FC007E0
07F01FC0
03FFFF80
01FFFF00
007FFC00
000FE000
00000000
00000000
00000000
00000000
00000000
00000000
00000000
00000000
00000000
00000000
00000000
00000000
00000000
00000000
00000000
00000000
00000000
00000000
00000000
00000000
ENDCHAR

STARTCHAR CODE010
ENCODING 10
SWIDTH 451 0
DWIDTH 32 0
BBX 32 64 0 -6
BITMAP
00000000
00000000
00000000
00000000
00000000
00000000
FFFFFFFF
FFFFFFFF
FFFFFFFF
FFFFFFFF
FFFFFFFF
FFFFFFFF
FFFFFFFF
FFFFFFFF
FFFFFFFF
FFFFFFFF
FFFFFFFF
FFF81FFF
FFE7E7FF
FFDFFBFF
FFBFFDFF
FFBFFDFF
FF7FFEFF
FF7FFEFF
FF7FFEFF
FF7FFEFF
FEFFFF7F
FEFFFF7F
FEFFFF7F
FEFFFF7F
FEFFFF7F
FEFFFF7F
FEFFFF7F
FEFFFF7F
FEFFFF7F
FF7FFEFF
FF7FFEFF
FF7FFEFF
FF7FFEFF
FFBFFDFF
FFBFFDFF
FFDFFBFF
FFE7E7FF
FFF81FFF
FFFFFFFF
FFFFFFFF
FFFFFFFF
FFFFFFFF
FFFFFFFF
FFFFFFFF
FFFFFFFF
FFFFFFFF
FFFFFFFF
FFFFFFFF
FFFFFFFF
FFFFFFFF
00000000
00000000
00000000
00000000
00000000
00000000
00000000
00000000
ENDCHAR

STARTCHAR CODE011
ENCODING 11
SWIDTH 451 0
DWIDTH 32 0
BBX 32 64 0 -6
BITMAP
00000000
00000000
00000000
00000000
00000000
00000000
00000000
00000003
0000000F
0000007F
000003FF
00001FFF
0000FFFF
0000FFFF
0000007F
0000007F
000000FF
000001FF
000001FF
000003E7
000007C7
000007C7
00000F83
00001F03
00001E00
00003E00
00007C00
00007800
0000F800
01F9F000
07FFF000
1FFFE000
3FBFE000
3E07E000
7801E000
7801F000
7800F000
F000F000
F000F000
F0007000
E0007000
E000F000
F000F000
F000F000
7000F000
7801E000
7801E000
3E07C000
3FBFC000
1FFF8000
0FFF0000
03FC0000
00000000
00000000
00000000
00000000
00000000
00000000
00000000
00000000
00000000
00000000
00000000
00000000
ENDCHAR

STARTCHAR CODE012
ENCODING 12
SWIDTH 451 0
DWIDTH 32 0
BBX 32 64 0 -6
BITMAP
00000000
00000000
00000000
000FF000
003FFC00
00FFFF00
01FFFF80
03F81FC0
03E007C0
07C003E0
07C001E0
0F8001F0
0F8000F0
0F0000F0
0F0000F0
0F0000F0
0F8000F0
078001F0
07C001E0
07C003E0
03F00FC0
03FC3FC0
01FFFF80
00FFFF00
003FFC00
000FE000
0003C000
0003C000
0003C000
0003C000
0003C000
0003C000
0003C000
FFFFFFFF
FFFFFFFF
FFFFFFFF
FFFFFFFF
0003C000
0003C000
0003C000
0003C000
0003C000
0003C000
0003C000
0003C000
0003C000
0003C000
0003C000
0003C000
0003C000
0003C000
0003C000
0003C000
0003C000
0003C000
0003C000
0003C000
0003C000
0003C000
00000000
00000000
00000000
00000000
00000000
ENDCHAR

STARTCHAR CODE013
ENCODING 13
SWIDTH 451 0
DWIDTH 32 0
BBX 32 64 0 -6
BITMAP
00000000
00000000
00000000
00000000
001E0000
001E0000
001E0000
001F0000
001F8000
001FC000
001FE000
001FF000
001FF800
001FFC00
001FFF00
001FFF80
001FFFC0
001FFFE0
001EFFF0
001E3FF8
001E1FFC
001E07FC
001E03FE
001E01FE
001E00FF
001E007F
001E003F
001E003F
001E001F
001E001F
001E001F
001E001F
001E001F
001E001E
001E003E
001E003E
001E007C
001E007C
001E00F8
001E01F0
001E03E0
001E03C0
001E0780
001E0F00
001E0E00
001E0000
01FE0000
07FE0000
1FFE0000
3FFE0000
7FFC0000
7FFC0000
FFF80000
FFF80000
FFF00000
FFE00000
FF800000
7E000000
00000000
00000000
00000000
00000000
00000000
00000000
ENDCHAR

STARTCHAR CODE014
ENCODING 14
SWIDTH 451 0
DWIDTH 32 0
BBX 32 64 0 -6
BITMAP
00000000
00000000
00000000
00000000
0000000F
0000007F
000003FF
00001FFF
0000FFFF
000FFFFF
00FFFFFF
00FFFFFF
00FFFFEF
00FFFF0F
00FFF80F
00FFC07F
00FE03FF
00F01FFF
00F0FFFF
00F7FFFF
00FFFFFF
00FFFFFF
00FFFFEF
00FFFF0F
00FFF80F
00FFC00F
00FE000F
00F0000F
00F0000F
00F0000F
00F0000F
00F0000F
00F0000F
00F0000F
00F0000F
00F0000F
00F0000F
00F0001F
00F0007F
00F000FF
00F001FF
00F003FF
00F003FF
00F007FE
00F007FE
03F007FE
0FF007FC
1FF007FC
3FF007F8
7FE007F0
7FE003C0
FFC00000
FFC00000
FF800000
FF800000
FF000000
FE000000
78000000
00000000
00000000
00000000
00000000
00000000
00000000
ENDCHAR

STARTCHAR CODE015
ENCODING 15
SWIDTH 451 0
DWIDTH 32 0
BBX 32 64 0 -6
BITMAP
00000000
00000000
0003C000
0003C000
0003C000
0003C000
0003C000
0003C000
0003C000
F003C00F
F803C01F
FC03C03F
7E0FF07E
3F3FFCFC
1FFFFFF8
0FFE7FF0
07F81FE0
03F00FC0
03E007C0
03E007C0
03C003C0
07C003E0
07C003E0
078001E0
078001E0
078001E0
0F8001F0
0F0000F0
0F0000F0
FF0000FF
FF0000FF
FF0000FF
FF0000FF
0F0000F0
0F0000F0
0F8000F0
078001E0
078001E0
078001E0
07C001E0
07C003E0
03C003C0
03E003C0
03E007C0
01F00F80
01F81F80
03FE7FC0
07FFFFE0
0FFFFFF0
1F8FF1F8
3F03C0FC
7E03C07E
FC03C03F
F803C01F
F003C00F
0003C000
0003C000
0003C000
0003C000
0003C000
00000000
00000000
00000000
00000000
ENDCHAR

STARTCHAR CODE016
ENCODING 16
SWIDTH 451 0
DWIDTH 32 0
BBX 32 64 0 -6
BITMAP
00000000
00000000
00000000
00000000
00000000
70000000
78000000
7C000000
7E000000
7F000000
7F800000
7FE00000
7FF00000
7FF80000
7FFC0000
7FFE0000
7FFF8000
7FFFC000
7FFFE000
7FFFF000
7FFFF800
7FFFFE00
7FFFFF00
7FFFFF80
7FFFFFC0
7FFFFFE0
7FFFFFF8
7FFFFFFC
7FFFFFFE
7FFFFFFF
7FFFFFFF
7FFFFFFF
7FFFFFFF
7FFFFFFE
7FFFFFFC
7FFFFFF8
7FFFFFE0
7FFFFFC0
7FFFFF80
7FFFFF00
7FFFFE00
7FFFF800
7FFFF000
7FFFE000
7FFFC000
7FFF8000
7FFE0000
7FFC0000
7FF80000
7FF00000
7FE00000
7F800000
7F000000
7E000000
7C000000
78000000
70000000
00000000
00000000
00000000
00000000
00000000
00000000
00000000
ENDCHAR

STARTCHAR CODE017
ENCODING 17
SWIDTH 451 0
DWIDTH 32 0
BBX 32 64 0 -6
BITMAP
00000000
00000000
00000000
00000000
00000000
00000007
0000000F
0000001F
0000003F
0000007F
000000FF
000003FF
000007FF
00000FFF
00001FFF
00003FFF
0000FFFF
0001FFFF
0003FFFF
0007FFFF
000FFFFF
003FFFFF
007FFFFF
00FFFFFF
01FFFFFF
03FFFFFF
0FFFFFFF
1FFFFFFF
3FFFFFFF
7FFFFFFF
FFFFFFFF
FFFFFFFF
7FFFFFFF
3FFFFFFF
1FFFFFFF
0FFFFFFF
03FFFFFF
01FFFFFF
00FFFFFF
007FFFFF
003FFFFF
000FFFFF
0007FFFF
0003FFFF
0001FFFF
0000FFFF
00003FFF
00001FFF
00000FFF
000007FF
000003FF
000000FF
0000007F
0000003F
0000001F
0000000F
00000007
00000000
00000000
00000000
00000000
00000000
00000000
00000000
ENDCHAR

STARTCHAR CODE018
ENCODING 18
SWIDTH 451 0
DWIDTH 32 0
BBX 32 64 0 -6
BITMAP
00000000
00000000
00018000
0003C000
0007E000
000FF000
001FF800
003FFC00
007FFE00
00FFFF00
01FBDF80
03E3C7C0
0383C1C0
0003C000
0003C000
0003C000
0003C000
0003C000
0003C000
0003C000
0003C000
0003C000
0003C000
0003C000
0003C000
0003C000
0003C000
0003C000
0003C000
0003C000
0003C000
0003C000
0003C000
0003C000
0003C000
0003C000
0003C000
0003C000
0003C000
0003C000
0003C000
0003C000
0003C000
0003C000
0003C000
0003C000
0003C000
0003C000
0003C000
0383C1C0
03E3C7C0
01FBDF80
00FFFF00
007FFE00
003FFC00
001FF800
000FF000
0007E000
0003C000
00018000
00000000
00000000
00000000
00000000
ENDCHAR

STARTCHAR CODE019
ENCODING 19
SWIDTH 451 0
DWIDTH 32 0
BBX 32 64 0 -6
BITMAP
00000000
00000000
00000000
00000000
00000000
00000000
00700E00
00F81F00
00F81F00
00F81F00
00F81F00
00F81F00
00F81F00
00F81F00
00F81F00
00F81F00
00F81F00
00F81F00
00F81F00
00F81F00
00F81F00
00F81F00
00F81F00
00F81F00
00F81F00
00F81F00
00F81F00
00F81F00
00F81F00
00F81F00
00F81F00
00F81F00
00700E00
00700E00
00700E00
00700E00
00700E00
00700E00
00700E00
00000000
00000000
00000000
00000000
00000000
00700E00
00F81F00
00F81F00
00F81F00
00F81F00
00700E00
00000000
00000000
00000000
00000000
00000000
00000000
00000000
00000000
00000000
00000000
00000000
00000000
00000000
00000000
ENDCHAR

STARTCHAR CODE020
ENCODING 20
SWIDTH 451 0
DWIDTH 32 0
BBX 32 64 0 -6
BITMAP
00000000
00000000
00000000
000FFFFE
007FFFFE
01FFFFFE
07FFFFFE
0FFFFFFE
1FF1F03E
3FC1F03E
3F01F03E
7E01F03E
7C01F03E
F801F03E
F801F03E
F001F03E
F001F03E
F001F03E
F801F03E
F801F03E
FC01F03E
7E01F03E
7F01F03E
3FC1F03E
1FF1F03E
0FFFF03E
07FFF03E
01FFF03E
007FF03E
000FF03E
0001F03E
0001F03E
0001F03E
0001F03E
0001F03E
0001F03E
0001F03E
0001F03E
0001F03E
0001F03E
0001F03E
0001F03E
0001F03E
0001F03E
0001F03E
0001F03E
0001F03E
0001F03E
0001F03E
0001F03E
0001F03E
0001F03E
0001F03E
0001F03E
0001F03E
0001F03E
0001F03E
0001F03E
0001F03E
00000000
00000000
00000000
00000000
00000000
ENDCHAR

STARTCHAR CODE021
ENCODING 21
SWIDTH 451 0
DWIDTH 32 0
BBX 32 64 0 -6
BITMAP
00000000
00000000
001FF800
007FFE00
00FFFF80
01FFFFC0
03F80FE0
07E003E0
07C001F0
0F8001F0
0F8000F0
1F0000F8
1F0000F8
1F0000F8
1F0000F8
1F0000F8
1F000000
1F000000
1F9FF000
0FFFF800
0FFFFC00
07FC3C00
07FE1E00
03FF0E00
01FFCE00
00FFEE00
00FFFE00
00FFFF00
00F3FFC0
0078FFE0
007FFFF0
003FFFF0
001FF3F8
0007C1F8
000000FC
000000FC
3E00007C
3E00007C
3E00007C
3E00007C
3F00007C
1F00007C
1F8000FC
1F8000F8
0FC001F8
0FE003F0
07F80FF0
03FFFFE0
01FFFFC0
007FFF00
001FFC00
00000000
00000000
00000000
00000000
00000000
00000000
00000000
00000000
00000000
00000000
00000000
00000000
00000000
ENDCHAR

STARTCHAR CODE022
ENCODING 22
SWIDTH 451 0
DWIDTH 32 0
BBX 32 64 0 -6
BITMAP
00000000
00000000
00000000
00000000
00000000
00000000
00000000
00000000
00000000
00000000
00000000
00000000
00000000
00000000
00000000
00000000
00000000
00000000
FFFFFFFF
FFFFFFFF
FFFFFFFF
FFFFFFFF
FFFFFFFF
FFFFFFFF
FFFFFFFF
FFFFFFFF
FFFFFFFF
FFFFFFFF
FFFFFFFF
FFFFFFFF
FFFFFFFF
FFFFFFFF
FFFFFFFF
FFFFFFFF
FFFFFFFF
FFFFFFFF
FFFFFFFF
FFFFFFFF
FFFFFFFF
FFFFFFFF
FFFFFFFF
FFFFFFFF
FFFFFFFF
00000000
00000000
00000000
00000000
00000000
00000000
00000000
00000000
00000000
00000000
00000000
00000000
00000000
00000000
00000000
00000000
00000000
00000000
00000000
00000000
00000000
ENDCHAR

STARTCHAR CODE023
ENCODING 23
SWIDTH 451 0
DWIDTH 32 0
BBX 32 64 0 -6
BITMAP
00000000
00000000
00018000
0003C000
0007E000
000FF000
001FF800
003FFC00
007FFE00
00FFFF00
01FBDF80
03E3C7C0
0383C1C0
0003C000
0003C000
0003C000
0003C000
0003C000
0003C000
0003C000
0003C000
0003C000
0003C000
0003C000
0003C000
0003C000
0003C000
0003C000
0003C000
0003C000
0003C000
0003C000
0003C000
0003C000
0003C000
0003C000
0003C000
0003C000
0003C000
0003C000
0003C000
0003C000
0003C000
0003C000
0003C000
0383C1C0
03E3C7C0
01FBDF80
00FFFF00
007FFE00
003FFC00
001FF800
000FF000
0007E000
0003C000
00018000
FFFFFFFF
FFFFFFFF
FFFFFFFF
FFFFFFFF
00000000
00000000
00000000
00000000
ENDCHAR

STARTCHAR CODE024
ENCODING 24
SWIDTH 451 0
DWIDTH 32 0
BBX 32 64 0 -6
BITMAP
00000000
00000000
00018000
0003C000
0007E000
000FF000
001FF800
003FFC00
007FFE00
00FFFF00
01FBDF80
03E3C7C0
0383C1C0
0003C000
0003C000
0003C000
0003C000
0003C000
0003C000
0003C000
0003C000
0003C000
0003C000
0003C000
0003C000
0003C000
0003C000
0003C000
0003C000
0003C000
0003C000
0003C000
0003C000
0003C000
0003C000
0003C000
0003C000
0003C000
0003C000
0003C000
0003C000
0003C000
0003C000
0003C000
0003C000
0003C000
0003C000
0003C000
0003C000
0003C000
0003C000
0003C000
0003C000
0003C000
0003C000
0003C000
0003C000
0003C000
0003C000
0003C000
00000000
00000000
00000000
00000000
ENDCHAR

STARTCHAR CODE025
ENCODING 25
SWIDTH 451 0
DWIDTH 32 0
BBX 32 64 0 -6
BITMAP
00000000
00000000
0003C000
0003C000
0003C000
0003C000
0003C000
0003C000
0003C000
0003C000
0003C000
0003C000
0003C000
0003C000
0003C000
0003C000
0003C000
0003C000
0003C000
0003C000
0003C000
0003C000
0003C000
0003C000
0003C000
0003C000
0003C000
0003C000
0003C000
0003C000
0003C000
0003C000
0003C000
0003C000
0003C000
0003C000
0003C000
0003C000
0003C000
0003C000
0003C000
0003C000
0003C000
0003C000
0003C000
0003C000
0003C000
0003C000
0003C000
0383C1C0
03E3C7C0
01FBDF80
00FFFF00
007FFE00
003FFC00
001FF800
000FF000
0007E000
0003C000
00018000
00000000
00000000
00000000
00000000
ENDCHAR

STARTCHAR CODE026
ENCODING 26
SWIDTH 451 0
DWIDTH 32 0
BBX 32 64 0 -6
BITMAP
00000000
00000000
00000000
00000000
00000000
00000000
00000000
00000000
00000000
00000000
00000000
00000000
00000000
00000000
00000000
00000000
00000000
00000000
00000000
00000000
00000000
00000600
00000700
00000780
000003C0
000003E0
000001F0
000001F8
000000FC
FFFFFFFE
FFFFFFFF
FFFFFFFF
FFFFFFFE
000000FC
000001F8
000001F0
000003E0
000003C0
00000780
00000700
00000600
00000000
00000000
00000000
00000000
00000000
00000000
00000000
00000000
00000000
00000000
00000000
00000000
00000000
00000000
00000000
00000000
00000000
00000000
00000000
00000000
00000000
00000000
00000000
ENDCHAR

STARTCHAR CODE027
ENCODING 27
SWIDTH 451 0
DWIDTH 32 0
BBX 32 64 0 -6
BITMAP
00000000
00000000
00000000
00000000
00000000
00000000
00000000
00000000
00000000
00000000
00000000
00000000
00000000
00000000
00000000
00000000
00000000
00000000
00000000
00000000
00000000
00600000
00E00000
01E00000
03C00000
07C00000
0F800000
1F800000
3F000000
7FFFFFFF
FFFFFFFF
FFFFFFFF
7FFFFFFF
3F000000
1F800000
0F800000
07C00000
03C00000
01E00000
00E00000
00600000
00000000
00000000
00000000
00000000
00000000
00000000
00000000
00000000
00000000
00000000
00000000
00000000
00000000
00000000
00000000
00000000
00000000
00000000
00000000
00000000
00000000
00000000
00000000
ENDCHAR

STARTCHAR CODE028
ENCODING 28
SWIDTH 451 0
DWIDTH 32 0
BBX 32 64 0 -6
BITMAP
00000000
00000000
00000000
00000000
00000000
00000000
00000000
00000000
00000000
00000000
00000000
00000000
00000000
00000000
00000000
F0000000
F0000000
F0000000
F0000000
F0000000
F0000000
F0000000
F0000000
F0000000
F0000000
F0000000
F0000000
F0000000
F0000000
F0000000
F0000000
F0000000
F0000000
F0000000
F0000000
F0000000
F0000000
F0000000
F0000000
F0000000
F0000000
F0000000
F0000000
F0000000
FFFFFFFF
FFFFFFFF
FFFFFFFF
FFFFFFFF
00000000
00000000
00000000
00000000
00000000
00000000
00000000
00000000
00000000
00000000
00000000
00000000
00000000
00000000
00000000
00000000
ENDCHAR

STARTCHAR CODE029
ENCODING 29
SWIDTH 451 0
DWIDTH 32 0
BBX 32 64 0 -6
BITMAP
00000000
00000000
00000000
00000000
00000000
00000000
00000000
00000000
00000000
00000000
00000000
00000000
00000000
00000000
00000000
00000000
00000000
00000000
00000000
00000000
00000000
00000000
00C00180
01C001C0
03C001E0
078000F0
0F8000F8
1F00007C
3F00007E
7FFFFFFF
FFFFFFFF
FFFFFFFF
7FFFFFFF
3F00007E
1F00007C
0F8000F8
078000F0
03C001E0
01C001C0
00C00180
00000000
00000000
00000000
00000000
00000000
00000000
00000000
00000000
00000000
00000000
00000000
00000000
00000000
00000000
00000000
00000000
00000000
00000000
00000000
00000000
00000000
00000000
00000000
00000000
ENDCHAR

STARTCHAR CODE030
ENCODING 30
SWIDTH 451 0
DWIDTH 32 0
BBX 32 64 0 -6
BITMAP
00000000
00000000
00000000
00000000
00000000
00000000
00000000
00000000
00000000
00000000
00000000
00000000
00000000
00018000
00018000
0003C000
0003C000
0007E000
0007E000
0007E000
000FF000
000FF000
001FF800
001FF800
001FF800
003FFC00
003FFC00
003FFC00
007FFE00
007FFE00
00FFFF00
00FFFF00
00FFFF00
01FFFF80
01FFFF80
01FFFF80
03FFFFC0
03FFFFC0
07FFFFE0
07FFFFE0
07FFFFE0
0FFFFFF0
0FFFFFF0
0FFFFFF0
1FFFFFF8
1FFFFFF8
3FFFFFFC
3FFFFFFC
3FFFFFFC
7FFFFFFE
7FFFFFFE
FFFFFFFF
FFFFFFFF
00000000
00000000
00000000
00000000
00000000
00000000
00000000
00000000
00000000
00000000
00000000
ENDCHAR

STARTCHAR CODE031
ENCODING 31
SWIDTH 451 0
DWIDTH 32 0
BBX 32 64 0 -6
BITMAP
00000000
00000000
00000000
00000000
00000000
00000000
00000000
00000000
00000000
00000000
00000000
FFFFFFFF
FFFFFFFF
7FFFFFFE
7FFFFFFE
3FFFFFFC
3FFFFFFC
3FFFFFFC
1FFFFFF8
1FFFFFF8
0FFFFFF0
0FFFFFF0
0FFFFFF0
07FFFFE0
07FFFFE0
07FFFFE0
03FFFFC0
03FFFFC0
01FFFF80
01FFFF80
01FFFF80
00FFFF00
00FFFF00
00FFFF00
007FFE00
007FFE00
003FFC00
003FFC00
003FFC00
001FF800
001FF800
001FF800
000FF000
000FF000
0007E000
0007E000
0007E000
0003C000
0003C000
00018000
00018000
00000000
00000000
00000000
00000000
00000000
00000000
00000000
00000000
00000000
00000000
00000000
00000000
00000000
ENDCHAR

STARTCHAR CODE032
ENCODING 32
SWIDTH 451 0
DWIDTH 32 0
BBX 32 64 0 -6
BITMAP
00000000
00000000
00000000
00000000
00000000
00000000
00000000
00000000
00000000
00000000
00000000
00000000
00000000
00000000
00000000
00000000
00000000
00000000
00000000
00000000
00000000
00000000
00000000
00000000
00000000
00000000
00000000
00000000
00000000
00000000
00000000
00000000
00000000
00000000
00000000
00000000
00000000
00000000
00000000
00000000
00000000
00000000
00000000
00000000
00000000
00000000
00000000
00000000
00000000
00000000
00000000
00000000
00000000
00000000
00000000
00000000
00000000
00000000
00000000
00000000
00000000
00000000
00000000
00000000
ENDCHAR

STARTCHAR CODE033
ENCODING 33
SWIDTH 451 0
DWIDTH 32 0
BBX 32 64 0 -6
BITMAP
00000000
00000000
00000000
0007E000
0007E000
0007E000
0007E000
0007E000
0007E000
0007E000
0007E000
0007E000
0007E000
0007E000
0007E000
0007E000
0007E000
0007E000
0007E000
0007E000
0007E000
0007E000
0007E000
0007E000
0007E000
0007E000
0007E000
0007E000
0007E000
0003C000
0003C000
0003C000
0003C000
0003C000
0003C000
0003C000
0003C000
0003C000
0003C000
00000000
00000000
00000000
00000000
0007E000
0007E000
0007E000
0007E000
0007E000
0007E000
0007E000
00000000
00000000
00000000
00000000
00000000
00000000
00000000
00000000
00000000
00000000
00000000
00000000
00000000
00000000
ENDCHAR

STARTCHAR CODE034
ENCODING 34
SWIDTH 451 0
DWIDTH 32 0
BBX 32 64 0 -6
BITMAP
00000000
00000000
00000000
003C3C00
003C3C00
003C3C00
003C3C00
003C3C00
003C3C00
003C3C00
003C3C00
003C3C00
003C3C00
003C3C00
003C3C00
003C3C00
003C3C00
003C3C00
003C3C00
003C3C00
00000000
00000000
00000000
00000000
00000000
00000000
00000000
00000000
00000000
00000000
00000000
00000000
00000000
00000000
00000000
00000000
00000000
00000000
00000000
00000000
00000000
00000000
00000000
00000000
00000000
00000000
00000000
00000000
00000000
00000000
00000000
00000000
00000000
00000000
00000000
00000000
00000000
00000000
00000000
00000000
00000000
00000000
00000000
00000000
ENDCHAR

STARTCHAR CODE035
ENCODING 35
SWIDTH 451 0
DWIDTH 32 0
BBX 32 64 0 -6
BITMAP
00000000
00000000
00000000
00000000
00000000
003C03C0
003C03C0
003C03C0
003C03C0
003C03C0
003C03C0
003C03C0
007C07C0
00780780
00780780
00780780
00780780
00780780
1FFFFFFC
1FFFFFFC
1FFFFFFC
1FFFFFFC
00F00F00
00F00F00
00F00F00
00F00F00
00F00F00
01F01F00
01E01E00
01E01E00
01E01E00
01E01E00
3FFFFFF8
3FFFFFF8
3FFFFFF8
3FFFFFF8
3FFFFFF8
03C03C00
03C03C00
03C03C00
03C03C00
03C03C00
07C07C00
07807800
07807800
07807800
07807800
07807800
07807800
07807800
00000000
00000000
00000000
00000000
00000000
00000000
00000000
00000000
00000000
00000000
00000000
00000000
00000000
00000000
ENDCHAR

STARTCHAR CODE036
ENCODING 36
SWIDTH 451 0
DWIDTH 32 0
BBX 32 64 0 -6
BITMAP
0003C000
0003C000
0003C000
0003C000
001FFC00
007FFF00
00FFFF80
01FFFFC0
03FBCFE0
07E3C3F0
0FC3C1F0
0F83C1F8
1F83C0F8
1F03C0F8
1F03C0F8
1F03C0F8
1F03C0F8
1F03C000
1F03C000
1F83C000
1FC3C000
0FE3C000
0FF3C000
07FFC000
03FFC000
01FFC000
007FF000
001FFC00
0007FF00
0003FF80
0003FFC0
0003DFE0
0003C7F0
0003C3F0
0003C1F8
0003C0F8
0003C0FC
3E03C07C
3E03C07C
3E03C07C
3E03C07C
3F03C07C
1F03C07C
1F83C0FC
1F83C0F8
0FC3C1F8
0FF3C7F0
07FFFFF0
03FFFFE0
00FFFF80
003FFC00
0003C000
0003C000
0003C000
0003C000
0003C000
0003C000
00000000
00000000
00000000
00000000
00000000
00000000
00000000
ENDCHAR

STARTCHAR CODE037
ENCODING 37
SWIDTH 451 0
DWIDTH 32 0
BBX 32 64 0 -6
BITMAP
00000000
00000000
00000000
00000000
000003C0
0FE007C0
1FF007C0
3FF80780
3FF80F80
7FFC0F00
7C7C0F00
F83E1F00
F83E1E00
F01E1E00
F01E3E00
F01E3C00
F01E3C00
F01E7C00
F01E7800
F83E7800
F83EF800
7C7CF000
7FFCF000
3FF9F000
3FF9E000
1FF1E000
0FE3E000
0003C000
0007C7F0
0007CFF8
00079FFC
000F9FFC
000FBFFE
000F3E3E
001F7C1F
001F7C1F
001E780F
003E780F
003C780F
003C780F
007C780F
0078780F
00787C1F
00F87C1F
00F03E3E
00F03FFE
01F01FFC
01E01FFC
01E00FF8
03E007F0
03C00000
00000000
00000000
00000000
00000000
00000000
00000000
00000000
00000000
00000000
00000000
00000000
00000000
00000000
ENDCHAR

STARTCHAR CODE038
ENCODING 38
SWIDTH 451 0
DWIDTH 32 0
BBX 32 64 0 -6
BITMAP
00000000
00000000
00000000
001FC000
007FF000
00FFF800
01FFFC00
03FFFE00
03F0FE00
07C03F00
07C03F00
0F801F00
0F801F00
0F801F00
0F801F00
0F801F00
0F801F00
0FC03F00
07C03E00
07E07E00
03F0FC00
03F1F800
01FBF000
00FFE000
007FC000
007F8000
00FF0000
01FF8000
03FFC0F8
07E7C0F8
0FC3E0F8
1F83F0F8
1F01F0F8
3E00F8F0
3E007DF0
7C007DF0
7C003FF0
78001FE0
78001FE0
78000FE0
780007C0
7C0007C0
7C000FE0
7E001FF0
3F003FF8
3F80FFFC
1FE3FE7E
1FFFFC3F
0FFFF81F
03FFE00F
00FF8000
00000000
00000000
00000000
00000000
00000000
00000000
00000000
00000000
00000000
00000000
00000000
00000000
00000000
ENDCHAR

STARTCHAR CODE039
ENCODING 39
SWIDTH 451 0
DWIDTH 32 0
BBX 32 64 0 -6
BITMAP
00000000
00000000
00000000
0003C000
0003C000
0003C000
0003C000
0003C000
0003C000
0003C000
0003C000
0003C000
0003C000
0003C000
0003C000
0003C000
0003C000
0003C000
0003C000
0003C000
00000000
00000000
00000000
00000000
00000000
00000000
00000000
00000000
00000000
00000000
00000000
00000000
00000000
00000000
00000000
00000000
00000000
00000000
00000000
00000000
00000000
00000000
00000000
00000000
00000000
00000000
00000000
00000000
00000000
00000000
00000000
00000000
00000000
00000000
00000000
00000000
00000000
00000000
00000000
00000000
00000000
00000000
00000000
00000000
ENDCHAR

STARTCHAR CODE040
ENCODING 40
SWIDTH 451 0
DWIDTH 32 0
BBX 32 64 0 -6
BITMAP
00000000
00000000
00001E00
00001E00
00003C00
00003C00
00007800
00007800
0000F800
0000F000
0000F000
0001F000
0001E000
0001E000
0003E000
0003E000
0003C000
0007C000
0007C000
0007C000
0007C000
0007C000
000F8000
000F8000
000F8000
000F8000
000F8000
000F8000
000F8000
000F8000
000F8000
000F8000
000F8000
000F8000
000F8000
000F8000
000F8000
000F8000
000F8000
000F8000
000F8000
000F8000
000F8000
0007C000
0007C000
0007C000
0007C000
0007C000
0003C000
0003E000
0003E000
0001E000
0001E000
0001F000
0000F000
0000F000
0000F800
00007800
00007800
00003C00
00003C00
00001E00
00001E00
00000000
ENDCHAR

STARTCHAR CODE041
ENCODING 41
SWIDTH 451 0
DWIDTH 32 0
BBX 32 64 0 -6
BITMAP
00000000
00000000
003C0000
003C0000
001E0000
001E0000
000F0000
000F0000
000F8000
00078000
00078000
0007C000
0003C000
0003C000
0003E000
0003E000
0001E000
0001F000
0001F000
0001F000
0001F000
0001F000
0000F800
0000F800
0000F800
0000F800
0000F800
0000F800
0000F800
0000F800
0000F800
0000F800
0000F800
0000F800
0000F800
0000F800
0000F800
0000F800
0000F800
0000F800
0000F800
0000F800
0000F800
0001F000
0001F000
0001F000
0001F000
0001F000
0001E000
0003E000
0003E000
0003C000
0003C000
0007C000
00078000
00078000
000F8000
000F0000
000F0000
001E0000
001E0000
003C0000
003C0000
00000000
ENDCHAR

STARTCHAR CODE042
ENCODING 42
SWIDTH 451 0
DWIDTH 32 0
BBX 32 64 0 -6
BITMAP
00000000
00000000
00000000
00000000
00000000
00000000
00000000
00000000
00000000
00000000
00000000
00000000
00000000
00000000
00000000
00000000
00000000
00000000
00000000
00000000
00000000
00000000
00000000
00000000
00000000
00000000
0003E000
0003E000
0003E000
0003E000
0383E0E0
03E3E3E0
03FBEFE0
03FFFFE0
03FFFFE0
00FFFF80
003FFE00
000FF800
001FF800
003FFC00
007FFE00
00FE7F00
01FC3F80
01F81F80
00F00F00
00600600
00000000
00000000
00000000
00000000
00000000
00000000
00000000
00000000
00000000
00000000
00000000
00000000
00000000
00000000
00000000
00000000
00000000
00000000
ENDCHAR

STARTCHAR CODE043
ENCODING 43
SWIDTH 451 0
DWIDTH 32 0
BBX 32 64 0 -6
BITMAP
00000000
00000000
00000000
00000000
00000000
00000000
00000000
00000000
00000000
00000000
00000000
00000000
00000000
00000000
00000000
00000000
00000000
00000000
00000000
00000000
00000000
00000000
0003C000
0003C000
0003C000
0003C000
0003C000
0003C000
0003C000
0003C000
0003C000
0003C000
0003C000
0003C000
3FFFFFFC
3FFFFFFC
3FFFFFFC
3FFFFFFC
0003C000
0003C000
0003C000
0003C000
0003C000
0003C000
0003C000
0003C000
0003C000
0003C000
0003C000
0003C000
00000000
00000000
00000000
00000000
00000000
00000000
00000000
00000000
00000000
00000000
00000000
00000000
00000000
00000000
ENDCHAR

STARTCHAR CODE044
ENCODING 44
SWIDTH 451 0
DWIDTH 32 0
BBX 32 64 0 -6
BITMAP
00000000
00000000
00000000
00000000
00000000
00000000
00000000
00000000
00000000
00000000
00000000
00000000
00000000
00000000
00000000
00000000
00000000
00000000
00000000
00000000
00000000
00000000
00000000
00000000
00000000
00000000
00000000
00000000
00000000
00000000
00000000
00000000
00000000
00000000
00000000
00000000
00000000
00000000
00000000
00000000
00000000
00000000
001FE000
001FE000
001FE000
001FE000
001FE000
001FE000
001FE000
001FE000
0000E000
0000E000
0001E000
0001E000
0003C000
000FC000
000F8000
000F0000
00000000
00000000
00000000
00000000
00000000
00000000
ENDCHAR

STARTCHAR CODE045
ENCODING 45
SWIDTH 451 0
DWIDTH 32 0
BBX 32 64 0 -6
BITMAP
00000000
00000000
00000000
00000000
00000000
00000000
00000000
00000000
00000000
00000000
00000000
00000000
00000000
00000000
00000000
00000000
00000000
00000000
00000000
00000000
00000000
00000000
00000000
00000000
00000000
00000000
00000000
00000000
00000000
00000000
00000000
00000000
00000000
00000000
3FFFFFFC
3FFFFFFC
3FFFFFFC
3FFFFFFC
00000000
00000000
00000000
00000000
00000000
00000000
00000000
00000000
00000000
00000000
00000000
00000000
00000000
00000000
00000000
00000000
00000000
00000000
00000000
00000000
00000000
00000000
00000000
00000000
00000000
00000000
ENDCHAR

STARTCHAR CODE046
ENCODING 46
SWIDTH 451 0
DWIDTH 32 0
BBX 32 64 0 -6
BITMAP
00000000
00000000
00000000
00000000
00000000
00000000
00000000
00000000
00000000
00000000
00000000
00000000
00000000
00000000
00000000
00000000
00000000
00000000
00000000
00000000
00000000
00000000
00000000
00000000
00000000
00000000
00000000
00000000
00000000
00000000
00000000
00000000
00000000
00000000
00000000
00000000
00000000
00000000
00000000
00000000
00000000
00000000
000FF000
000FF000
000FF000
000FF000
000FF000
000FF000
000FF000
000FF000
00000000
00000000
00000000
00000000
00000000
00000000
00000000
00000000
00000000
00000000
00000000
00000000
00000000
00000000
ENDCHAR

STARTCHAR CODE047
ENCODING 47
SWIDTH 451 0
DWIDTH 32 0
BBX 32 64 0 -6
BITMAP
00000000
00000000
00001E00
00001E00
00001E00
00003E00
00003E00
00003C00
00003C00
00003C00
00007C00
00007C00
00007800
00007800
00007800
0000F800
0000F000
0000F000
0000F000
0001F000
0001F000
0001E000
0001E000
0001E000
0003E000
0003C000
0003C000
0003C000
0007C000
0007C000
00078000
00078000
00078000
000F8000
000F0000
000F0000
000F0000
001F0000
001F0000
001E0000
001E0000
001E0000
003E0000
003C0000
003C0000
003C0000
007C0000
007C0000
00780000
00780000
00780000
00000000
00000000
00000000
00000000
00000000
00000000
00000000
00000000
00000000
00000000
00000000
00000000
00000000
ENDCHAR

STARTCHAR CODE048
ENCODING 48
SWIDTH 451 0
DWIDTH 32 0
BBX 32 64 0 -6
BITMAP
00000000
00000000
00000000
00000000
000FF000
003FFC00
007FFE00
00FFFF00
01FFFF80
03F81FC0
03F00FC0
07E007E0
07C003E0
0FC003F0
0F8001F0
0F8001F0
1F8001F8
1F0000F8
1F0000F8
3F0000FC
3E00007C
3E00007C
3E00007C
3E00007C
3E00007C
3E00007C
3E00007C
3E00007C
3E00007C
3E00007C
3E00007C
3E00007C
3E00007C
3E00007C
3E00007C
3F0000FC
1F0000F8
1F0000F8
1F0000F8
0F8001F0
0F8001F0
0FC003F0
07C003E0
07E007E0
03F00FC0
03F81FC0
01FFFF80
00FFFF00
007FFE00
003FFC00
000FF000
00000000
00000000
00000000
00000000
00000000
00000000
00000000
00000000
00000000
00000000
00000000
00000000
00000000
ENDCHAR

STARTCHAR CODE049
ENCODING 49
SWIDTH 451 0
DWIDTH 32 0
BBX 32 64 0 -6
BITMAP
00000000
00000000
00000000
00000000
00003C00
00003C00
00007C00
00007C00
0000FC00
0000FC00
0001FC00
0007FC00
007FFC00
007FFC00
007FFC00
007FFC00
00007C00
00007C00
00007C00
00007C00
00007C00
00007C00
00007C00
00007C00
00007C00
00007C00
00007C00
00007C00
00007C00
00007C00
00007C00
00007C00
00007C00
00007C00
00007C00
00007C00
00007C00
00007C00
00007C00
00007C00
00007C00
00007C00
00007C00
00007C00
00007C00
00007C00
00007C00
00007C00
00007C00
00007C00
00000000
00000000
00000000
00000000
00000000
00000000
00000000
00000000
00000000
00000000
00000000
00000000
00000000
00000000
ENDCHAR

STARTCHAR CODE050
ENCODING 50
SWIDTH 451 0
DWIDTH 32 0
BBX 32 64 0 -6
BITMAP
00000000
00000000
00000000
00000000
001FFC00
007FFF00
00FFFF80
01FFFFC0
03FFFFE0
07F00FF0
07E003F0
0FC001F8
0F8001F8
0F8000F8
1F0000F8
1F0000F8
1F0000F8
1F0000F8
1F0000F8
1F0000F8
000000F8
000000F8
000001F8
000001F8
000003F0
000007F0
00000FE0
00001FC0
00003F80
0000FF00
0003FE00
0007FC00
001FF800
003FF000
007FC000
00FF0000
01FC0000
03F80000
07F00000
0FE00000
0FC00000
0F800000
1F800000
1F000000
1F000000
1FFFFFFC
1FFFFFFC
1FFFFFFC
1FFFFFFC
1FFFFFFC
00000000
00000000
00000000
00000000
00000000
00000000
00000000
00000000
00000000
00000000
00000000
00000000
00000000
00000000
ENDCHAR

STARTCHAR CODE051
ENCODING 51
SWIDTH 451 0
DWIDTH 32 0
BBX 32 64 0 -6
BITMAP
00000000
00000000
00000000
00000000
001FF800
007FFE00
01FFFF80
03FFFFC0
07FFFFE0
07F01FE0
0FC007F0
0F8003F0
0F8001F8
1F0001F8
1F0000F8
1F0000F8
1F0000F8
1F0000F8
1F0000F8
000001F8
000001F0
000003F0
000007E0
00001FE0
001FFFC0
001FFF80
001FFF80
001FFFE0
001FFFE0
00000FF0
000003F8
000001F8
000001F8
000000FC
000000FC
0000007C
1F00007C
1F00007C
1F00007C
1F00007C
1F00007C
1F0000F8
1F0000F8
1F8001F8
0FC003F0
0FF00FF0
0FFFFFE0
07FFFFC0
03FFFFC0
00FFFF00
003FFC00
00000000
00000000
00000000
00000000
00000000
00000000
00000000
00000000
00000000
00000000
00000000
00000000
00000000
ENDCHAR

STARTCHAR CODE052
ENCODING 52
SWIDTH 451 0
DWIDTH 32 0
BBX 32 64 0 -6
BITMAP
00000000
00000000
00000000
00000000
00001F00
00003F00
00003F00
00007F00
00007F00
0000FF00
0000FF00
0001FF00
0003FF00
0003FF00
0007FF00
0007DF00
000FDF00
001F9F00
001F9F00
003F1F00
003F1F00
007E1F00
007E1F00
00FC1F00
00F81F00
01F81F00
03F01F00
03F01F00
07E01F00
07C01F00
0FC01F00
1F801F00
1F801F00
3F001F00
3FFFFFFC
3FFFFFFC
3FFFFFFC
3FFFFFFC
3FFFFFFC
00001F00
00001F00
00001F00
00001F00
00001F00
00001F00
00001F00
00001F00
00001F00
00001F00
00001F00
00000000
00000000
00000000
00000000
00000000
00000000
00000000
00000000
00000000
00000000
00000000
00000000
00000000
00000000
ENDCHAR

STARTCHAR CODE053
ENCODING 53
SWIDTH 451 0
DWIDTH 32 0
BBX 32 64 0 -6
BITMAP
00000000
00000000
00000000
00000000
00000000
03FFFFF0
03FFFFF0
03FFFFF0
07FFFFF0
07FFFFF0
07C00000
07C00000
07C00000
07C00000
0FC00000
0F800000
0F800000
0F800000
0F800000
0F800000
0F800000
1F8FFC00
1F3FFF00
1F7FFF80
1FFFFFC0
1FFFFFE0
1FFC1FE0
1FF007F0
1FC003F0
1F8003F8
1F8001F8
1F0001F8
1F0000F8
000000F8
000000F8
000000F8
000000F8
000000F8
3E0000F8
3E0000F8
3E0001F8
3F0001F8
3F0003F8
1F8003F0
1FC007F0
0FF01FE0
0FFFFFE0
07FFFFC0
03FFFF80
00FFFE00
003FF800
00000000
00000000
00000000
00000000
00000000
00000000
00000000
00000000
00000000
00000000
00000000
00000000
00000000
ENDCHAR

STARTCHAR CODE054
ENCODING 54
SWIDTH 451 0
DWIDTH 32 0
BBX 32 64 0 -6
BITMAP
00000000
00000000
00000000
00000000
0007FC00
001FFF00
007FFFC0
00FFFFE0
01FFFFE0
03FE07F0
03F803F0
07F001F8
07E001F8
0FC000F8
0FC000F8
0F8000F8
1F8000F8
1F800000
1F800000
1F000000
1F000000
3F07FC00
3F1FFF00
3E7FFFC0
3EFFFFE0
3FFFFFF0
3FFC0FF0
3FF003F8
3FE001F8
3FC001F8
3F8000F8
3F8000FC
3F0000FC
3F00007C
3F00007C
3F00007C
3F00007C
3F00007C
1F00007C
1F00007C
1F8000FC
1F8000F8
0FC000F8
0FE001F8
07F003F0
07FC0FF0
03FFFFE0
01FFFFC0
00FFFF80
003FFF00
000FFC00
00000000
00000000
00000000
00000000
00000000
00000000
00000000
00000000
00000000
00000000
00000000
00000000
00000000
ENDCHAR

STARTCHAR CODE055
ENCODING 55
SWIDTH 451 0
DWIDTH 32 0
BBX 32 64 0 -6
BITMAP
00000000
00000000
00000000
00000000
00000000
3FFFFFFC
3FFFFFFC
3FFFFFFC
3FFFFFFC
3FFFFFFC
000000F8
000001F0
000001F0
000003E0
000003E0
000007C0
000007C0
00000F80
00000F80
00001F00
00001F00
00001E00
00003E00
00003C00
00007C00
00007C00
0000F800
0000F800
0000F000
0001F000
0001F000
0003E000
0003E000
0003E000
0007C000
0007C000
0007C000
000FC000
000F8000
000F8000
001F8000
001F8000
001F0000
001F0000
003F0000
003F0000
003F0000
003F0000
003F0000
003F0000
00000000
00000000
00000000
00000000
00000000
00000000
00000000
00000000
00000000
00000000
00000000
00000000
00000000
00000000
ENDCHAR

STARTCHAR CODE056
ENCODING 56
SWIDTH 451 0
DWIDTH 32 0
BBX 32 64 0 -6
BITMAP
00000000
00000000
00000000
00000000
001FF800
007FFE00
01FFFF80
03FFFFC0
07FFFFE0
0FF00FF0
0FC003F0
1F8001F8
1F8001F8
1F0000F8
1F0000F8
1F0000F8
1F0000F8
1F0000F8
1F0000F8
1F8001F8
0F8001F0
0FC003F0
07E007E0
07F81FE0
03FFFFC0
01FFFF80
01FFFF80
07FFFFC0
0FF81FE0
0FE007F0
1F8001F8
1F0000F8
3F0000FC
3E00007C
3E00007C
3E00007C
3E00007C
3E00007C
3E00007C
3E00007C
3E00007C
3F0000FC
3F0000FC
1F8001F8
1FC003F8
1FF00FF8
0FFFFFF0
07FFFFE0
03FFFFC0
00FFFF00
003FFC00
00000000
00000000
00000000
00000000
00000000
00000000
00000000
00000000
00000000
00000000
00000000
00000000
00000000
ENDCHAR

STARTCHAR CODE057
ENCODING 57
SWIDTH 451 0
DWIDTH 32 0
BBX 32 64 0 -6
BITMAP
00000000
00000000
00000000
00000000
001FF800
007FFE00
01FFFF80
03FFFFC0
07FFFFC0
07F01FE0
0FC007E0
0F8003F0
1F8003F0
1F0001F0
3F0001F8
3E0000F8
3E0000F8
3E0000F8
3E0000F8
3E0000F8
3E0000F8
3E0000F8
3E0000F8
3F0001F8
1F0001F8
1F8003F8
1F8003F8
0FC007F8
0FF01FF8
07FFFFF8
03FFFFF8
01FFFFF8
007FFCF8
001FF0F8
000000F8
000000F8
000000F8
000000F8
1F0000F8
1F0000F8
1F0001F8
1F0001F0
1F8003F0
1F8003F0
0FC007E0
0FF01FE0
07FFFFC0
07FFFF80
03FFFF00
00FFFC00
003FF000
00000000
00000000
00000000
00000000
00000000
00000000
00000000
00000000
00000000
00000000
00000000
00000000
00000000
ENDCHAR

STARTCHAR CODE058
ENCODING 58
SWIDTH 451 0
DWIDTH 32 0
BBX 32 64 0 -6
BITMAP
00000000
00000000
00000000
00000000
00000000
00000000
00000000
00000000
00000000
00000000
00000000
00000000
00000000
00000000
00000000
00000000
000FF000
000FF000
000FF000
000FF000
000FF000
000FF000
000FF000
000FF000
00000000
00000000
00000000
00000000
00000000
00000000
00000000
00000000
00000000
00000000
00000000
00000000
00000000
00000000
00000000
00000000
00000000
00000000
000FF000
000FF000
000FF000
000FF000
000FF000
000FF000
000FF000
000FF000
00000000
00000000
00000000
00000000
00000000
00000000
00000000
00000000
00000000
00000000
00000000
00000000
00000000
00000000
ENDCHAR

STARTCHAR CODE059
ENCODING 59
SWIDTH 451 0
DWIDTH 32 0
BBX 32 64 0 -6
BITMAP
00000000
00000000
00000000
00000000
00000000
00000000
00000000
00000000
00000000
00000000
00000000
00000000
00000000
00000000
00000000
00000000
000FF000
000FF000
000FF000
000FF000
000FF000
000FF000
000FF000
000FF000
00000000
00000000
00000000
00000000
00000000
00000000
00000000
00000000
00000000
00000000
00000000
00000000
00000000
00000000
00000000
00000000
00000000
00000000
000FF000
000FF000
000FF000
000FF000
000FF000
000FF000
000FF000
000FF000
0000F000
0000F000
0000F000
0000F000
0001E000
0003E000
000FC000
000F8000
000F0000
00000000
00000000
00000000
00000000
00000000
ENDCHAR

STARTCHAR CODE060
ENCODING 60
SWIDTH 451 0
DWIDTH 32 0
BBX 32 64 0 -6
BITMAP
00000000
00000000
00000000
00000000
00000000
00000000
00000000
00000000
00000000
00000000
00000000
00000000
00000000
00000000
00000000
00000000
00000000
00000000
0000000E
0000003E
000000FE
000003FE
00000FFE
00003FF8
0000FFE0
0003FF80
000FFE00
003FF800
00FFE000
03FF8000
0FFE0000
1FF80000
1FE00000
1F800000
1FE00000
1FF80000
0FFE0000
03FF8000
00FFE000
003FF800
000FFE00
0003FF80
0000FFE0
00003FF8
00000FFE
000003FE
000000FE
0000003E
0000000E
00000000
00000000
00000000
00000000
00000000
00000000
00000000
00000000
00000000
00000000
00000000
00000000
00000000
00000000
00000000
ENDCHAR

STARTCHAR CODE061
ENCODING 61
SWIDTH 451 0
DWIDTH 32 0
BBX 32 64 0 -6
BITMAP
00000000
00000000
00000000
00000000
00000000
00000000
00000000
00000000
00000000
00000000
00000000
00000000
00000000
00000000
00000000
00000000
00000000
00000000
00000000
00000000
00000000
00000000
00000000
00000000
00000000
3FFFFFFC
3FFFFFFC
3FFFFFFC
3FFFFFFC
3FFFFFFC
00000000
00000000
00000000
00000000
00000000
00000000
00000000
00000000
00000000
3FFFFFFC
3FFFFFFC
3FFFFFFC
3FFFFFFC
3FFFFFFC
00000000
00000000
00000000
00000000
00000000
00000000
00000000
00000000
00000000
00000000
00000000
00000000
00000000
00000000
00000000
00000000
00000000
00000000
00000000
00000000
ENDCHAR

STARTCHAR CODE062
ENCODING 62
SWIDTH 451 0
DWIDTH 32 0
BBX 32 64 0 -6
BITMAP
00000000
00000000
00000000
00000000
00000000
00000000
00000000
00000000
00000000
00000000
00000000
00000000
00000000
00000000
00000000
00000000
00000000
00000000
38000000
3E000000
3F800000
3FE00000
3FF80000
0FFE0000
03FF8000
00FFE000
003FF800
000FFE00
0003FF80
0000FFE0
00003FF8
00000FFC
000003FC
000000FC
000003FC
00000FFC
00003FF8
0000FFE0
0003FF80
000FFE00
003FF800
00FFE000
03FF8000
0FFE0000
3FF80000
3FE00000
3F800000
3E000000
38000000
00000000
00000000
00000000
00000000
00000000
00000000
00000000
00000000
00000000
00000000
00000000
00000000
00000000
00000000
00000000
ENDCHAR

STARTCHAR CODE063
ENCODING 63
SWIDTH 451 0
DWIDTH 32 0
BBX 32 64 0 -6
BITMAP
00000000
00000000
00000000
00000000
001FFC00
007FFF00
01FFFFC0
03FFFFE0
07FFFFF0
07F80FF0
0FE003F8
0FC001F8
1F8000FC
1F8000FC
1F00007C
1F00007C
1F00007C
1F00007C
1F0000FC
000000F8
000001F8
000003F0
000007F0
00000FE0
00001FC0
00003F80
00007F00
0000FE00
0000FC00
0001F800
0001F000
0003F000
0003E000
0007E000
0007C000
0007C000
0007C000
0007C000
00000000
00000000
00000000
00000000
00000000
0007C000
0007C000
0007C000
0007C000
0007C000
0007C000
0007C000
00000000
00000000
00000000
00000000
00000000
00000000
00000000
00000000
00000000
00000000
00000000
00000000
00000000
00000000
ENDCHAR

STARTCHAR CODE064
ENCODING 64
SWIDTH 451 0
DWIDTH 32 0
BBX 32 64 0 -6
BITMAP
00000000
00000000
00000000
000FFC00
003FFF00
00FFFF80
01FFFFC0
03F80FE0
07E003F0
07C001F8
0F8000F8
1F00007C
1F00007C
1E07F3FC
3E0FFBFE
3C1FFFDE
3C3FFF9E
7C3F7F9E
7C7E3F1E
787C1F1E
78F81F1E
78F80F1E
78F00F1E
79F00F1E
79F00F1E
79E00F1E
79E01F1E
79E01E1E
79E01E1E
79E01E1E
79E03E1E
79E03E3C
79E03C3C
79F07C7C
79F0FC7C
7DF9FCF8
7CFFFFF0
3CFFFFF0
3E7FFFE0
3E7F9FC0
1F1F0FBC
1F80003C
1F80007C
0FC0007C
07E000F8
07F803F8
03FE0FF0
01FFFFE0
00FFFFC0
003FFF00
000FFC00
00000000
00000000
00000000
00000000
00000000
00000000
00000000
00000000
00000000
00000000
00000000
00000000
00000000
ENDCHAR

STARTCHAR CODE065
ENCODING 65
SWIDTH 451 0
DWIDTH 32 0
BBX 32 64 0 -6
BITMAP
00000000
00000000
00000000
0007E000
0007E000
0007E000
000FF000
000FF000
000FF000
000FF000
001FF800
001FF800
001FF800
001FF800
003E7C00
003E7C00
003E7C00
003E7C00
007C3E00
007C3E00
007C3E00
00F81F00
00F81F00
00F81F00
00F81F00
01F00F80
01F00F80
01F00F80
01F00F80
03E007C0
03E007C0
03FFFFC0
07FFFFC0
07FFFFE0
07FFFFE0
07FFFFE0
0FC003F0
0FC003F0
0F8001F0
0F8001F0
1F8001F8
1F0000F8
1F0000F8
3F0000FC
3E00007C
3E00007C
3E00007C
7E00007E
7C00003E
7C00003E
00000000
00000000
00000000
00000000
00000000
00000000
00000000
00000000
00000000
00000000
00000000
00000000
00000000
00000000
ENDCHAR

STARTCHAR CODE066
ENCODING 66
SWIDTH 451 0
DWIDTH 32 0
BBX 32 64 0 -6
BITMAP
00000000
00000000
00000000
3FFFF800
3FFFFE00
3FFFFF80
3FFFFFC0
3FFFFFE0
3E001FE0
3E0007F0
3E0003F0
3E0001F8
3E0001F8
3E0000F8
3E0000F8
3E0000F8
3E0000F8
3E0001F8
3E0001F8
3E0003F0
3E0007F0
3E000FE0
3E003FC0
3FFFFF80
3FFFFF00
3FFFFF80
3FFFFFC0
3FFFFFE0
3E001FF0
3E0007F0
3E0003F8
3E0001F8
3E0000FC
3E0000FC
3E00007C
3E00007C
3E00007C
3E00007C
3E00007C
3E0000FC
3E0000FC
3E0001F8
3E0001F8
3E0007F0
3E001FF0
3FFFFFE0
3FFFFFC0
3FFFFF80
3FFFFE00
3FFFF800
00000000
00000000
00000000
00000000
00000000
00000000
00000000
00000000
00000000
00000000
00000000
00000000
00000000
00000000
ENDCHAR

STARTCHAR CODE067
ENCODING 67
SWIDTH 451 0
DWIDTH 32 0
BBX 32 64 0 -6
BITMAP
00000000
00000000
000FFC00
003FFF00
00FFFFC0
01FFFFE0
03FFFFF0
07FC07F8
0FF001F8
0FE000FC
1FC000FC
1F80007C
1F80007E
3F00007E
3F00003E
3E00003E
3E00003E
3E00003E
7E000000
7E000000
7E000000
7C000000
7C000000
7C000000
7C000000
7C000000
7C000000
7C000000
7C000000
7C000000
7C000000
7C000000
7C000000
7E000000
7E000000
7E00003E
3F00003E
3F00003E
3F00003E
3F80003E
1F80007E
1FC0007C
1FC000FC
0FE000FC
0FF003F8
07FC0FF8
03FFFFF0
01FFFFE0
00FFFFC0
007FFF00
001FFC00
00000000
00000000
00000000
00000000
00000000
00000000
00000000
00000000
00000000
00000000
00000000
00000000
00000000
ENDCHAR

STARTCHAR CODE068
ENCODING 68
SWIDTH 451 0
DWIDTH 32 0
BBX 32 64 0 -6
BITMAP
00000000
00000000
00000000
3FFFE000
3FFFFC00
3FFFFF00
3FFFFF80
3FFFFFC0
3E003FC0
3E000FE0
3E0003E0
3E0003F0
3E0001F0
3E0001F8
3E0000F8
3E0000F8
3E0000FC
3E0000FC
3E00007C
3E00007C
3E00007C
3E00007C
3E00007C
3E00007C
3E00007C
3E00007C
3E00007C
3E00007C
3E00007C
3E00007C
3E00007C
3E00007C
3E00007C
3E00007C
3E00007C
3E0000FC
3E0000FC
3E0000F8
3E0000F8
3E0001F8
3E0001F0
3E0003F0
3E0003E0
3E000FE0
3E003FC0
3FFFFFC0
3FFFFF80
3FFFFF00
3FFFFC00
3FFFE000
00000000
00000000
00000000
00000000
00000000
00000000
00000000
00000000
00000000
00000000
00000000
00000000
00000000
00000000
ENDCHAR

STARTCHAR CODE069
ENCODING 69
SWIDTH 451 0
DWIDTH 32 0
BBX 32 64 0 -6
BITMAP
00000000
00000000
00000000
1FFFFFF8
1FFFFFF8
1FFFFFF8
1FFFFFF8
1FFFFFF8
1F000000
1F000000
1F000000
1F000000
1F000000
1F000000
1F000000
1F000000
1F000000
1F000000
1F000000
1F000000
1F000000
1F000000
1F000000
1FFFFFF0
1FFFFFF0
1FFFFFF0
1FFFFFF0
1FFFFFF0
1F000000
1F000000
1F000000
1F000000
1F000000
1F000000
1F000000
1F000000
1F000000
1F000000
1F000000
1F000000
1F000000
1F000000
1F000000
1F000000
1F000000
1FFFFFF8
1FFFFFF8
1FFFFFF8
1FFFFFF8
1FFFFFF8
00000000
00000000
00000000
00000000
00000000
00000000
00000000
00000000
00000000
00000000
00000000
00000000
00000000
00000000
ENDCHAR

STARTCHAR CODE070
ENCODING 70
SWIDTH 451 0
DWIDTH 32 0
BBX 32 64 0 -6
BITMAP
00000000
00000000
00000000
1FFFFFF8
1FFFFFF8
1FFFFFF8
1FFFFFF8
1FFFFFF8
1F000000
1F000000
1F000000
1F000000
1F000000
1F000000
1F000000
1F000000
1F000000
1F000000
1F000000
1F000000
1F000000
1F000000
1F000000
1FFFFFE0
1FFFFFE0
1FFFFFE0
1FFFFFE0
1FFFFFE0
1F000000
1F000000
1F000000
1F000000
1F000000
1F000000
1F000000
1F000000
1F000000
1F000000
1F000000
1F000000
1F000000
1F000000
1F000000
1F000000
1F000000
1F000000
1F000000
1F000000
1F000000
1F000000
00000000
00000000
00000000
00000000
00000000
00000000
00000000
00000000
00000000
00000000
00000000
00000000
00000000
00000000
ENDCHAR

STARTCHAR CODE071
ENCODING 71
SWIDTH 451 0
DWIDTH 32 0
BBX 32 64 0 -6
BITMAP
00000000
00000000
000FFC00
003FFF00
00FFFFC0
01FFFFE0
03FFFFF0
07FC0FF0
07F003F8
0FE001F8
0FC000F8
1F8000FC
1F80007C
1F00007C
3F00007C
3E00007C
3E00007C
3E000000
7E000000
7E000000
7C000000
7C000000
7C000000
7C000000
7C000000
7C00FFFE
7C00FFFE
7C00FFFE
7C00FFFE
7C00FFFE
7C00003E
7C00003E
7C00003E
7C00003E
7E00003E
7E00007E
7E00007E
3E00007E
3F0000FE
3F0000FE
3F0000FE
1F8001FE
1F8001FE
1FC003FE
0FE007FE
0FF81FFE
07FFFFFE
03FFFFBE
01FFFF3E
007FFE3E
001FF800
00000000
00000000
00000000
00000000
00000000
00000000
00000000
00000000
00000000
00000000
00000000
00000000
00000000
ENDCHAR

STARTCHAR CODE072
ENCODING 72
SWIDTH 451 0
DWIDTH 32 0
BBX 32 64 0 -6
BITMAP
00000000
00000000
00000000
3E00007C
3E00007C
3E00007C
3E00007C
3E00007C
3E00007C
3E00007C
3E00007C
3E00007C
3E00007C
3E00007C
3E00007C
3E00007C
3E00007C
3E00007C
3E00007C
3E00007C
3E00007C
3E00007C
3E00007C
3FFFFFFC
3FFFFFFC
3FFFFFFC
3FFFFFFC
3FFFFFFC
3E00007C
3E00007C
3E00007C
3E00007C
3E00007C
3E00007C
3E00007C
3E00007C
3E00007C
3E00007C
3E00007C
3E00007C
3E00007C
3E00007C
3E00007C
3E00007C
3E00007C
3E00007C
3E00007C
3E00007C
3E00007C
3E00007C
00000000
00000000
00000000
00000000
00000000
00000000
00000000
00000000
00000000
00000000
00000000
00000000
00000000
00000000
ENDCHAR

STARTCHAR CODE073
ENCODING 73
SWIDTH 451 0
DWIDTH 32 0
BBX 32 64 0 -6
BITMAP
00000000
00000000
00000000
0003E000
0003E000
0003E000
0003E000
0003E000
0003E000
0003E000
0003E000
0003E000
0003E000
0003E000
0003E000
0003E000
0003E000
0003E000
0003E000
0003E000
0003E000
0003E000
0003E000
0003E000
0003E000
0003E000
0003E000
0003E000
0003E000
0003E000
0003E000
0003E000
0003E000
0003E000
0003E000
0003E000
0003E000
0003E000
0003E000
0003E000
0003E000
0003E000
0003E000
0003E000
0003E000
0003E000
0003E000
0003E000
0003E000
0003E000
00000000
00000000
00000000
00000000
00000000
00000000
00000000
00000000
00000000
00000000
00000000
00000000
00000000
00000000
ENDCHAR

STARTCHAR CODE074
ENCODING 74
SWIDTH 451 0
DWIDTH 32 0
BBX 32 64 0 -6
BITMAP
00000000
00000000
00000000
000007C0
000007C0
000007C0
000007C0
000007C0
000007C0
000007C0
000007C0
000007C0
000007C0
000007C0
000007C0
000007C0
000007C0
000007C0
000007C0
000007C0
000007C0
000007C0
000007C0
000007C0
000007C0
000007C0
000007C0
000007C0
000007C0
000007C0
000007C0
000007C0
000007C0
000007C0
000007C0
000007C0
000007C0
0F8007C0
0F8007C0
0F8007C0
0F8007C0
0F8007C0
0F8007C0
0FC00FC0
07C00FC0
07E01F80
03F87F80
03FFFF00
01FFFE00
00FFFC00
003FF000
00000000
00000000
00000000
00000000
00000000
00000000
00000000
00000000
00000000
00000000
00000000
00000000
00000000
ENDCHAR

STARTCHAR CODE075
ENCODING 75
SWIDTH 451 0
DWIDTH 32 0
BBX 32 64 0 -6
BITMAP
00000000
00000000
00000000
3E0001F8
3E0001F8
3E0003F8
3E0007F0
3E0007E0
3E000FC0
3E001FC0
3E003F80
3E003F00
3E007E00
3E00FC00
3E01FC00
3E03F800
3E03F000
3E07E000
3E0FE000
3E1FC000
3E1F8000
3E3F0000
3E7E0000
3EFF0000
3EFF0000
3FFF8000
3FFF8000
3FFFC000
3FEFE000
3FC7E000
3F87F000
3F03F000
3F01F800
3E01FC00
3E00FC00
3E00FE00
3E007E00
3E007F00
3E003F00
3E001F80
3E001FC0
3E000FC0
3E000FE0
3E0007E0
3E0007F0
3E0003F8
3E0001F8
3E0001FC
3E0000FC
3E0000FC
00000000
00000000
00000000
00000000
00000000
00000000
00000000
00000000
00000000
00000000
00000000
00000000
00000000
00000000
ENDCHAR

STARTCHAR CODE076
ENCODING 76
SWIDTH 451 0
DWIDTH 32 0
BBX 32 64 0 -6
BITMAP
00000000
00000000
00000000
1F000000
1F000000
1F000000
1F000000
1F000000
1F000000
1F000000
1F000000
1F000000
1F000000
1F000000
1F000000
1F000000
1F000000
1F000000
1F000000
1F000000
1F000000
1F000000
1F000000
1F000000
1F000000
1F000000
1F000000
1F000000
1F000000
1F000000
1F000000
1F000000
1F000000
1F000000
1F000000
1F000000
1F000000
1F000000
1F000000
1F000000
1F000000
1F000000
1F000000
1F000000
1F000000
1FFFFFF8
1FFFFFF8
1FFFFFF8
1FFFFFF8
1FFFFFF8
00000000
00000000
00000000
00000000
00000000
00000000
00000000
00000000
00000000
00000000
00000000
00000000
00000000
00000000
ENDCHAR

STARTCHAR CODE077
ENCODING 77
SWIDTH 451 0
DWIDTH 32 0
BBX 32 64 0 -6
BITMAP
00000000
00000000
00000000
7E00007E
7E00007E
7F0000FE
7F0000FE
7F0000FE
7F0000FE
7F8001FE
7F8001FE
7F8001FE
7F8001FE
7FC003FE
7FC003FE
7FC003FE
7FC003FE
7FE007FE
7FE007FE
7FE007FE
7DE007BE
7DF00FBE
7DF00FBE
7DF00FBE
7CF00F3E
7CF81F3E
7CF81F3E
7CF81F3E
7C781E3E
7C7C3E3E
7C7C3E3E
7C7C3E3E
7C3C3E3E
7C3E7C3E
7C3E7C3E
7C3E7C3E
7C3E7C3E
7C1FF83E
7C1FF83E
7C1FF83E
7C1FF83E
7C0FF03E
7C0FF03E
7C0FF03E
7C0FF03E
7C07E03E
7C07E03E
7C07E03E
7C03C03E
7C03C03E
00000000
00000000
00000000
00000000
00000000
00000000
00000000
00000000
00000000
00000000
00000000
00000000
00000000
00000000
ENDCHAR

STARTCHAR CODE078
ENCODING 78
SWIDTH 451 0
DWIDTH 32 0
BBX 32 64 0 -6
BITMAP
00000000
00000000
00000000
3E00007C
3F00007C
3F80007C
3F80007C
3FC0007C
3FC0007C
3FE0007C
3FE0007C
3FF0007C
3FF0007C
3FF8007C
3FF8007C
3EFC007C
3EFC007C
3E7E007C
3E7E007C
3E3F007C
3E3F007C
3E1F807C
3E1F807C
3E0FC07C
3E0FC07C
3E07E07C
3E07E07C
3E03F07C
3E03F07C
3E01F87C
3E01F87C
3E00FC7C
3E00FC7C
3E007E7C
3E007E7C
3E003F7C
3E003F7C
3E001FFC
3E001FFC
3E000FFC
3E000FFC
3E0007FC
3E0007FC
3E0003FC
3E0003FC
3E0001FC
3E0001FC
3E0000FC
3E0000FC
3E00007C
00000000
00000000
00000000
00000000
00000000
00000000
00000000
00000000
00000000
00000000
00000000
00000000
00000000
00000000
ENDCHAR

STARTCHAR CODE079
ENCODING 79
SWIDTH 451 0
DWIDTH 32 0
BBX 32 64 0 -6
BITMAP
00000000
00000000
000FF000
003FFC00
00FFFF00
01FFFF80
03FFFFC0
07F81FE0
07E007E0
0FC003F0
0FC003F0
1F8001F8
1F8001F8
1F0000F8
3F0000FC
3E00007C
3E00007C
3E00007C
7E00007E
7E00007E
7C00003E
7C00003E
7C00003E
7C00003E
7C00003E
7C00003E
7C00003E
7C00003E
7C00003E
7C00003E
7C00003E
7C00003E
7C00003E
7C00003E
7E00007E
7E00007E
3E00007C
3E00007C
3F0000FC
1F0000F8
1F8001F8
1F8001F8
0FC003F0
0FC003F0
07E007E0
07F81FE0
03FFFFC0
01FFFF80
00FFFF00
003FFC00
000FF000
00000000
00000000
00000000
00000000
00000000
00000000
00000000
00000000
00000000
00000000
00000000
00000000
00000000
ENDCHAR

STARTCHAR CODE080
ENCODING 80
SWIDTH 451 0
DWIDTH 32 0
BBX 32 64 0 -6
BITMAP
00000000
00000000
00000000
3FFFF800
3FFFFF00
3FFFFFC0
3FFFFFE0
3FFFFFF0
3E000FF8
3E0003F8
3E0001FC
3E0000FC
3E0000FC
3E00007C
3E00007C
3E00007C
3E00007C
3E00007C
3E00007C
3E00007C
3E0000FC
3E0000FC
3E0001FC
3E0003F8
3E0007F8
3E001FF0
3FFFFFE0
3FFFFFC0
3FFFFF80
3FFFFE00
3FFFF800
3E000000
3E000000
3E000000
3E000000
3E000000
3E000000
3E000000
3E000000
3E000000
3E000000
3E000000
3E000000
3E000000
3E000000
3E000000
3E000000
3E000000
3E000000
3E000000
00000006
00000006
00000006
00000006
00000000
00000000
00000000
00000000
00000000
00000000
00000000
00000000
00000000
00000000
ENDCHAR

STARTCHAR CODE081
ENCODING 81
SWIDTH 451 0
DWIDTH 32 0
BBX 32 64 0 -6
BITMAP
00000000
00000000
000FF000
003FFC00
00FFFF00
01FFFF80
03FFFFC0
07F81FE0
07E007E0
0FC003F0
0FC003F0
1F8001F8
1F8001F8
1F0000F8
3F0000FC
3E00007C
3E00007C
3E00007C
7E00007E
7E00007E
7C00003E
7C00003E
7C00003E
7C00003E
7C00003E
7C00003E
7C00003E
7C00003E
7C00003E
7C00003E
7C00003E
7C00003E
7C00003E
7C00003E
7E00007E
7E00007E
3E00387C
3E007C7C
3F00FEFC
1F00FFF8
1F807FF8
1F803FF8
0FC01FF0
0FC00FF0
07E007F0
07F81FF8
03FFFFFC
01FFFFFE
00FFFFFE
003FFC7E
000FF03C
00000018
00000000
00000000
00000000
00000000
00000000
00000000
00000000
00000000
00000000
00000000
00000000
00000000
ENDCHAR

STARTCHAR CODE082
ENCODING 82
SWIDTH 451 0
DWIDTH 32 0
BBX 32 64 0 -6
BITMAP
00000000
00000000
00000000
3FFFF800
3FFFFF00
3FFFFF80
3FFFFFC0
3FFFFFE0
3E000FF0
3E0003F0
3E0001F8
3E0001F8
3E0000F8
3E0000F8
3E0000F8
3E0000F8
3E0000F8
3E0000F8
3E0000F8
3E0000F8
3E0001F8
3E0001F0
3E0003F0
3E0007E0
3E001FE0
3FFFFFC0
3FFFFF80
3FFFFF00
3FFFFF80
3FFFFFC0
3E003FC0
3E000FE0
3E0007E0
3E0003F0
3E0003F0
3E0003F0
3E0001F0
3E0001F0
3E0001F0
3E0001F0
3E0001F0
3E0001F0
3E0001F0
3E0001F0
3E0001F0
3E0001F0
3E0001F8
3E0001F8
3E0001FC
3E0001FC
00000000
00000000
00000000
00000000
00000000
00000000
00000000
00000000
00000000
00000000
00000000
00000000
00000000
00000000
ENDCHAR

STARTCHAR CODE083
ENCODING 83
SWIDTH 451 0
DWIDTH 32 0
BBX 32 64 0 -6
BITMAP
00000000
00000000
003FFC00
00FFFF00
01FFFF80
03FFFFC0
07FFFFE0
07F81FE0
0FE007F0
0FC003F0
1F8001F8
1F8001F8
1F0000F8
1F0000F8
1F0000F8
1F0000F8
1F000000
1F000000
1F800000
1FC00000
0FE00000
0FF00000
07FC0000
03FF0000
01FFE000
00FFF800
003FFE00
000FFF80
0003FFC0
00007FE0
00001FF0
000007F0
000003F8
000001F8
000000FC
000000FC
3E00007C
3E00007C
3E00007C
3E00007C
3F00007C
1F0000FC
1F8000FC
1FC001F8
0FE003F8
0FF80FF0
07FFFFF0
03FFFFE0
01FFFFC0
007FFF00
001FFC00
00000000
00000000
00000000
00000000
00000000
00000000
00000000
00000000
00000000
00000000
00000000
00000000
00000000
ENDCHAR

STARTCHAR CODE084
ENCODING 84
SWIDTH 451 0
DWIDTH 32 0
BBX 32 64 0 -6
BITMAP
00000000
00000000
00000000
3FFFFFFC
3FFFFFFC
3FFFFFFC
3FFFFFFC
3FFFFFFC
0003E000
0003E000
0003E000
0003E000
0003E000
0003E000
0003E000
0003E000
0003E000
0003E000
0003E000
0003E000
0003E000
0003E000
0003E000
0003E000
0003E000
0003E000
0003E000
0003E000
0003E000
0003E000
0003E000
0003E000
0003E000
0003E000
0003E000
0003E000
0003E000
0003E000
0003E000
0003E000
0003E000
0003E000
0003E000
0003E000
0003E000
0003E000
0003E000
0003E000
0003E000
0003E000
00000000
00000000
00000000
00000000
00000000
00000000
00000000
00000000
00000000
00000000
00000000
00000000
00000000
00000000
ENDCHAR

STARTCHAR CODE085
ENCODING 85
SWIDTH 451 0
DWIDTH 32 0
BBX 32 64 0 -6
BITMAP
00000000
00000000
00000000
3E00007C
3E00007C
3E00007C
3E00007C
3E00007C
3E00007C
3E00007C
3E00007C
3E00007C
3E00007C
3E00007C
3E00007C
3E00007C
3E00007C
3E00007C
3E00007C
3E00007C
3E00007C
3E00007C
3E00007C
3E00007C
3E00007C
3E00007C
3E00007C
3E00007C
3E00007C
3E00007C
3E00007C
3E00007C
3E00007C
3E00007C
3E00007C
3E00007C
3E00007C
3E00007C
3E00007C
3F0000FC
3F0000FC
3F0000FC
1F8001F8
1F8001F8
1FC003F8
0FF00FF0
0FFFFFF0
07FFFFE0
03FFFFC0
00FFFF00
003FFC00
00000000
00000000
00000000
00000000
00000000
00000000
00000000
00000000
00000000
00000000
00000000
00000000
00000000
ENDCHAR

STARTCHAR CODE086
ENCODING 86
SWIDTH 451 0
DWIDTH 32 0
BBX 32 64 0 -6
BITMAP
00000000
00000000
00000000
7E00007E
7E00007E
7E00007E
3E00007C
3F0000FC
3F0000FC
1F0000F8
1F0000F8
1F8001F8
1F8001F8
0F8001F0
0F8001F0
0FC003F0
07C003E0
07C003E0
07C003E0
07E007E0
03E007C0
03E007C0
03E007C0
03F00FC0
01F00F80
01F00F80
01F80F80
01F81F80
00F81F00
00F81F00
00FC1F00
00FC3E00
007C3E00
007C3E00
007E7E00
003E7C00
003E7C00
003E7C00
003FFC00
001FF800
001FF800
001FF800
001FF800
000FF000
000FF000
000FF000
000FF000
0007E000
0007E000
0007E000
00000000
00000000
00000000
00000000
00000000
00000000
00000000
00000000
00000000
00000000
00000000
00000000
00000000
00000000
ENDCHAR

STARTCHAR CODE087
ENCODING 87
SWIDTH 451 0
DWIDTH 32 0
BBX 32 64 0 -6
BITMAP
00000000
00000000
00000000
7C03F00F
7C03F00F
7C03F00F
7C03F00F
7C03F00F
7C03F00F
3E07F81F
3E07F81F
3E07F81F
3E07F81F
3E07F81F
3E07F81F
3E07F81F
1F0FFC3E
1F0FFC3E
1F0FFC3E
1F0F3C3E
1F0F3C3E
1F0F3C3E
1F0F3C3E
1F0F3C3E
0F9F3E7C
0F9F3E7C
0F9F3E7C
0F9E1E7C
0F9E1E7C
0F9E1E7C
0F9E1E7C
079E1E78
07FE1FF8
07FC0FF8
07FC0FF8
07FC0FF8
07FC0FF8
07FC0FF8
07FC0FF8
03FC0FF0
03F807F0
03F807F0
03F807F0
03F807F0
03F807F0
03F807F0
01F003E0
01F003E0
01F003E0
01F003E0
00000000
00000000
00000000
00000000
00000000
00000000
00000000
00000000
00000000
00000000
00000000
00000000
00000000
00000000
ENDCHAR

STARTCHAR CODE088
ENCODING 88
SWIDTH 451 0
DWIDTH 32 0
BBX 32 64 0 -6
BITMAP
00000000
00000000
00000000
3F0000FC
3F0000FC
1F8001F8
1F8001F8
0FC003F0
0FC003F0
07E007E0
07E007E0
03F00FC0
03F00FC0
01F81F80
01F81F80
00FC3F00
00FC3F00
007E7E00
007E7E00
003FFC00
003FFC00
001FF800
001FF800
000FF000
000FF000
0007E000
0007E000
000FF000
000FF000
001FF800
001FF800
003FFC00
003FFC00
007E7E00
007E7E00
00FC3F00
00FC3F00
01F81F80
01F81F80
03F00FC0
03F00FC0
07E007E0
07E007E0
0FC003F0
0FC003F0
1F8001F8
1F8001F8
3F0000FC
3F0000FC
00000000
00000000
00000000
00000000
00000000
00000000
00000000
00000000
00000000
00000000
00000000
00000000
00000000
00000000
00000000
ENDCHAR

STARTCHAR CODE089
ENCODING 89
SWIDTH 451 0
DWIDTH 32 0
BBX 32 64 0 -6
BITMAP
00000000
00000000
00000000
00000000
7E00007E
7E00007E
3F0000FC
3F0000FC
1F8001F8
1F8001F8
0FC003F0
0FC003F0
07C003E0
07E007E0
03E007C0
03F00FC0
01F00F80
01F81F80
00F81F00
00FC3F00
007C3E00
007E7E00
003E7C00
003FFC00
001FF800
001FF800
001FF000
000FF000
000FE000
0007E000
0007C000
0007C000
0007C000
0007C000
0007C000
0007C000
0007C000
0007C000
0007C000
0007C000
0007C000
0007C000
0007C000
0007C000
0007C000
0007C000
0007C000
0007C000
0007C000
0007C000
00000000
00000000
00000000
00000000
00000000
00000000
00000000
00000000
00000000
00000000
00000000
00000000
00000000
00000000
ENDCHAR

STARTCHAR CODE090
ENCODING 90
SWIDTH 451 0
DWIDTH 32 0
BBX 32 64 0 -6
BITMAP
00000000
00000000
00000000
1FFFFFFC
1FFFFFFC
1FFFFFFC
1FFFFFFC
1FFFFFFC
000000FC
000001F8
000003F8
000003F0
000007E0
000007E0
00000FC0
00000FC0
00001F80
00003F00
00003F00
00007E00
00007E00
0000FC00
0001F800
0001F800
0003F000
0003F000
0007E000
000FC000
000FC000
001F8000
001F8000
003F0000
007E0000
007E0000
00FC0000
00FC0000
01F80000
03F00000
03F00000
07E00000
07E00000
0FC00000
1F800000
1F800000
3F000000
3FFFFFFC
3FFFFFFC
3FFFFFFC
3FFFFFFC
3FFFFFFC
00000000
00000000
00000000
00000000
00000000
00000000
00000000
00000000
00000000
00000000
00000000
00000000
00000000
00000000
ENDCHAR

STARTCHAR CODE091
ENCODING 91
SWIDTH 451 0
DWIDTH 32 0
BBX 32 64 0 -6
BITMAP
00000000
00000000
00000000
00FFFF00
00FFFF00
00FFFF00
00FFFF00
00FFFF00
00F80000
00F80000
00F80000
00F80000
00F80000
00F80000
00F80000
00F80000
00F80000
00F80000
00F80000
00F80000
00F80000
00F80000
00F80000
00F80000
00F80000
00F80000
00F80000
00F80000
00F80000
00F80000
00F80000
00F80000
00F80000
00F80000
00F80000
00F80000
00F80000
00F80000
00F80000
00F80000
00F80000
00F80000
00F80000
00F80000
00F80000
00F80000
00F80000
00F80000
00F80000
00F80000
00F80000
00F80000
00F80000
00F80000
00F80000
00F80000
00F80000
00F80000
00FFFF00
00FFFF00
00FFFF00
00FFFF00
00FFFF00
00000000
ENDCHAR

STARTCHAR CODE092
ENCODING 92
SWIDTH 451 0
DWIDTH 32 0
BBX 32 64 0 -6
BITMAP
00000000
00000000
00000000
7C03F00F
7C03F00F
7C03F00F
7C03F00F
7C03F00F
7C03F00F
3E07F81F
3E07F81F
3E07F81F
3E07F81F
3E07F81F
3E07F81F
3E07F81F
7FFFFFFF
7FFFFFFF
7FFFFFFF
7FFFFFFF
1F0F3C3E
1F0F3C3E
1F0F3C3E
1F0F3C3E
0F9F3E7C
0F9F3E7C
0F9F3E7C
0F9E1E7C
0F9E1E7C
0F9E1E7C
7FFFFFFF
7FFFFFFF
7FFFFFFF
7FFFFFFF
07FC0FF8
07FC0FF8
07FC0FF8
07FC0FF8
07FC0FF8
03FC0FF0
03F807F0
03F807F0
03F807F0
03F807F0
03F807F0
03F807F0
01F003E0
01F003E0
01F003E0
01F003E0
00000000
00000000
00000000
00000000
00000000
00000000
00000000
00000000
00000000
00000000
00000000
00000000
00000000
00000000
ENDCHAR

STARTCHAR CODE093
ENCODING 93
SWIDTH 451 0
DWIDTH 32 0
BBX 32 64 0 -6
BITMAP
00000000
00000000
00000000
00FFFF00
00FFFF00
00FFFF00
00FFFF00
00FFFF00
00001F00
00001F00
00001F00
00001F00
00001F00
00001F00
00001F00
00001F00
00001F00
00001F00
00001F00
00001F00
00001F00
00001F00
00001F00
00001F00
00001F00
00001F00
00001F00
00001F00
00001F00
00001F00
00001F00
00001F00
00001F00
00001F00
00001F00
00001F00
00001F00
00001F00
00001F00
00001F00
00001F00
00001F00
00001F00
00001F00
00001F00
00001F00
00001F00
00001F00
00001F00
00001F00
00001F00
00001F00
00001F00
00001F00
00001F00
00001F00
00001F00
00001F00
00FFFF00
00FFFF00
00FFFF00
00FFFF00
00FFFF00
00000000
ENDCHAR

STARTCHAR CODE094
ENCODING 94
SWIDTH 451 0
DWIDTH 32 0
BBX 32 64 0 -6
BITMAP
00000000
00000000
00000000
00000000
00000000
0003C000
0007E000
0007E000
000FF000
001FF800
001FF800
003FFC00
007E7E00
007C3E00
00FC3F00
01F81F80
01F00F80
03F00FC0
07E007E0
07C003E0
0FC003F0
1F8001F8
1F0000F8
3F0000FC
3E00007C
00000000
00000000
00000000
00000000
00000000
00000000
00000000
00000000
00000000
00000000
00000000
00000000
00000000
00000000
00000000
00000000
00000000
00000000
00000000
00000000
00000000
00000000
00000000
00000000
00000000
00000000
00000000
00000000
00000000
00000000
00000000
00000000
00000000
00000000
00000000
00000000
00000000
00000000
00000000
ENDCHAR

STARTCHAR CODE095
ENCODING 95
SWIDTH 451 0
DWIDTH 32 0
BBX 32 64 0 -6
BITMAP
00000000
00000000
00000000
00000000
00000000
00000000
00000000
00000000
00000000
00000000
00000000
00000000
00000000
00000000
00000000
00000000
00000000
00000000
00000000
00000000
00000000
00000000
00000000
00000000
00000000
00000000
00000000
00000000
00000000
00000000
00000000
00000000
00000000
00000000
00000000
00000000
00000000
00000000
00000000
00000000
00000000
00000000
00000000
00000000
00000000
00000000
00000000
00000000
00000000
00000000
00000000
00000000
00000000
7FFFFFFE
7FFFFFFE
7FFFFFFE
7FFFFFFE
7FFFFFFE
00000000
00000000
00000000
00000000
00000000
00000000
ENDCHAR

STARTCHAR CODE096
ENCODING 96
SWIDTH 451 0
DWIDTH 32 0
BBX 32 64 0 -6
BITMAP
00000000
00000000
001F8000
001F8000
000FC000
000FC000
0007E000
0003E000
0003F000
0001F000
0001F800
0000F800
00007800
00000000
00000000
00000000
00000000
00000000
00000000
00000000
00000000
00000000
00000000
00000000
00000000
00000000
00000000
00000000
00000000
00000000
00000000
00000000
00000000
00000000
00000000
00000000
00000000
00000000
00000000
00000000
00000000
00000000
00000000
00000000
00000000
00000000
00000000
00000000
00000000
00000000
00000000
00000000
00000000
00000000
00000000
00000000
00000000
00000000
00000000
00000000
00000000
00000000
00000000
00000000
ENDCHAR

STARTCHAR CODE097
ENCODING 97
SWIDTH 451 0
DWIDTH 32 0
BBX 32 64 0 -6
BITMAP
00000000
00000000
00000000
00000000
00000000
00000000
00000000
00000000
00000000
00000000
00000000
00000000
00000000
00000000
00000000
001FF800
007FFE00
01FFFF00
03FFFF80
07F83FC0
07E00FC0
0FC007E0
0FC007E0
0F8003E0
0F8003E0
0F8003E0
000003E0
000003E0
00000FE0
0001FFE0
003FFFE0
00FFFFE0
03FFFFE0
07FFC3E0
0FFC03E0
0FE003E0
1FC003E0
1F8003E0
1F8003E0
1F0003E0
1F0003E0
1F0007E0
1F0007E0
1F000FE0
1F801FE0
1FC07FFC
0FFFFFFC
0FFFFDFC
07FFF9FC
01FFE0FC
007F8000
00000000
00000000
00000000
00000000
00000000
00000000
00000000
00000000
00000000
00000000
00000000
00000000
00000000
ENDCHAR

STARTCHAR CODE098
ENCODING 98
SWIDTH 451 0
DWIDTH 32 0
BBX 32 64 0 -6
BITMAP
00000000
00000000
00000000
1F000000
1F000000
1F000000
1F000000
1F000000
1F000000
1F000000
1F000000
1F000000
1F000000
1F000000
1F000000
1F07F800
1F1FFE00
1F7FFF80
1FFFFFC0
1FFFFFE0
1FFC1FE0
1FF007F0
1FE003F0
1FC001F0
1FC001F8
1F8000F8
1F8000F8
1F0000F8
1F0000F8
1F0000F8
1F0000F8
1F0000F8
1F0000F8
1F0000F8
1F0000F8
1F0000F8
1F0000F8
1F0000F8
1F0000F8
1F0000F8
1F0000F8
1F8001F8
1F8001F0
1FC003F0
1FF007E0
1FFC1FE0
1FFFFFC0
1FFFFF80
1F7FFF00
1F1FFE00
0007F800
00000000
00000000
00000000
00000000
00000000
00000000
00000000
00000000
00000000
00000000
00000000
00000000
00000000
ENDCHAR

STARTCHAR CODE099
ENCODING 99
SWIDTH 451 0
DWIDTH 32 0
BBX 32 64 0 -6
BITMAP
00000000
00000000
00000000
00000000
00000000
00000000
00000000
00000000
00000000
00000000
00000000
00000000
00000000
00000000
00000000
000FF800
003FFE00
00FFFF80
01FFFFC0
03FFFFE0
03FC0FF0
07F003F0
07E001F8
0FC001F8
0FC000F8
0F8000F8
1F8000F8
1F800000
1F000000
1F000000
1F000000
1F000000
1F000000
1F000000
1F000000
1F000000
1F000000
1F000000
1F0000F8
1F8000F8
1F8000F8
0F8000F8
0FC001F8
0FC001F0
07F003F0
07FC0FE0
03FFFFE0
01FFFFC0
00FFFF80
003FFE00
000FF800
00000000
00000000
00000000
00000000
00000000
00000000
00000000
00000000
00000000
00000000
00000000
00000000
00000000
ENDCHAR

STARTCHAR CODE100
ENCODING 100
SWIDTH 451 0
DWIDTH 32 0
BBX 32 64 0 -6
BITMAP
00000000
00000000
00000000
000000F8
000000F8
000000F8
000000F8
000000F8
000000F8
000000F8
000000F8
000000F8
000000F8
000000F8
000000F8
000000F8
000000F8
003FF8F8
00FFFEF8
01FFFFF8
03FFFFF8
07FFFFF8
07F81FF8
0FE007F8
0FC003F8
0FC003F8
1F8001F8
1F8001F8
1F8001F8
1F0000F8
1F0000F8
1F0000F8
1F0000F8
1F0000F8
1F0000F8
1F0000F8
1F0000F8
1F0000F8
1F0000F8
1F8001F8
1F8001F8
1F8001F8
0FC003F8
0FC003F8
0FE007F8
07F81FF8
07FFFFF8
03FFFFF8
03FFFFF8
00FFFEF8
003FF8F8
00000000
00000000
00000000
00000000
00000000
00000000
00000000
00000000
00000000
00000000
00000000
00000000
00000000
ENDCHAR

STARTCHAR CODE101
ENCODING 101
SWIDTH 451 0
DWIDTH 32 0
BBX 32 64 0 -6
BITMAP
00000000
00000000
00000000
00000000
00000000
00000000
00000000
00000000
00000000
00000000
00000000
00000000
00000000
00000000
00000000
000FF000
003FFC00
00FFFF00
01FFFF80
03FFFFC0
07F81FE0
07E007E0
0FC003F0
0FC001F0
1F8001F8
1F8000F8
1F0000FC
3F0000FC
3E00007C
3E00007C
3FFFFFFC
3FFFFFFC
3FFFFFFC
3FFFFFFC
3FFFFFFC
3E000000
3E000000
3E000000
3F000000
1F00007C
1F80007C
1F8000FC
0FC000FC
0FE001F8
07F007F8
07FC1FF0
03FFFFE0
01FFFFC0
00FFFF80
003FFE00
000FF800
00000000
00000000
00000000
00000000
00000000
00000000
00000000
00000000
00000000
00000000
00000000
00000000
00000000
ENDCHAR

STARTCHAR CODE102
ENCODING 102
SWIDTH 451 0
DWIDTH 32 0
BBX 32 64 0 -6
BITMAP
00000000
00000000
00000000
0000FF80
0003FF80
0003FF80
0007FF80
0007FF80
0007E000
0007C000
0007C000
0007C000
0007C000
0007C000
0007C000
0007C000
07FFFFC0
07FFFFC0
07FFFFC0
07FFFFC0
07FFFFC0
0007C000
0007C000
0007C000
0007C000
0007C000
0007C000
0007C000
0007C000
0007C000
0007C000
0007C000
0007C000
0007C000
0007C000
0007C000
0007C000
0007C000
0007C000
0007C000
0007C000
0007C000
0007C000
0007C000
0007C000
0007C000
0007C000
0007C000
0007C000
0007C000
00000000
00000000
00000000
00000000
00000000
00000000
00000000
00000000
00000000
00000000
00000000
00000000
00000000
00000000
ENDCHAR

STARTCHAR CODE103
ENCODING 103
SWIDTH 451 0
DWIDTH 32 0
BBX 32 64 0 -6
BITMAP
00000000
00000000
00000000
00000000
00000000
00000000
00000000
00000000
00000000
00000000
00000000
00000000
00000000
00000000
00000000
001FF800
007FFEF8
00FFFFF8
01FFFFF8
03FFFFF8
07F80FF8
0FE003F8
0FC001F8
0FC001F8
1F8001F8
1F8000F8
1F0000F8
3F0000F8
3F0000F8
3E0000F8
3E0000F8
3E0000F8
3E0000F8
3E0000F8
3E0000F8
3E0000F8
3F0000F8
3F0001F8
1F8001F8
1F8001F8
1FC003F8
0FC003F8
0FE007F8
07F81FF8
07FFFFF8
03FFFFF8
01FFFFF8
00FFFCF8
003FF0F8
000000F8
000000F8
000000F8
1F0001F8
1F0001F0
1F8001F0
1F8003F0
0FC007E0
0FF01FE0
07FFFFC0
07FFFF80
03FFFF00
00FFFE00
003FF800
00000000
ENDCHAR

STARTCHAR CODE104
ENCODING 104
SWIDTH 451 0
DWIDTH 32 0
BBX 32 64 0 -6
BITMAP
00000000
00000000
00000000
1F000000
1F000000
1F000000
1F000000
1F000000
1F000000
1F000000
1F000000
1F000000
1F000000
1F000000
1F000000
1F07FC00
1F1FFF00
1F7FFFC0
1FFFFFE0
1FFFFFF0
1FFE3FF0
1FF007F8
1FC001F8
1F8001F8
1F0000F8
1F0000F8
1F0000F8
1F0000F8
1F0000F8
1F0000F8
1F0000F8
1F0000F8
1F0000F8
1F0000F8
1F0000F8
1F0000F8
1F0000F8
1F0000F8
1F0000F8
1F0000F8
1F0000F8
1F0000F8
1F0000F8
1F0000F8
1F0000F8
1F0000F8
1F0000F8
1F0000F8
1F0000F8
1F0000F8
00000000
00000000
00000000
00000000
00000000
00000000
00000000
00000000
00000000
00000000
00000000
00000000
00000000
00000000
ENDCHAR

STARTCHAR CODE105
ENCODING 105
SWIDTH 451 0
DWIDTH 32 0
BBX 32 64 0 -6
BITMAP
00000000
00000000
00000000
0003E000
0003E000
0003E000
0003E000
0003E000
0003E000
0003E000
0003E000
00000000
00000000
00000000
00000000
00000000
0003E000
0003E000
0003E000
0003E000
0003E000
0003E000
0003E000
0003E000
0003E000
0003E000
0003E000
0003E000
0003E000
0003E000
0003E000
0003E000
0003E000
0003E000
0003E000
0003E000
0003E000
0003E000
0003E000
0003E000
0003E000
0003E000
0003E000
0003E000
0003E000
0003E000
0003E000
0003E000
0003E000
0003E000
00000000
00000000
00000000
00000000
00000000
00000000
00000000
00000000
00000000
00000000
00000000
00000000
00000000
00000000
ENDCHAR

STARTCHAR CODE106
ENCODING 106
SWIDTH 451 0
DWIDTH 32 0
BBX 32 64 0 -6
BITMAP
00000000
00000000
00000000
0003E000
0003E000
0003E000
0003E000
0003E000
0003E000
0003E000
0003E000
00000000
00000000
00000000
00000000
00000000
0003E000
0003E000
0003E000
0003E000
0003E000
0003E000
0003E000
0003E000
0003E000
0003E000
0003E000
0003E000
0003E000
0003E000
0003E000
0003E000
0003E000
0003E000
0003E000
0003E000
0003E000
0003E000
0003E000
0003E000
0003E000
0003E000
0003E000
0003E000
0003E000
0003E000
0003E000
0003E000
0003E000
0003E000
0003E000
0003E000
0003E000
0003E000
0003E000
0003E000
0007E000
000FE000
007FE000
007FC000
007FC000
007F8000
007E0000
00000000
ENDCHAR

STARTCHAR CODE107
ENCODING 107
SWIDTH 451 0
DWIDTH 32 0
BBX 32 64 0 -6
BITMAP
00000000
00000000
00000000
0F800000
0F800000
0F800000
0F800000
0F800000
0F800000
0F800000
0F800000
0F800000
0F800000
0F800000
0F800000
0F800000
0F8007E0
0F800FE0
0F801FC0
0F803F80
0F807F00
0F80FE00
0F81FC00
0F83F800
0F87F000
0F8FE000
0F9FC000
0FBF8000
0FFF0000
0FFF8000
0FFF8000
0FFFC000
0FF7C000
0FE7E000
0FC3E000
0F83F000
0F81F000
0F81F800
0F80F800
0F80FC00
0F807C00
0F807E00
0F803E00
0F803F00
0F801F00
0F801F80
0F800F80
0F800FC0
0F8007E0
0F8007E0
00000000
00000000
00000000
00000000
00000000
00000000
00000000
00000000
00000000
00000000
00000000
00000000
00000000
00000000
ENDCHAR

STARTCHAR CODE108
ENCODING 108
SWIDTH 451 0
DWIDTH 32 0
BBX 32 64 0 -6
BITMAP
00000000
00000000
00000000
0003E000
0003E000
0003E000
0003E000
0003E000
0003E000
0003E000
0003E000
0003E000
0003E000
0003E000
0003E000
0003E000
0003E000
0003E000
0003E000
0003E000
0003E000
0003E000
0003E000
0003E000
0003E000
0003E000
0003E000
0003E000
0003E000
0003E000
0003E000
0003E000
0003E000
0003E000
0003E000
0003E000
0003E000
0003E000
0003E000
0003E000
0003E000
0003E000
0003E000
0003E000
0003E000
0003E000
0003E000
0003E000
0003E000
0003E000
00000000
00000000
00000000
00000000
00000000
00000000
00000000
00000000
00000000
00000000
00000000
00000000
00000000
00000000
ENDCHAR

STARTCHAR CODE109
ENCODING 109
SWIDTH 451 0
DWIDTH 32 0
BBX 32 64 0 -6
BITMAP
00000000
00000000
00000000
00000000
00000000
00000000
00000000
00000000
00000000
00000000
00000000
00000000
00000000
00000000
00000000
00000000
7C7E07E0
7DFF1FF8
7FFFBFFC
7FFFFFFC
7FFFFFFE
7F8FF8FE
7F07F07E
7E07F07E
7E03E03E
7C03E03E
7C03E03E
7C03E03E
7C03E03E
7C03E03E
7C03E03E
7C03E03E
7C03E03E
7C03E03E
7C03E03E
7C03E03E
7C03E03E
7C03E03E
7C03E03E
7C03E03E
7C03E03E
7C03E03E
7C03E03E
7C03E03E
7C03E03E
7C03E03E
7C03E03E
7C03E03E
7C03E03E
7C03E03E
00000000
00000000
00000000
00000000
00000000
00000000
00000000
00000000
00000000
00000000
00000000
00000000
00000000
00000000
ENDCHAR

STARTCHAR CODE110
ENCODING 110
SWIDTH 451 0
DWIDTH 32 0
BBX 32 64 0 -6
BITMAP
00000000
00000000
00000000
00000000
00000000
00000000
00000000
00000000
00000000
00000000
00000000
00000000
00000000
00000000
00000000
00000000
1F0FFE00
1F3FFF80
1F7FFFC0
1FFFFFE0
1FFC1FF0
1FF007F0
1FC001F8
1F8001F8
1F8000F8
1F0000F8
1F0000F8
1F0000F8
1F0000F8
1F0000F8
1F0000F8
1F0000F8
1F0000F8
1F0000F8
1F0000F8
1F0000F8
1F0000F8
1F0000F8
1F0000F8
1F0000F8
1F0000F8
1F0000F8
1F0000F8
1F0000F8
1F0000F8
1F0000F8
1F0000F8
1F0000F8
1F0000F8
1F0000F8
00000000
00000000
00000000
00000000
00000000
00000000
00000000
00000000
00000000
00000000
00000000
00000000
00000000
00000000
ENDCHAR

STARTCHAR CODE111
ENCODING 111
SWIDTH 451 0
DWIDTH 32 0
BBX 32 64 0 -6
BITMAP
00000000
00000000
00000000
00000000
00000000
00000000
00000000
00000000
00000000
00000000
00000000
00000000
00000000
00000000
00000000
001FF800
007FFE00
00FFFF00
01FFFF80
03FFFFC0
07F81FE0
07E007E0
07C003F0
0FC003F0
0F8001F0
0F8001F0
1F8001F8
1F0000F8
1F0000F8
1F0000F8
1F0000F8
1F0000F8
1F0000F8
1F0000F8
1F0000F8
1F0000F8
1F0000F8
1F0000F8
1F0000F8
1F8001F8
0F8001F0
0F8001F0
0FC003F0
07C003F0
07E007E0
07F81FE0
03FFFFC0
03FFFF80
01FFFF00
007FFC00
001FF000
00000000
00000000
00000000
00000000
00000000
00000000
00000000
00000000
00000000
00000000
00000000
00000000
00000000
ENDCHAR

STARTCHAR CODE112
ENCODING 112
SWIDTH 451 0
DWIDTH 32 0
BBX 32 64 0 -6
BITMAP
00000000
00000000
00000000
00000000
00000000
00000000
00000000
00000000
00000000
00000000
00000000
00000000
00000000
00000000
00000000
0007F800
1F1FFE00
1F3FFF80
1F7FFFC0
1FFFFFC0
1FF81FE0
1FE007E0
1FC003F0
1FC001F0
1F8001F0
1F8001F8
1F8000F8
1F0000F8
1F0000F8
1F0000F8
1F0000F8
1F0000F8
1F0000F8
1F0000F8
1F0000F8
1F0000F8
1F0000F8
1F0000F8
1F0000F8
1F8001F0
1F8001F0
1FC003F0
1FC003E0
1FE007E0
1FF81FC0
1FFFFFC0
1FFFFF80
1FFFFF00
1F7FFE00
1F1FF800
1F000000
1F000000
1F000000
1F000000
1F000000
1F000000
1F000000
1F000000
1F000000
1F000000
1F000000
1F000000
1F000000
00000000
ENDCHAR

STARTCHAR CODE113
ENCODING 113
SWIDTH 451 0
DWIDTH 32 0
BBX 32 64 0 -6
BITMAP
00000000
00000000
00000000
00000000
00000000
00000000
00000000
00000000
00000000
00000000
00000000
00000000
00000000
00000000
00000000
000FF000
003FFC7C
00FFFE7C
01FFFF7C
01FFFFFC
03FC0FFC
03F003FC
07E001FC
07C001FC
07C000FC
0FC000FC
0F8000FC
0F80007C
0F80007C
0F80007C
0F80007C
0F80007C
0F80007C
0F80007C
0F80007C
0F80007C
0F80007C
0F80007C
0F80007C
07C000FC
07C000FC
07E001FC
03E001FC
03F003FC
01FC0FFC
01FFFFFC
00FFFFFC
007FFFFC
003FFF7C
000FFC7C
0000007C
0000007C
0000007C
0000007C
0000007C
0000007C
0000007C
0000007C
0000007C
0000007C
0000007C
0000007C
0000007C
00000000
ENDCHAR

STARTCHAR CODE114
ENCODING 114
SWIDTH 451 0
DWIDTH 32 0
BBX 32 64 0 -6
BITMAP
00000000
00000000
00000000
00000000
00000000
00000000
00000000
00000000
00000000
00000000
00000000
00000000
00000000
00000000
00000000
01F03FC0
01F0FFC0
01F3FFC0
01F7FFC0
01FFFFC0
01FFF000
01FF8000
01FE0000
01FC0000
01F80000
01F80000
01F00000
01F00000
01F00000
01F00000
01F00000
01F00000
01F00000
01F00000
01F00000
01F00000
01F00000
01F00000
01F00000
01F00000
01F00000
01F00000
01F00000
01F00000
01F00000
01F00000
01F00000
01F00000
01F00000
01F00000
00000000
00000000
00000000
00000000
00000000
00000000
00000000
00000000
00000000
00000000
00000000
00000000
00000000
00000000
ENDCHAR

STARTCHAR CODE115
ENCODING 115
SWIDTH 451 0
DWIDTH 32 0
BBX 32 64 0 -6
BITMAP
00000000
00000000
00000000
00000000
00000000
00000000
00000000
00000000
00000000
00000000
00000000
00000000
00000000
00000000
00000000
003FF800
00FFFE00
03FFFF80
03FFFFC0
07F01FE0
07C007E0
0FC003F0
0F8003F0
0F8001F0
0F8001F0
0F8001F0
0F800000
0FC00000
07F00000
07FC0000
03FF8000
03FFF000
00FFFE00
003FFF80
0007FFC0
0000FFE0
00001FF0
000003F0
000001F8
1F0000F8
1F0000F8
1F0000F8
1F0000F8
1F8000F8
0FC001F8
0FF007F0
07FFFFF0
03FFFFE0
01FFFFC0
007FFF00
001FFC00
00000000
00000000
00000000
00000000
00000000
00000000
00000000
00000000
00000000
00000000
00000000
00000000
00000000
ENDCHAR

STARTCHAR CODE116
ENCODING 116
SWIDTH 451 0
DWIDTH 32 0
BBX 32 64 0 -6
BITMAP
00000000
00000000
00000000
00000000
00000000
00000000
0007C000
0007C000
0007C000
0007C000
0007C000
0007C000
0007C000
0007C000
0007C000
0007C000
03FFFFE0
03FFFFE0
03FFFFE0
03FFFFE0
03FFFFE0
0007C000
0007C000
0007C000
0007C000
0007C000
0007C000
0007C000
0007C000
0007C000
0007C000
0007C000
0007C000
0007C000
0007C000
0007C000
0007C000
0007C000
0007C000
0007C000
0007C000
0007C000
0007C000
0007C000
0007E000
0007FFC0
0007FFC0
0003FFC0
0003FFC0
0000FFC0
00000000
00000000
00000000
00000000
00000000
00000000
00000000
00000000
00000000
00000000
00000000
00000000
00000000
00000000
ENDCHAR

STARTCHAR CODE117
ENCODING 117
SWIDTH 451 0
DWIDTH 32 0
BBX 32 64 0 -6
BITMAP
00000000
00000000
00000000
00000000
00000000
00000000
00000000
00000000
00000000
00000000
00000000
00000000
00000000
00000000
00000000
00000000
1F0000F8
1F0000F8
1F0000F8
1F0000F8
1F0000F8
1F0000F8
1F0000F8
1F0000F8
1F0000F8
1F0000F8
1F0000F8
1F0000F8
1F0000F8
1F0000F8
1F0000F8
1F0000F8
1F0000F8
1F0000F8
1F0000F8
1F0000F8
1F0000F8
1F0000F8
1F0000F8
1F0000F8
1F0000F8
1F0001F8
1F8001F8
1F8003F8
0FC00FF8
0FF03FF8
07FFFFF8
07FFFFF8
03FFFEF8
01FFFCF8
007FF0F8
00000000
00000000
00000000
00000000
00000000
00000000
00000000
00000000
00000000
00000000
00000000
00000000
00000000
ENDCHAR

STARTCHAR CODE118
ENCODING 118
SWIDTH 451 0
DWIDTH 32 0
BBX 32 64 0 -6
BITMAP
00000000
00000000
00000000
00000000
00000000
00000000
00000000
00000000
00000000
00000000
00000000
00000000
00000000
00000000
00000000
00000000
3F0000FC
3F0000FC
3F0000FC
1F0000F8
1F8001F8
0F8001F0
0F8001F0
0FC003F0
07C003E0
07C003E0
07E007E0
03E007C0
03E007C0
03F00FC0
01F00F80
01F00F80
01F81F80
00F81F00
00F81F00
00FC3F00
007C3E00
007C3E00
007E7E00
003E7C00
003E7C00
003FFC00
001FF800
001FF800
001FF800
000FF000
000FF000
000FF000
0007E000
0007E000
00000000
00000000
00000000
00000000
00000000
00000000
00000000
00000000
00000000
00000000
00000000
00000000
00000000
00000000
ENDCHAR

STARTCHAR CODE119
ENCODING 119
SWIDTH 451 0
DWIDTH 32 0
BBX 32 64 0 -6
BITMAP
00000000
00000000
00000000
00000000
00000000
00000000
00000000
00000000
00000000
00000000
00000000
00000000
00000000
00000000
00000000
00000000
7C07E03E
7C07E03E
7C07E03E
7C07E03E
7C07E03E
3E0FF07C
3E0FF07C
3E0FF07C
3E0FF07C
3E0FF07C
1F1FF8F8
1F1FF8F8
1F1FF8F8
1F1FF8F8
1F1E78F8
0F1E78F0
0FBE7DF0
0FBE7DF0
0FBE7DF0
0FBC3DF0
07BC3DE0
07BC3DE0
07BC3DE0
07FC3FE0
07F81FE0
03F81FC0
03F81FC0
03F81FC0
03F81FC0
03F00FC0
01F00F80
01F00F80
01F00F80
01F00F80
00000000
00000000
00000000
00000000
00000000
00000000
00000000
00000000
00000000
00000000
00000000
00000000
00000000
00000000
ENDCHAR

STARTCHAR CODE120
ENCODING 120
SWIDTH 451 0
DWIDTH 32 0
BBX 32 64 0 -6
BITMAP
00000000
00000000
00000000
00000000
00000000
00000000
00000000
00000000
00000000
00000000
00000000
00000000
00000000
00000000
00000000
00000000
1F8001F8
1FC003F8
0FC003F0
07E007E0
03F007C0
03F00FC0
01F81F80
00F81F00
00FC3F00
007E7E00
003E7C00
003FFC00
001FF800
001FF800
000FF000
000FF000
0007E000
000FF000
000FF000
001FF800
001FFC00
003FFC00
003E7E00
007E3E00
00FC3F00
00F81F80
01F81F80
01F00FC0
03F007C0
07E007E0
07C003F0
0FC003F0
1F8001F8
1F8001F8
00000000
00000000
00000000
00000000
00000000
00000000
00000000
00000000
00000000
00000000
00000000
00000000
00000000
00000000
ENDCHAR

STARTCHAR CODE121
ENCODING 121
SWIDTH 451 0
DWIDTH 32 0
BBX 32 64 0 -6
BITMAP
00000000
00000000
00000000
00000000
00000000
00000000
00000000
00000000
00000000
00000000
00000000
00000000
00000000
00000000
00000000
00000000
3F0000FC
3F0000FC
1F0000F8
1F8001F8
0F8001F0
0F8001F0
07C001F0
07C003E0
07C003E0
03E003E0
03E007C0
03E007C0
01F007C0
01F00780
01F00F80
00F80F80
00F80F80
00FC1F00
007C1F00
007C1F00
007E1E00
003E3E00
003E3E00
001F3C00
001F7C00
001F7C00
000FF800
000FF800
000FF800
0007F000
0007F000
0007F000
0003E000
0003E000
0003E000
0003E000
0007C000
0007C000
000FC000
000F8000
001F8000
007F0000
07FF0000
07FE0000
07FC0000
07F80000
07E00000
00000000
ENDCHAR

STARTCHAR CODE122
ENCODING 122
SWIDTH 451 0
DWIDTH 32 0
BBX 32 64 0 -6
BITMAP
00000000
00000000
00000000
00000000
00000000
00000000
00000000
00000000
00000000
00000000
00000000
00000000
00000000
00000000
00000000
00000000
07FFFFF0
07FFFFF0
07FFFFF0
07FFFFF0
07FFFFF0
000007E0
00000FC0
00000FC0
00001F80
00003F00
00007E00
00007E00
0000FC00
0001F800
0001F800
0003F000
0007E000
0007E000
000FC000
001F8000
003F0000
003F0000
007E0000
00FC0000
00FC0000
01F80000
03F00000
07E00000
07E00000
0FFFFFF8
0FFFFFF8
0FFFFFF8
0FFFFFF8
0FFFFFF8
00000000
00000000
00000000
00000000
00000000
00000000
00000000
00000000
00000000
00000000
00000000
00000000
00000000
00000000
ENDCHAR

STARTCHAR CODE123
ENCODING 123
SWIDTH 451 0
DWIDTH 32 0
BBX 32 64 0 -6
BITMAP
00000000
00000000
00000000
00007E00
0001FE00
0001FE00
0003FE00
0003FE00
0003F000
0003E000
0003E000
0003E000
0003E000
0003E000
0003E000
0003E000
0003E000
0003E000
0003E000
0003E000
0003E000
0003E000
0003E000
0003E000
0003E000
0003E000
0007E000
0007C000
000FC000
001F8000
003F0000
007F0000
007E0000
007E0000
003F0000
001F0000
000F8000
000FC000
0007C000
0007E000
0003E000
0003E000
0003E000
0003E000
0003E000
0003E000
0003E000
0003E000
0003E000
0003E000
0003E000
0003E000
0003E000
0003E000
0003E000
0003E000
0003E000
0003F000
0003FE00
0003FE00
0001FE00
0001FE00
00007E00
00000000
ENDCHAR

STARTCHAR CODE124
ENCODING 124
SWIDTH 451 0
DWIDTH 32 0
BBX 32 64 0 -6
BITMAP
00000000
00000000
0003E000
0003E000
0003E000
0003E000
0003E000
0003E000
0003E000
0003E000
0003E000
0003E000
0003E000
0003E000
0003E000
0003E000
0003E000
0003E000
0003E000
0003E000
0003E000
0003E000
0003E000
0003E000
0003E000
0003E000
0003E000
0003E000
0003E000
0003E000
0003E000
0003E000
0003E000
0003E000
0003E000
0003E000
0003E000
0003E000
0003E000
0003E000
0003E000
0003E000
0003E000
0003E000
0003E000
0003E000
0003E000
0003E000
0003E000
0003E000
0003E000
00000000
00000000
00000000
00000000
00000000
00000000
00000000
00000000
00000000
00000000
00000000
00000000
00000000
ENDCHAR

STARTCHAR CODE125
ENCODING 125
SWIDTH 451 0
DWIDTH 32 0
BBX 32 64 0 -6
BITMAP
00000000
00000000
00000000
003F0000
003FC000
003FC000
003FE000
003FE000
0007E000
0003E000
0003E000
0003E000
0003E000
0003E000
0003E000
0003E000
0003E000
0003E000
0003E000
0003E000
0003E000
0003E000
0003E000
0003E000
0003E000
0003E000
0003F000
0001F000
0001F800
0000FC00
00007E00
00007F00
00003F00
00003F00
00007E00
00007C00
0000F800
0001F800
0001F000
0003F000
0003E000
0003E000
0003E000
0003E000
0003E000
0003E000
0003E000
0003E000
0003E000
0003E000
0003E000
0003E000
0003E000
0003E000
0003E000
0003E000
0003E000
0007E000
003FE000
003FE000
003FC000
003FC000
003F0000
00000000
ENDCHAR

STARTCHAR CODE126
ENCODING 126
SWIDTH 451 0
DWIDTH 32 0
BBX 32 64 0 -6
BITMAP
00000000
00000000
00000000
00000000
00000000
00000000
00000000
00000000
00000000
00000000
00000000
00000000
00000000
00000000
00000000
00000000
00000000
00000000
00000000
00000000
00000000
00000000
00000000
00000000
00000000
00000000
01F80000
07FE0030
0FFF8078
1FFFE0FC
3FFFF9FE
3FCFFFFE
1F87FFFC
0F01FFF0
06007FE0
00001F80
00000000
00000000
00000000
00000000
00000000
00000000
00000000
00000000
00000000
00000000
00000000
00000000
00000000
00000000
00000000
00000000
00000000
00000000
00000000
00000000
00000000
00000000
00000000
00000000
00000000
00000000
00000000
00000000
ENDCHAR

STARTCHAR CODE127
ENCODING 127
SWIDTH 451 0
DWIDTH 32 0
BBX 32 64 0 -6
BITMAP
00000000
00000000
00000000
00000000
00000000
00000000
00000000
00000000
00000000
00000000
00000000
00000000
00000000
00000000
00000000
00000000
00000000
00000000
00000000
00000000
00000000
00000000
00000000
00000000
00000000
00000000
00000000
00000000
00000000
00000000
00000000
00000000
00000000
00000000
00000000
00000000
00000000
00000000
00000000
00000000
00000000
00000000
00000000
00000000
00000000
00000000
00000000
00000000
00000000
00000000
00000000
00000000
00000000
00000000
00000000
00000000
00000000
00000000
00000000
00000000
00000000
00000000
00000000
00000000
ENDCHAR

STARTCHAR CODE128
ENCODING 128
SWIDTH 451 0
DWIDTH 32 0
BBX 32 64 0 -6
BITMAP
00000000
0007F800
003FFF00
00FFFFC0
01FFFFE0
03FFFFF0
07FC0FF8
07F003F8
0FE001FC
0FC000FC
1F8000FC
1F80007E
1F00007E
1F00003E
3F00003E
3E00003E
3E00003E
3E00003E
7E000000
7E000000
7C000000
7C000000
7C000000
7C000000
7C000000
7C000000
7C000000
7C000000
7C000000
7C000000
7C000000
7E000000
7E000000
3E00003E
3E00003E
3E00003E
3F00003E
3F00003E
1F80007E
1F80007E
1FC0007C
0FC000FC
0FE000FC
07F001F8
07FC07F8
03FF1FF0
01FFFFE0
00FFFFC0
007FFF00
001FFC00
0003C000
00078000
000FF000
001FF800
001FFC00
00007C00
00003C00
00003C00
0000FC00
0003FC00
003FF800
007FE000
007F0000
00000000
ENDCHAR

STARTCHAR CODE129
ENCODING 129
SWIDTH 451 0
DWIDTH 32 0
BBX 32 64 0 -6
BITMAP
00000000
00000000
00000000
00000000
007C7C00
007C7C00
007C7C00
007C7C00
007C7C00
007C7C00
007C7C00
00000000
00000000
00000000
00000000
00000000
1F0000F8
1F0000F8
1F0000F8
1F0000F8
1F0000F8
1F0000F8
1F0000F8
1F0000F8
1F0000F8
1F0000F8
1F0000F8
1F0000F8
1F0000F8
1F0000F8
1F0000F8
1F0000F8
1F0000F8
1F0000F8
1F0000F8
1F0000F8
1F0000F8
1F0000F8
1F0000F8
1F0000F8
1F0000F8
1F0001F8
1F8001F8
1F8003F8
0FC00FF8
0FF03FF8
07FFFFF8
07FFFFF8
03FFFEF8
01FFFCF8
007FF0F8
00000000
00000000
00000000
00000000
00000000
00000000
00000000
00000000
00000000
00000000
00000000
00000000
00000000
ENDCHAR

STARTCHAR CODE130
ENCODING 130
SWIDTH 451 0
DWIDTH 32 0
BBX 32 64 0 -6
BITMAP
00000000
00000000
00007E00
00007E00
0000FE00
0000FC00
0001F800
0001F000
0003E000
0007C000
00078000
00070000
00000000
00000000
00000000
000FF000
003FFC00
00FFFF00
01FFFF80
03FFFFC0
07F81FE0
07E007E0
0FC003F0
0FC001F0
1F8001F8
1F8000F8
1F0000F8
3F0000FC
3E00007C
3E00007C
3FFFFFFC
3FFFFFFC
3FFFFFFC
3FFFFFFC
3FFFFFFC
3E000000
3E000000
3E000000
3F000000
1F00007C
1F80007C
1F8000FC
0FC000FC
0FE001F8
07F007F8
07FC1FF0
03FFFFE0
01FFFFC0
00FFFF80
003FFE00
000FF800
00000000
00000000
00000000
00000000
00000000
00000000
00000000
00000000
00000000
00000000
00000000
00000000
00000000
ENDCHAR

STARTCHAR CODE131
ENCODING 131
SWIDTH 451 0
DWIDTH 32 0
BBX 32 64 0 -6
BITMAP
00000000
00000000
0007E000
0007E000
000FF000
000FF000
001FF800
001FF800
003E7C00
003E7C00
007C3E00
007C3E00
00000000
00000000
00000000
001FF800
007FFE00
01FFFF00
03FFFF80
07F83FC0
07E00FC0
0FC007E0
0FC007E0
0F8003E0
0F8003E0
0F8003E0
000003E0
000003E0
00000FE0
0001FFE0
003FFFE0
00FFFFE0
03FFFFE0
07FFC3E0
0FFC03E0
0FE003E0
1FC003E0
1F8003E0
1F8003E0
1F0003E0
1F0003E0
1F0007E0
1F0007E0
1F000FE0
1F801FE0
1FC07FFC
0FFFFFFC
0FFFFDFC
07FFF9FC
01FFE0FC
007F8000
00000000
00000000
00000000
00000000
00000000
00000000
00000000
00000000
00000000
00000000
00000000
00000000
00000000
ENDCHAR

STARTCHAR CODE132
ENCODING 132
SWIDTH 451 0
DWIDTH 32 0
BBX 32 64 0 -6
BITMAP
00000000
00000000
00000000
00000000
007C7C00
007C7C00
007C7C00
007C7C00
007C7C00
007C7C00
007C7C00
00000000
00000000
00000000
00000000
001FF800
007FFE00
01FFFF00
03FFFF80
07F83FC0
07E00FC0
0FC007E0
0FC007E0
0F8003E0
0F8003E0
0F8003E0
000003E0
000003E0
00000FE0
0001FFE0
003FFFE0
00FFFFE0
03FFFFE0
07FFC3E0
0FFC03E0
0FE003E0
1FC003E0
1F8003E0
1F8003E0
1F0003E0
1F0003E0
1F0007E0
1F0007E0
1F000FE0
1F801FE0
1FC07FFC
0FFFFFFC
0FFFFDFC
07FFF9FC
01FFE0FC
007F8000
00000000
00000000
00000000
00000000
00000000
00000000
00000000
00000000
00000000
00000000
00000000
00000000
00000000
ENDCHAR

STARTCHAR CODE133
ENCODING 133
SWIDTH 451 0
DWIDTH 32 0
BBX 32 64 0 -6
BITMAP
00000000
00000000
007E0000
007E0000
003F0000
003F0000
001F0000
000F8000
000F8000
0007C000
0007C000
0003C000
00000000
00000000
00000000
001FF800
007FFE00
01FFFF00
03FFFF80
07F83FC0
07E00FC0
0FC007E0
0FC007E0
0F8003E0
0F8003E0
0F8003E0
000003E0
000003E0
00000FE0
0001FFE0
003FFFE0
00FFFFE0
03FFFFE0
07FFC3E0
0FFC03E0
0FE003E0
1FC003E0
1F8003E0
1F8003E0
1F0003E0
1F0003E0
1F0007E0
1F0007E0
1F000FE0
1F801FE0
1FC07FFC
0FFFFFFC
0FFFFDFC
07FFF9FC
01FFE0FC
007F8000
00000000
00000000
00000000
00000000
00000000
00000000
00000000
00000000
00000000
00000000
00000000
00000000
00000000
ENDCHAR

STARTCHAR CODE134
ENCODING 134
SWIDTH 451 0
DWIDTH 32 0
BBX 32 64 0 -6
BITMAP
00000000
0007E000
001FF800
001FF800
003E7C00
003C3C00
00381C00
003C3C00
003E7C00
001FF800
001FF800
0007E000
00000000
00000000
00000000
001FF800
007FFE00
01FFFF00
03FFFF80
07F83FC0
07E00FC0
0FC007E0
0FC007E0
0F8003E0
0F8003E0
0F8003E0
000003E0
000003E0
00000FE0
0001FFE0
003FFFE0
00FFFFE0
03FFFFE0
07FFC3E0
0FFC03E0
0FE003E0
1FC003E0
1F8003E0
1F8003E0
1F0003E0
1F0003E0
1F0007E0
1F0007E0
1F000FE0
1F801FE0
1FC07FFC
0FFFFFFC
0FFFFDFC
07FFF9FC
01FFE0FC
007F8000
00000000
00000000
00000000
00000000
00000000
00000000
00000000
00000000
00000000
00000000
00000000
00000000
00000000
ENDCHAR

STARTCHAR CODE135
ENCODING 135
SWIDTH 451 0
DWIDTH 32 0
BBX 32 64 0 -6
BITMAP
00000000
00000000
00000000
00000000
00000000
00000000
00000000
00000000
00000000
00000000
00000000
00000000
00000000
00000000
00000000
0007F000
003FFE00
00FFFF80
01FFFFC0
03FFFFE0
03FC1FE0
07F007F0
07E003F0
0FC001F8
0FC001F8
0FC000F8
1F8000F8
1F8000F8
1F800000
1F000000
1F000000
1F000000
1F000000
1F000000
1F000000
1F000000
1F000000
1F000000
1F8000F8
1F8000F8
0FC000F8
0FC001F8
0FE001F8
07F007F0
07FC1FF0
03FFFFE0
03FFFFE0
01FFFFC0
007FFF00
001FFC00
0003C000
00078000
000FC000
001FF000
001FF800
0001FC00
00007C00
00007C00
0000FC00
0007FC00
003FF800
007FE000
007F0000
00000000
ENDCHAR

STARTCHAR CODE136
ENCODING 136
SWIDTH 451 0
DWIDTH 32 0
BBX 32 64 0 -6
BITMAP
00000000
00000000
0007E000
0007E000
000FF000
000FF000
001FF800
001FF800
003E7C00
003E7C00
007C3E00
007C3E00
00000000
00000000
00000000
000FF000
003FFC00
00FFFF00
01FFFF80
03FFFFC0
07F81FE0
07E007E0
0FC003F0
0FC001F0
1F8001F8
1F8000F8
1F0000FC
3F0000FC
3E00007C
3E00007C
3FFFFFFC
3FFFFFFC
3FFFFFFC
3FFFFFFC
3FFFFFFC
3E000000
3E000000
3E000000
3F000000
1F00007C
1F80007C
1F8000FC
0FC000FC
0FE001F8
07F007F8
07FC1FF0
03FFFFE0
01FFFFC0
00FFFF80
003FFE00
000FF800
00000000
00000000
00000000
00000000
00000000
00000000
00000000
00000000
00000000
00000000
00000000
00000000
00000000
ENDCHAR

STARTCHAR CODE137
ENCODING 137
SWIDTH 451 0
DWIDTH 32 0
BBX 32 64 0 -6
BITMAP
00000000
00000000
00000000
00000000
007C7C00
007C7C00
007C7C00
007C7C00
007C7C00
007C7C00
007C7C00
00000000
00000000
00000000
00000000
000FF000
003FFC00
00FFFF00
01FFFF80
03FFFFC0
07F81FE0
07E007E0
0FC003F0
0FC001F0
1F8001F8
1F8000F8
1F0000FC
3F0000FC
3E00007C
3E00007C
3FFFFFFC
3FFFFFFC
3FFFFFFC
3FFFFFFC
3FFFFFFC
3E000000
3E000000
3E000000
3F000000
1F00007C
1F80007C
1F8000FC
0FC000FC
0FE001F8
07F007F8
07FC1FF0
03FFFFE0
01FFFFC0
00FFFF80
003FFE00
000FF800
00000000
00000000
00000000
00000000
00000000
00000000
00000000
00000000
00000000
00000000
00000000
00000000
00000000
ENDCHAR

STARTCHAR CODE138
ENCODING 138
SWIDTH 451 0
DWIDTH 32 0
BBX 32 64 0 -6
BITMAP
00000000
00000000
007E0000
007E0000
003F0000
001F0000
001F0000
000F8000
000F8000
0007C000
0003C000
0003C000
00000000
00000000
00000000
000FF000
003FFC00
00FFFF00
01FFFF80
03FFFFC0
07F81FE0
07E007E0
0FC003F0
0FC001F0
1F8001F8
1F8000F8
1F0000FC
3F0000FC
3E00007C
3E00007C
3FFFFFFC
3FFFFFFC
3FFFFFFC
3FFFFFFC
3FFFFFFC
3E000000
3E000000
3E000000
3F000000
1F00007C
1F80007C
1F8000FC
0FC000FC
0FE001F8
07F007F8
07FC1FF0
03FFFFE0
01FFFFC0
00FFFF80
003FFE00
000FF800
00000000
00000000
00000000
00000000
00000000
00000000
00000000
00000000
00000000
00000000
00000000
00000000
00000000
ENDCHAR

STARTCHAR CODE139
ENCODING 139
SWIDTH 451 0
DWIDTH 32 0
BBX 32 64 0 -6
BITMAP
00000000
00000000
00000000
00000000
007C7C00
007C7C00
007C7C00
007C7C00
007C7C00
007C7C00
007C7C00
00000000
00000000
00000000
00000000
00000000
0007C000
0007C000
0007C000
0007C000
0007C000
0007C000
0007C000
0007C000
0007C000
0007C000
0007C000
0007C000
0007C000
0007C000
0007C000
0007C000
0007C000
0007C000
0007C000
0007C000
0007C000
0007C000
0007C000
0007C000
0007C000
0007C000
0007C000
0007C000
0007C000
0007C000
0007C000
0007C000
0007C000
0007C000
00000000
00000000
00000000
00000000
00000000
00000000
00000000
00000000
00000000
00000000
00000000
00000000
00000000
00000000
ENDCHAR

STARTCHAR CODE140
ENCODING 140
SWIDTH 451 0
DWIDTH 32 0
BBX 32 64 0 -6
BITMAP
00000000
00000000
0007E000
0007E000
000FF000
000FF000
001FF800
001FF800
003E7C00
003E7C00
007C3E00
007C3E00
00000000
00000000
00000000
00000000
0007C000
0007C000
0007C000
0007C000
0007C000
0007C000
0007C000
0007C000
0007C000
0007C000
0007C000
0007C000
0007C000
0007C000
0007C000
0007C000
0007C000
0007C000
0007C000
0007C000
0007C000
0007C000
0007C000
0007C000
0007C000
0007C000
0007C000
0007C000
0007C000
0007C000
0007C000
0007C000
0007C000
0007C000
00000000
00000000
00000000
00000000
00000000
00000000
00000000
00000000
00000000
00000000
00000000
00000000
00000000
00000000
ENDCHAR

STARTCHAR CODE141
ENCODING 141
SWIDTH 451 0
DWIDTH 32 0
BBX 32 64 0 -6
BITMAP
00000000
00000000
007E0000
007E0000
003F0000
001F0000
001F8000
000F8000
00078000
0007C000
0003C000
0003C000
00000000
00000000
00000000
00000000
0003E000
0003E000
0003E000
0003E000
0003E000
0003E000
0003E000
0003E000
0003E000
0003E000
0003E000
0003E000
0003E000
0003E000
0003E000
0003E000
0003E000
0003E000
0003E000
0003E000
0003E000
0003E000
0003E000
0003E000
0003E000
0003E000
0003E000
0003E000
0003E000
0003E000
0003E000
0003E000
0003E000
0003E000
00000000
00000000
00000000
00000000
00000000
00000000
00000000
00000000
00000000
00000000
00000000
00000000
00000000
00000000
ENDCHAR

STARTCHAR CODE142
ENCODING 142
SWIDTH 451 0
DWIDTH 32 0
BBX 32 64 0 -6
BITMAP
007C3E00
007C3E00
007C3E00
007C3E00
007C3E00
007C3E00
007C3E00
00000000
00000000
00000000
00000000
0007E000
0007E000
000FF000
000FF000
000FF000
001FF800
001FF800
001FF800
003FF800
003FFC00
003E7C00
007E7C00
007E7E00
007E7E00
007C3E00
00FC3F00
00FC3F00
00F81F00
01F81F80
01F81F80
01F00F80
03F00FC0
03F00FC0
03FFFFC0
07FFFFE0
07FFFFE0
07FFFFE0
0FFFFFF0
0FC003F0
0FC003F0
1F8001F8
1F8001F8
1F8001F8
3F0000FC
3F0000FC
3F0000FC
7E00007E
7E00007E
7E00007E
00000000
00000000
00000000
00000000
00000000
00000000
00000000
00000000
00000000
00000000
00000000
00000000
00000000
00000000
ENDCHAR

STARTCHAR CODE143
ENCODING 143
SWIDTH 451 0
DWIDTH 32 0
BBX 32 64 0 -6
BITMAP
001FF800
001FF800
003FFC00
003E7C00
003C3C00
003E7C00
003FFC00
001FF800
001FF800
0007E000
00000000
0007E000
0007E000
000FF000
000FF000
000FF000
001FF800
001FF800
001FF800
003FF800
003FFC00
003E7C00
007E7C00
007E7E00
007E7E00
007C3E00
00FC3F00
00FC3F00
00F81F00
01F81F80
01F81F80
01F00F80
03F00FC0
03F00FC0
03FFFFC0
07FFFFE0
07FFFFE0
07FFFFE0
0FFFFFF0
0FC003F0
0FC003F0
1F8001F8
1F8001F8
1F8001F8
3F0000FC
3F0000FC
3F0000FC
7E00007E
7E00007E
7E00007E
00000000
00000000
00000000
00000000
00000000
00000000
00000000
00000000
00000000
00000000
00000000
00000000
00000000
00000000
ENDCHAR

STARTCHAR CODE144
ENCODING 144
SWIDTH 451 0
DWIDTH 32 0
BBX 32 64 0 -6
BITMAP
0000FC00
0000F800
0001F800
0001F000
0003E000
0003E000
0003C000
0007C000
00078000
00000000
00000000
1FFFFFF8
1FFFFFF8
1FFFFFF8
1FFFFFF8
1FFFFFF8
1F000000
1F000000
1F000000
1F000000
1F000000
1F000000
1F000000
1F000000
1F000000
1F000000
1F000000
1FFFFFF0
1FFFFFF0
1FFFFFF0
1FFFFFF0
1FFFFFF0
1F000000
1F000000
1F000000
1F000000
1F000000
1F000000
1F000000
1F000000
1F000000
1F000000
1F000000
1F000000
1F000000
1FFFFFF8
1FFFFFF8
1FFFFFF8
1FFFFFF8
1FFFFFF8
00000000
00000000
00000000
00000000
00000000
00000000
00000000
00000000
00000000
00000000
00000000
00000000
00000000
00000000
ENDCHAR

STARTCHAR CODE145
ENCODING 145
SWIDTH 451 0
DWIDTH 32 0
BBX 32 64 0 -6
BITMAP
00000000
00000000
00000000
00000000
00000000
00000000
00000000
00000000
00000000
00000000
00000000
00000000
00000000
00000000
00000000
03F81FC0
0FFE7FF0
1FFFFFF8
1FFFFFF8
3FBFFDFC
3E1FF0FC
3C0FF07E
7C0FE03E
7C07E03E
7C07C01E
7C07C01F
7C07C01F
0007C01F
0007C01F
007FFFFF
03FFFFFF
0FFFFFFF
3FFFFFFF
3FFFFFFF
7F87C000
7E07C000
FC07C000
F807C000
F807C000
F807C01F
F807C01F
F80FE01F
F80FE01F
F81FF03F
7C1FF03E
7E7FF87E
3FFFFFFC
3FFCFFFC
1FF87FF8
0FF03FF0
03C00FC0
00000000
00000000
00000000
00000000
00000000
00000000
00000000
00000000
00000000
00000000
00000000
00000000
00000000
ENDCHAR

STARTCHAR CODE146
ENCODING 146
SWIDTH 451 0
DWIDTH 32 0
BBX 32 64 0 -6
BITMAP
00000000
00000000
00000000
003FFFFF
003FFFFF
003FFFFF
007FFFFF
007FFFFF
0079F000
0079F000
00F9F000
00F9F000
00F9F000
00F1F000
00F1F000
01F1F000
01F1F000
01F1F000
01E1F000
01E1F000
03E1F000
03E1F000
03E1F000
03C1FFFC
07C1FFFC
07C1FFFC
07C1FFFC
07C1FFFC
0781F000
0F81F000
0F81F000
0FFFF000
0FFFF000
1FFFF000
1FFFF000
1FFFF000
1E01F000
1E01F000
3E01F000
3E01F000
3E01F000
3C01F000
3C01F000
7C01F000
7C01F000
7C01FFFF
7801FFFF
F801FFFF
F801FFFF
F801FFFF
00000000
00000000
00000000
00000000
00000000
00000000
00000000
00000000
00000000
00000000
00000000
00000000
00000000
00000000
ENDCHAR

STARTCHAR CODE147
ENCODING 147
SWIDTH 451 0
DWIDTH 32 0
BBX 32 64 0 -6
BITMAP
00000000
00000000
0007E000
0007E000
000FF000
000FF000
001FF800
001FF800
003E7C00
003E7C00
007C3E00
007C3E00
00000000
00000000
00000000
001FF800
007FFE00
00FFFF00
01FFFF80
03FFFFC0
07F81FE0
07E007E0
07C003E0
0FC003F0
0F8001F0
0F8001F0
1F8001F8
1F0000F8
1F0000F8
1F0000F8
1F0000F8
1F0000F8
1F0000F8
1F0000F8
1F0000F8
1F0000F8
1F0000F8
1F0000F8
1F0000F8
1F8001F8
0F8001F0
0F8001F0
0FC003F0
07C003E0
07E007E0
07F81FE0
03FFFFC0
03FFFF80
01FFFF00
007FFC00
001FF000
00000000
00000000
00000000
00000000
00000000
00000000
00000000
00000000
00000000
00000000
00000000
00000000
00000000
ENDCHAR

STARTCHAR CODE148
ENCODING 148
SWIDTH 451 0
DWIDTH 32 0
BBX 32 64 0 -6
BITMAP
00000000
00000000
00000000
00000000
007C7C00
007C7C00
007C7C00
007C7C00
007C7C00
007C7C00
007C7C00
00000000
00000000
00000000
00000000
001FF800
007FFE00
00FFFF00
01FFFF80
03FFFFC0
07F81FE0
07E007E0
07C003F0
0FC003F0
0F8001F0
0F8001F0
1F8001F8
1F0000F8
1F0000F8
1F0000F8
1F0000F8
1F0000F8
1F0000F8
1F0000F8
1F0000F8
1F0000F8
1F0000F8
1F0000F8
1F0000F8
1F8001F8
0F8001F0
0F8001F0
0FC003F0
07C003F0
07E007E0
07F81FE0
03FFFFC0
03FFFF80
01FFFF00
007FFC00
001FF000
00000000
00000000
00000000
00000000
00000000
00000000
00000000
00000000
00000000
00000000
00000000
00000000
00000000
ENDCHAR

STARTCHAR CODE149
ENCODING 149
SWIDTH 451 0
DWIDTH 32 0
BBX 32 64 0 -6
BITMAP
00000000
00000000
007E0000
007E0000
003F0000
001F0000
001F0000
000F8000
000F8000
0007C000
0007C000
0003C000
00000000
00000000
00000000
001FF800
007FFE00
00FFFF00
01FFFF80
03FFFFC0
07F81FE0
07E007E0
07C003F0
0FC003F0
0F8001F0
0F8001F0
1F8001F8
1F0000F8
1F0000F8
1F0000F8
1F0000F8
1F0000F8
1F0000F8
1F0000F8
1F0000F8
1F0000F8
1F0000F8
1F0000F8
1F0000F8
1F8001F8
0F8001F0
0F8001F0
0FC003F0
07C003F0
07E007E0
07F81FE0
03FFFFC0
03FFFF80
01FFFF00
007FFC00
001FF000
00000000
00000000
00000000
00000000
00000000
00000000
00000000
00000000
00000000
00000000
00000000
00000000
00000000
ENDCHAR

STARTCHAR CODE150
ENCODING 150
SWIDTH 451 0
DWIDTH 32 0
BBX 32 64 0 -6
BITMAP
00000000
00000000
0007E000
0007E000
000FF000
000FF000
001FF800
001FF800
003E7C00
003E7C00
007C3E00
007C3E00
00000000
00000000
00000000
00000000
1F0000F8
1F0000F8
1F0000F8
1F0000F8
1F0000F8
1F0000F8
1F0000F8
1F0000F8
1F0000F8
1F0000F8
1F0000F8
1F0000F8
1F0000F8
1F0000F8
1F0000F8
1F0000F8
1F0000F8
1F0000F8
1F0000F8
1F0000F8
1F0000F8
1F0000F8
1F0000F8
1F0000F8
1F0000F8
1F0000F8
1F8001F8
1F8003F8
1FC007F8
0FF01FF8
0FFFFFF8
07FFFFF8
03FFFEF8
00FFFCF8
003FF0F8
00000000
00000000
00000000
00000000
00000000
00000000
00000000
00000000
00000000
00000000
00000000
00000000
00000000
ENDCHAR

STARTCHAR CODE151
ENCODING 151
SWIDTH 451 0
DWIDTH 32 0
BBX 32 64 0 -6
BITMAP
00000000
00000000
007E0000
007E0000
003F0000
001F0000
001F0000
000F8000
000F8000
0007C000
0003C000
0003C000
00000000
00000000
00000000
00000000
1F0000F8
1F0000F8
1F0000F8
1F0000F8
1F0000F8
1F0000F8
1F0000F8
1F0000F8
1F0000F8
1F0000F8
1F0000F8
1F0000F8
1F0000F8
1F0000F8
1F0000F8
1F0000F8
1F0000F8
1F0000F8
1F0000F8
1F0000F8
1F0000F8
1F0000F8
1F0000F8
1F0000F8
1F0000F8
1F0000F8
1F8001F8
1F8003F8
1FC007F8
0FF01FF8
0FFFFFF8
07FFFFF8
03FFFEF8
00FFFCF8
003FF0F8
00000000
00000000
00000000
00000000
00000000
00000000
00000000
00000000
00000000
00000000
00000000
00000000
00000000
ENDCHAR

STARTCHAR CODE152
ENCODING 152
SWIDTH 451 0
DWIDTH 32 0
BBX 32 64 0 -6
BITMAP
00000000
00000000
00000000
00000000
007C7C00
007C7C00
007C7C00
007C7C00
007C7C00
007C7C00
007C7C00
00000000
00000000
00000000
00000000
00000000
1F0000F8
1F0000F8
1F0000F8
0F8001F8
0F8001F0
0FC001F0
07C001F0
07C003E0
07E003E0
03E003E0
03E007C0
01F007C0
01F007C0
01F00F80
00F80F80
00F80F80
00FC0F80
007C1F00
007C1F00
007E1F00
003E3E00
003E3E00
001F3E00
001F7C00
001FFC00
000FFC00
000FF800
000FF800
0007F800
0007F000
0007F000
0003F000
0003E000
0003E000
0003E000
0003C000
0007C000
0007C000
000F8000
000F8000
001F8000
007F0000
07FF0000
07FE0000
07FC0000
07F00000
07C00000
00000000
ENDCHAR

STARTCHAR CODE153
ENCODING 153
SWIDTH 451 0
DWIDTH 32 0
BBX 32 64 0 -6
BITMAP
007C7C00
007C7C00
007C7C00
007C7C00
007C7C00
007C7C00
00000000
001FF800
007FFE00
01FFFF80
03FFFFC0
07FFFFE0
0FF81FF0
0FE007F0
1FC003F8
1F8001F8
3F8001FC
3F0000FC
3F0000FC
3E00007C
7E00007E
7E00007E
7E00007E
7C00003E
7C00003E
7C00003E
7C00003E
7C00003E
7C00003E
7C00003E
7C00003E
7C00003E
7C00003E
7C00003E
7C00003E
7E00007E
7E00007E
7E00007E
7E00007E
3F0000FC
3F0000FC
3F8001FC
1F8001F8
1FC003F8
0FE007F0
0FF81FF0
07FFFFE0
03FFFFC0
01FFFF80
007FFE00
001FF800
00000000
00000000
00000000
00000000
00000000
00000000
00000000
00000000
00000000
00000000
00000000
00000000
00000000
ENDCHAR

STARTCHAR CODE154
ENCODING 154
SWIDTH 451 0
DWIDTH 32 0
BBX 32 64 0 -6
BITMAP
007C7C00
007C7C00
007C7C00
007C7C00
007C7C00
007C7C00
00000000
3E00007C
3E00007C
3E00007C
3E00007C
3E00007C
3E00007C
3E00007C
3E00007C
3E00007C
3E00007C
3E00007C
3E00007C
3E00007C
3E00007C
3E00007C
3E00007C
3E00007C
3E00007C
3E00007C
3E00007C
3E00007C
3E00007C
3E00007C
3E00007C
3E00007C
3E00007C
3E00007C
3E00007C
3E00007C
3E00007C
3E00007C
3E00007C
3E00007C
3E00007C
3F0000FC
1F0000F8
1F8001F8
1FC003F8
0FF00FF0
0FFFFFF0
07FFFFE0
03FFFFC0
00FFFF00
001FF800
00000000
00000000
00000000
00000000
00000000
00000000
00000000
00000000
00000000
00000000
00000000
00000000
00000000
ENDCHAR

STARTCHAR CODE155
ENCODING 155
SWIDTH 451 0
DWIDTH 32 0
BBX 32 64 0 -6
BITMAP
00000000
00000000
00000000
00000000
00000000
00000000
00000000
00000000
00000000
00003C00
00003C00
00003C00
00003C00
00003C00
00007C00
000FFE00
003FFF80
00FFFFC0
01FFFFE0
03FE7FF0
03F8FBF0
07E0F1F8
07C0F1F8
0FC0F0FC
0F80F0FC
0F80F07C
1F00F07C
1F01F000
1F01E000
1F01E000
1F01E000
1F01E000
1F01E000
1F01E000
1F03E000
1F03C000
1F03C000
1F03C000
1F03C07C
1F03C07C
0F87C0FC
0F8780FC
07C781F8
07C781F8
07E783F0
03F787F0
03FF9FE0
01FFFFC0
00FFFF80
007FFE00
001FF800
000F0000
000F0000
000F0000
001F0000
001E0000
001E0000
001E0000
00000000
00000000
00000000
00000000
00000000
00000000
ENDCHAR

STARTCHAR CODE156
ENCODING 156
SWIDTH 451 0
DWIDTH 32 0
BBX 32 64 0 -6
BITMAP
00000000
00000000
00000000
001FF000
007FFC00
00FFFE00
01FFFF00
03FFFF80
03F83F80
07E00FC0
07C007C0
0FC007C0
0FC007E0
0F8003E0
0F8003E0
0F8003E0
0F8003E0
0F8003E0
0F800000
0F800000
0F800000
0F800000
07C00000
07C00000
07E00000
3FFFFE00
3FFFFE00
3FFFFE00
3FFFFE00
3FFFFE00
01F00000
01F00000
01F00000
01F00000
01F00000
01F00000
01F00000
03E00000
03E00000
03E00000
07C00000
07C00000
0FC00000
0FFE0000
1FFFC030
3FFFF8F8
3FFFFFFC
1FFFFFFE
1FC7FFFE
0F00FFF8
06001FC0
00000000
00000000
00000000
00000000
00000000
00000000
00000000
00000000
00000000
00000000
00000000
00000000
00000000
ENDCHAR

STARTCHAR CODE157
ENCODING 157
SWIDTH 451 0
DWIDTH 32 0
BBX 32 64 0 -6
BITMAP
00000000
00000000
00000000
7E00007E
7E00007E
3F0000FC
3F0000FC
1F8001F8
1F8001F8
0FC003F0
0FC003F0
07E007E0
07E007E0
03F00FC0
03F00FC0
01F81F80
01F81F80
00FC3F00
00FC3F00
007E7E00
007E7E00
003FFC00
003FFC00
0FFFFFF0
0FFFFFF0
0FFFFFF0
0FFFFFF0
0FFFFFF0
0003E000
0003E000
0003E000
0003E000
0003E000
0FFFFFF0
0FFFFFF0
0FFFFFF0
0FFFFFF0
0FFFFFF0
0003E000
0003E000
0003E000
0003E000
0003E000
0003E000
0003E000
0003E000
0003E000
0003E000
0003E000
0003E000
00000000
00000000
00000000
00000000
00000000
00000000
00000000
00000000
00000000
00000000
00000000
00000000
00000000
00000000
ENDCHAR

STARTCHAR CODE158
ENCODING 158
SWIDTH 451 0
DWIDTH 32 0
BBX 32 64 0 -6
BITMAP
00000000
00000000
00000000
FFC00000
FFF80000
FFFE0000
FFFF03E0
FFFF83E0
F87F83E0
F81FC3E0
F80FC3E0
F80FC3E0
F807E3E0
F807E3E0
F803E3E0
F803E3E0
F803FFFF
F803FFFF
F803FFFF
F803FFFF
F807FFFF
F807E3E0
F80FC3E0
F80FC3E0
F81FC3E0
F87F83E0
FFFF83E0
FFFF03E0
FFFE03E0
FFF803E0
FFE003E0
F80003E0
F80003E0
F80003E0
F80003E0
F80003E0
F80003E0
F80003E0
F80003E0
F80003E0
F80003E0
F80003E0
F80003E0
F80003E0
F80003F0
F80003FE
F80003FE
F80001FE
F80001FE
F800007E
00000000
00000000
00000000
00000000
00000000
00000000
00000000
00000000
00000000
00000000
00000000
00000000
00000000
00000000
ENDCHAR

STARTCHAR CODE159
ENCODING 159
SWIDTH 451 0
DWIDTH 32 0
BBX 32 64 0 -6
BITMAP
00000000
00000000
000007F0
00001FF0
00003FF0
00003FF0
00003FF0
00007E00
00007C00
00007C00
00007C00
00007C00
0000F800
0000F800
0000F800
0000F800
0000F800
0000F800
0001F800
0001F000
007FFFC0
007FFFC0
007FFFC0
007FFFC0
007FFFC0
0003E000
0003E000
0003E000
0003E000
0003E000
0003E000
0003C000
0007C000
0007C000
0007C000
0007C000
0007C000
0007C000
00078000
000F8000
000F8000
000F8000
000F8000
000F8000
000F8000
000F8000
001F0000
001F0000
001F0000
001F0000
001F0000
001F0000
003E0000
003E0000
003E0000
003E0000
007E0000
00FC0000
1FFC0000
1FFC0000
1FF80000
1FF00000
1FE00000
00000000
ENDCHAR

STARTCHAR CODE160
ENCODING 160
SWIDTH 451 0
DWIDTH 32 0
BBX 32 64 0 -6
BITMAP
00000000
00000000
00007E00
00007E00
0000FC00
0000F800
0001F800
0001F000
0001E000
0003E000
0003C000
0003C000
00000000
00000000
00000000
001FF800
007FFE00
01FFFF00
03FFFF80
07F83FC0
07E00FC0
0FC007E0
0FC007E0
0F8003E0
0F8003E0
0F8003E0
000003E0
000003E0
00000FE0
0001FFE0
003FFFE0
00FFFFE0
03FFFFE0
07FFC3E0
0FFC03E0
0FE003E0
1FC003E0
1F8003E0
1F8003E0
1F0003E0
1F0003E0
1F0007E0
1F0007E0
1F000FE0
1F801FE0
1FC07FFC
0FFFFFFC
0FFFFDFC
07FFF9FC
01FFE0FC
007F8000
00000000
00000000
00000000
00000000
00000000
00000000
00000000
00000000
00000000
00000000
00000000
00000000
00000000
ENDCHAR

STARTCHAR CODE161
ENCODING 161
SWIDTH 451 0
DWIDTH 32 0
BBX 32 64 0 -6
BITMAP
00000000
00000000
00007E00
00007E00
0000FC00
0000F800
0001F800
0001F000
0001E000
0003E000
0003C000
0003C000
00000000
00000000
00000000
00000000
0003E000
0003E000
0003E000
0003E000
0003E000
0003E000
0003E000
0003E000
0003E000
0003E000
0003E000
0003E000
0003E000
0003E000
0003E000
0003E000
0003E000
0003E000
0003E000
0003E000
0003E000
0003E000
0003E000
0003E000
0003E000
0003E000
0003E000
0003E000
0003E000
0003E000
0003E000
0003E000
0003E000
0003E000
00000000
00000000
00000000
00000000
00000000
00000000
00000000
00000000
00000000
00000000
00000000
00000000
00000000
00000000
ENDCHAR

STARTCHAR CODE162
ENCODING 162
SWIDTH 451 0
DWIDTH 32 0
BBX 32 64 0 -6
BITMAP
00000000
00000000
00007E00
00007E00
0000FC00
0000F800
0000F800
0001F000
0001E000
0003E000
0003C000
0003C000
00000000
00000000
00000000
001FF800
007FFE00
00FFFF00
01FFFF80
03FFFFC0
07F81FE0
07E007E0
07C003F0
0FC003F0
0F8001F0
0F8001F0
1F8001F8
1F0000F8
1F0000F8
1F0000F8
1F0000F8
1F0000F8
1F0000F8
1F0000F8
1F0000F8
1F0000F8
1F0000F8
1F0000F8
1F0000F8
1F8001F8
0F8001F0
0F8001F0
0FC003F0
07C003F0
07E007E0
07F81FE0
03FFFFC0
03FFFF80
01FFFF00
007FFC00
001FF000
00000000
00000000
00000000
00000000
00000000
00000000
00000000
00000000
00000000
00000000
00000000
00000000
00000000
ENDCHAR

STARTCHAR CODE163
ENCODING 163
SWIDTH 451 0
DWIDTH 32 0
BBX 32 64 0 -6
BITMAP
00000000
00000000
00007E00
00007E00
0000FC00
0000F800
0000F800
0001F000
0001F000
0003E000
0003C000
0003C000
00000000
00000000
00000000
00000000
1F0000F8
1F0000F8
1F0000F8
1F0000F8
1F0000F8
1F0000F8
1F0000F8
1F0000F8
1F0000F8
1F0000F8
1F0000F8
1F0000F8
1F0000F8
1F0000F8
1F0000F8
1F0000F8
1F0000F8
1F0000F8
1F0000F8
1F0000F8
1F0000F8
1F0000F8
1F0000F8
1F0000F8
1F0000F8
1F0000F8
1F8001F8
1F8001F8
1FC003F8
0FE00FF8
0FF83FF8
07FFFFF8
03FFFEF8
00FFFCF8
003FF0F8
00000000
00000000
00000000
00000000
00000000
00000000
00000000
00000000
00000000
00000000
00000000
00000000
00000000
ENDCHAR

STARTCHAR CODE164
ENCODING 164
SWIDTH 451 0
DWIDTH 32 0
BBX 32 64 0 -6
BITMAP
00000000
00000000
00000000
00000000
003F0E00
007FDE00
00FFFE00
01FFFC00
01F7FC00
01C1F800
00000000
00000000
00000000
00000000
00000000
1F07FC00
1F1FFF00
1F7FFFC0
1FFFFFE0
1FFFFFF0
1FF81FF0
1FE007F8
1FC003F8
1F8001F8
1F8001F8
1F0000F8
1F0000F8
1F0000F8
1F0000F8
1F0000F8
1F0000F8
1F0000F8
1F0000F8
1F0000F8
1F0000F8
1F0000F8
1F0000F8
1F0000F8
1F0000F8
1F0000F8
1F0000F8
1F0000F8
1F0000F8
1F0000F8
1F0000F8
1F0000F8
1F0000F8
1F0000F8
1F0000F8
1F0000F8
00000000
00000000
00000000
00000000
00000000
00000000
00000000
00000000
00000000
00000000
00000000
00000000
00000000
00000000
ENDCHAR

STARTCHAR CODE165
ENCODING 165
SWIDTH 451 0
DWIDTH 32 0
BBX 32 64 0 -6
BITMAP
003C0000
007F0700
00FFDF00
01FFFF00
01F7FE00
01C1FC00
0000F000
00000000
3E00007C
3F00007C
3F00007C
3F80007C
3F80007C
3FC0007C
3FE0007C
3FE0007C
3FF0007C
3FF0007C
3FF8007C
3FFC007C
3EFC007C
3E7E007C
3E7E007C
3E3F007C
3E3F807C
3E1F807C
3E0FC07C
3E0FE07C
3E07E07C
3E03F07C
3E03F07C
3E01F87C
3E01FC7C
3E00FC7C
3E00FE7C
3E007E7C
3E003F7C
3E003FFC
3E001FFC
3E001FFC
3E000FFC
3E0007FC
3E0007FC
3E0003FC
3E0001FC
3E0001FC
3E0000FC
3E0000FC
3E00007C
3E00007C
00000000
00000000
00000000
00000000
00000000
00000000
00000000
00000000
00000000
00000000
00000000
00000000
00000000
00000000
ENDCHAR

STARTCHAR CODE166
ENCODING 166
SWIDTH 451 0
DWIDTH 32 0
BBX 32 64 0 -6
BITMAP
00000000
00000000
001FFC00
007FFF00
00FFFF80
01FFFF80
01FC1FC0
03F007C0
03E007C0
03E007C0
0001FFC0
003FFFC0
00FFFFC0
03FFFFC0
03FF03C0
07F003C0
07C003C0
07C007C0
07E00FC0
07F83FC0
03FFFFF0
03FFFFF0
01FFFFF0
007FF1F0
00000000
00000000
00000000
007FFF00
007FFF00
007FFF00
007FFF00
00000000
00000000
00000000
00000000
00000000
00000000
00000000
00000000
00000000
00000000
00000000
00000000
00000000
00000000
00000000
00000000
00000000
00000000
00000000
00000000
00000000
00000000
00000000
00000000
00000000
00000000
00000000
00000000
00000000
00000000
00000000
00000000
00000000
ENDCHAR

STARTCHAR CODE167
ENCODING 167
SWIDTH 451 0
DWIDTH 32 0
BBX 32 64 0 -6
BITMAP
00000000
00000000
000FF000
003FFC00
007FFE00
00FFFF00
01FFFF80
03FC3FC0
03F00FC0
07E007E0
07E007E0
07C003E0
07C003E0
07C003E0
07C003E0
07E007E0
07E007E0
03F00FC0
03FC3FC0
01FFFF80
00FFFF00
007FFE00
003FFC00
000FF000
00000000
00000000
00000000
007FFE00
007FFE00
007FFE00
007FFE00
00000000
00000000
00000000
00000000
00000000
00000000
00000000
00000000
00000000
00000000
00000000
00000000
00000000
00000000
00000000
00000000
00000000
00000000
00000000
00000000
00000000
00000000
00000000
00000000
00000000
00000000
00000000
00000000
00000000
00000000
00000000
00000000
00000000
ENDCHAR

STARTCHAR CODE168
ENCODING 168
SWIDTH 451 0
DWIDTH 32 0
BBX 32 64 0 -6
BITMAP
00000000
00000000
00000000
00000000
00000000
00000000
00000000
00000000
00000000
00000000
00000000
00000000
00000000
0007C000
0007C000
0007C000
0007C000
0007C000
0007C000
0007C000
00000000
00000000
00000000
00000000
00000000
0007C000
0007C000
0007C000
0007C000
0007E000
0003E000
0003F000
0001F000
0001F800
0000FC00
0000FE00
00007F00
00003F80
00001FC0
00000FE0
000007F0
000003F0
000001F8
000000F8
1F0000FC
1F00007C
1F00007C
1F00007C
1F00007C
1F8000FC
1F8000FC
0FC001F8
0FE003F8
07F80FF0
07FFFFF0
03FFFFE0
01FFFFC0
007FFF00
001FFC00
00000000
00000000
00000000
00000000
00000000
ENDCHAR

STARTCHAR CODE169
ENCODING 169
SWIDTH 451 0
DWIDTH 32 0
BBX 32 64 0 -6
BITMAP
00000000
00000000
00000000
00000000
00000000
00000000
00000000
00000000
00000000
00000000
00000000
00000000
00000000
00000000
00000000
00000000
00000000
00000000
00000000
00000000
00000000
00000000
00000000
3FFFFFFC
3FFFFFFC
3FFFFFFC
3FFFFFFC
3FFFFFFC
3E000000
3E000000
3E000000
3E000000
3E000000
3E000000
3E000000
3E000000
3E000000
3E000000
3E000000
00000000
00000000
00000000
00000000
00000000
00000000
00000000
00000000
00000000
00000000
00000000
00000000
00000000
00000000
00000000
00000000
00000000
00000000
00000000
00000000
00000000
00000000
00000000
00000000
00000000
ENDCHAR

STARTCHAR CODE170
ENCODING 170
SWIDTH 451 0
DWIDTH 32 0
BBX 32 64 0 -6
BITMAP
00000000
00000000
00000000
00000000
00000000
00000000
00000000
00000000
00000000
00000000
00000000
00000000
00000000
00000000
00000000
00000000
00000000
00000000
00000000
00000000
00000000
00000000
00000000
3FFFFFFC
3FFFFFFC
3FFFFFFC
3FFFFFFC
3FFFFFFC
0000007C
0000007C
0000007C
0000007C
0000007C
0000007C
0000007C
0000007C
0000007C
0000007C
0000007C
00000000
00000000
00000000
00000000
00000000
00000000
00000000
00000000
00000000
00000000
00000000
00000000
00000000
00000000
00000000
00000000
00000000
00000000
00000000
00000000
00000000
00000000
00000000
00000000
00000000
ENDCHAR

STARTCHAR CODE171
ENCODING 171
SWIDTH 451 0
DWIDTH 32 0
BBX 32 64 0 -6
BITMAP
00000000
00000000
0000E000
0001E000
0003E000
000FE000
003FE000
003FE000
003FE000
003FE000
003FE000
0003E000
0003E000
0003E000
0003E000
0003E000
0003E000
0003E000
0003E000
0003E000
0003E000
0003E000
0003E000
0003E000
0003E000
0003E000
00000000
00000000
7FFFFFFE
7FFFFFFE
7FFFFFFE
7FFFFFFE
7FFFFFFE
00000000
00000000
00000000
001FF800
007FFE00
00FFFF00
01FFFF80
01FC3F80
03F00FC0
03F00FC0
03E007C0
03E00FC0
00000FC0
00001FC0
00007F80
0001FF00
0007FE00
000FFC00
003FF000
007FC000
00FF0000
01FE0000
03FFFFE0
03FFFFE0
03FFFFE0
03FFFFE0
03FFFFE0
00000000
00000000
00000000
00000000
ENDCHAR

STARTCHAR CODE172
ENCODING 172
SWIDTH 451 0
DWIDTH 32 0
BBX 32 64 0 -6
BITMAP
00000000
00000000
0000E000
0001E000
0003E000
000FE000
003FE000
003FE000
003FE000
003FE000
003FE000
0003E000
0003E000
0003E000
0003E000
0003E000
0003E000
0003E000
0003E000
0003E000
0003E000
0003E000
0003E000
0003E000
0003E000
0003E000
00000000
00000000
7FFFFFFE
7FFFFFFE
7FFFFFFE
7FFFFFFE
7FFFFFFE
00000000
00000000
00000000
00000000
0000F800
0001F800
0003F800
0007F800
000FF800
001FF800
003FF800
007FF800
00FEF800
01FCF800
03F8F800
07F0F800
0FE0F800
0FFFFFE0
0FFFFFE0
0FFFFFE0
0FFFFFE0
0FFFFFE0
0000F800
0000F800
0000F800
0000F800
0000F800
00000000
00000000
00000000
00000000
ENDCHAR

STARTCHAR CODE173
ENCODING 173
SWIDTH 451 0
DWIDTH 32 0
BBX 32 64 0 -6
BITMAP
00000000
00000000
00000000
00000000
00000000
00000000
00000000
00000000
00000000
00000000
00000000
00000000
00000000
0007E000
0007E000
0007E000
0007E000
0007E000
0007E000
0007E000
00000000
00000000
00000000
00000000
0003C000
0003C000
0003C000
0003C000
0003C000
0003C000
0003C000
0003C000
0003C000
0003C000
0007E000
0007E000
0007E000
0007E000
0007E000
0007E000
0007E000
0007E000
0007E000
0007E000
0007E000
0007E000
0007E000
0007E000
0007E000
0007E000
0007E000
0007E000
0007E000
0007E000
0007E000
0007E000
0007E000
0007E000
0007E000
0007E000
00000000
00000000
00000000
00000000
ENDCHAR

STARTCHAR CODE174
ENCODING 174
SWIDTH 451 0
DWIDTH 32 0
BBX 32 64 0 -6
BITMAP
00000000
00000000
00000000
00000000
00000000
00000000
00000000
00000000
00000000
00000000
00000000
00000000
00000000
00000000
00000000
00000000
00000000
00000000
00000000
00000000
00000000
00030060
000700E0
000F01E0
001F03E0
003F07E0
007F0FE0
00FE1FC0
01FC3F80
03F87F00
03F07E00
03E07C00
03E07C00
03F07E00
03F87F00
01FC3F80
00FE1FC0
007F0FE0
003F07E0
001F03E0
000F01E0
000700E0
00030060
00000000
00000000
00000000
00000000
00000000
00000000
00000000
00000000
00000000
00000000
00000000
00000000
00000000
00000000
00000000
00000000
00000000
00000000
00000000
00000000
00000000
ENDCHAR

STARTCHAR CODE175
ENCODING 175
SWIDTH 451 0
DWIDTH 32 0
BBX 32 64 0 -6
BITMAP
00000000
00000000
00000000
00000000
00000000
00000000
00000000
00000000
00000000
00000000
00000000
00000000
00000000
00000000
00000000
00000000
00000000
00000000
00000000
00000000
00000000
03006000
03807000
03C07800
03E07C00
03F07E00
03F87F00
01FC3F80
00FE1FC0
007F0FE0
003F07E0
001F03E0
001F03E0
003F07E0
007F0FE0
00FE1FC0
01FC3F80
03F87F00
03F07E00
03E07C00
03C07800
03807000
03006000
00000000
00000000
00000000
00000000
00000000
00000000
00000000
00000000
00000000
00000000
00000000
00000000
00000000
00000000
00000000
00000000
00000000
00000000
00000000
00000000
00000000
ENDCHAR

STARTCHAR CODE176
ENCODING 176
SWIDTH 451 0
DWIDTH 32 0
BBX 32 64 0 -6
BITMAP
66666666
66666666
00000000
00000000
66666666
66666666
00000000
00000000
66666666
66666666
00000000
00000000
66666666
66666666
00000000
00000000
66666666
66666666
00000000
00000000
66666666
66666666
00000000
00000000
66666666
66666666
00000000
00000000
66666666
66666666
00000000
00000000
66666666
66666666
00000000
00000000
66666666
66666666
00000000
00000000
66666666
66666666
00000000
00000000
66666666
66666666
00000000
00000000
66666666
66666666
00000000
00000000
66666666
66666666
00000000
00000000
66666666
66666666
00000000
00000000
66666666
66666666
00000000
00000000
ENDCHAR

STARTCHAR CODE177
ENCODING 177
SWIDTH 451 0
DWIDTH 32 0
BBX 32 64 0 -6
BITMAP
FFFFFFFF
FFFFFFFF
66666666
66666666
FFFFFFFF
FFFFFFFF
66666666
66666666
FFFFFFFF
FFFFFFFF
66666666
66666666
FFFFFFFF
FFFFFFFF
66666666
66666666
FFFFFFFF
FFFFFFFF
66666666
66666666
FFFFFFFF
FFFFFFFF
66666666
66666666
FFFFFFFF
FFFFFFFF
66666666
66666666
FFFFFFFF
FFFFFFFF
66666666
66666666
FFFFFFFF
FFFFFFFF
66666666
66666666
FFFFFFFF
FFFFFFFF
66666666
66666666
FFFFFFFF
FFFFFFFF
66666666
66666666
FFFFFFFF
FFFFFFFF
66666666
66666666
FFFFFFFF
FFFFFFFF
66666666
66666666
FFFFFFFF
FFFFFFFF
66666666
66666666
FFFFFFFF
FFFFFFFF
66666666
66666666
FFFFFFFF
FFFFFFFF
66666666
00000000
ENDCHAR

STARTCHAR CODE178
ENCODING 178
SWIDTH 451 0
DWIDTH 32 0
BBX 32 64 0 -6
BITMAP
00000000
1C1C1C1C
3E3E3E3E
3E3E3E3E
3E3E3E3E
1C1C1C1C
00000000
00000000
00000000
1C1C1C1C
3E3E3E3E
3E3E3E3E
3E3E3E3E
1C1C1C1C
00000000
00000000
00000000
1C1C1C1C
3E3E3E3E
3E3E3E3E
3E3E3E3E
1C1C1C1C
00000000
00000000
00000000
1C1C1C1C
3E3E3E3E
3E3E3E3E
3E3E3E3E
1C1C1C1C
00000000
00000000
00000000
1C1C1C1C
3E3E3E3E
3E3E3E3E
3E3E3E3E
1C1C1C1C
00000000
00000000
00000000
1C1C1C1C
3E3E3E3E
3E3E3E3E
3E3E3E3E
1C1C1C1C
00000000
00000000
00000000
1C1C1C1C
3E3E3E3E
3E3E3E3E
3E3E3E3E
1C1C1C1C
00000000
00000000
00000000
1C1C1C1C
3E3E3E3E
3E3E3E3E
3E3E3E3E
1C1C1C1C
00000000
00000000
ENDCHAR

STARTCHAR CODE179
ENCODING 179
SWIDTH 451 0
DWIDTH 32 0
BBX 32 64 0 -6
BITMAP
0001C000
0001C000
0001C000
0001C000
0001C000
0001C000
0001C000
0001C000
0001C000
0001C000
0001C000
0001C000
0001C000
0001C000
0001C000
0001C000
0001C000
0001C000
0001C000
0001C000
0001C000
0001C000
0001C000
0001C000
0001C000
0001C000
0001C000
0001C000
0001C000
0001C000
0001C000
0001C000
0001C000
0001C000
0001C000
0001C000
0001C000
0001C000
0001C000
0001C000
0001C000
0001C000
0001C000
0001C000
0001C000
0001C000
0001C000
0001C000
0001C000
0001C000
0001C000
0001C000
0001C000
0001C000
0001C000
0001C000
0001C000
0001C000
0001C000
0001C000
0001C000
0001C000
0001C000
0001C000
ENDCHAR

STARTCHAR CODE180
ENCODING 180
SWIDTH 451 0
DWIDTH 32 0
BBX 32 64 0 -6
BITMAP
0001C000
0001C000
0001C000
0001C000
0001C000
0001C000
0001C000
0001C000
0001C000
0001C000
0001C000
0001C000
0001C000
0001C000
0001C000
0001C000
0001C000
0001C000
0001C000
0001C000
0001C000
0001C000
0001C000
0001C000
0001C000
0001C000
0001C000
0001C000
0001C000
0001C000
FFFFC000
FFFFC000
FFFFC000
0001C000
0001C000
0001C000
0001C000
0001C000
0001C000
0001C000
0001C000
0001C000
0001C000
0001C000
0001C000
0001C000
0001C000
0001C000
0001C000
0001C000
0001C000
0001C000
0001C000
0001C000
0001C000
0001C000
0001C000
0001C000
0001C000
0001C000
0001C000
0001C000
0001C000
0001C000
ENDCHAR

STARTCHAR CODE181
ENCODING 181
SWIDTH 451 0
DWIDTH 32 0
BBX 32 64 0 -6
BITMAP
0001C000
0001C000
0001C000
0001C000
0001C000
0001C000
0001C000
0001C000
0001C000
0001C000
0001C000
0001C000
0001C000
0001C000
0001C000
0001C000
0001C000
0001C000
0001C000
0001C000
0001C000
0001C000
0001C000
0001C000
0001C000
0001C000
0001C000
FFFFC000
FFFFC000
FFFFC000
0001C000
0001C000
0001C000
FFFFC000
FFFFC000
FFFFC000
0001C000
0001C000
0001C000
0001C000
0001C000
0001C000
0001C000
0001C000
0001C000
0001C000
0001C000
0001C000
0001C000
0001C000
0001C000
0001C000
0001C000
0001C000
0001C000
0001C000
0001C000
0001C000
0001C000
0001C000
0001C000
0001C000
0001C000
0001C000
ENDCHAR

STARTCHAR CODE182
ENCODING 182
SWIDTH 451 0
DWIDTH 32 0
BBX 32 64 0 -6
BITMAP
000E3800
000E3800
000E3800
000E3800
000E3800
000E3800
000E3800
000E3800
000E3800
000E3800
000E3800
000E3800
000E3800
000E3800
000E3800
000E3800
000E3800
000E3800
000E3800
000E3800
000E3800
000E3800
000E3800
000E3800
000E3800
000E3800
000E3800
000E3800
000E3800
000E3800
FFFE3800
FFFE3800
FFFE3800
000E3800
000E3800
000E3800
000E3800
000E3800
000E3800
000E3800
000E3800
000E3800
000E3800
000E3800
000E3800
000E3800
000E3800
000E3800
000E3800
000E3800
000E3800
000E3800
000E3800
000E3800
000E3800
000E3800
000E3800
000E3800
000E3800
000E3800
000E3800
000E3800
000E3800
000E3800
ENDCHAR

STARTCHAR CODE183
ENCODING 183
SWIDTH 451 0
DWIDTH 32 0
BBX 32 64 0 -6
BITMAP
00000000
00000000
00000000
00000000
00000000
00000000
00000000
00000000
00000000
00000000
00000000
00000000
00000000
00000000
00000000
00000000
00000000
00000000
00000000
00000000
00000000
00000000
00000000
00000000
00000000
00000000
00000000
00000000
00000000
00000000
FFFFF800
FFFFF800
FFFFF800
000E3800
000E3800
000E3800
000E3800
000E3800
000E3800
000E3800
000E3800
000E3800
000E3800
000E3800
000E3800
000E3800
000E3800
000E3800
000E3800
000E3800
000E3800
000E3800
000E3800
000E3800
000E3800
000E3800
000E3800
000E3800
000E3800
000E3800
000E3800
000E3800
000E3800
000E3800
ENDCHAR

STARTCHAR CODE184
ENCODING 184
SWIDTH 451 0
DWIDTH 32 0
BBX 32 64 0 -6
BITMAP
00000000
00000000
00000000
00000000
00000000
00000000
00000000
00000000
00000000
00000000
00000000
00000000
00000000
00000000
00000000
00000000
00000000
00000000
00000000
00000000
00000000
00000000
00000000
00000000
00000000
00000000
00000000
FFFFC000
FFFFC000
FFFFC000
0001C000
0001C000
0001C000
FFFFC000
FFFFC000
FFFFC000
0001C000
0001C000
0001C000
0001C000
0001C000
0001C000
0001C000
0001C000
0001C000
0001C000
0001C000
0001C000
0001C000
0001C000
0001C000
0001C000
0001C000
0001C000
0001C000
0001C000
0001C000
0001C000
0001C000
0001C000
0001C000
0001C000
0001C000
0001C000
ENDCHAR

STARTCHAR CODE185
ENCODING 185
SWIDTH 451 0
DWIDTH 32 0
BBX 32 64 0 -6
BITMAP
000E3800
000E3800
000E3800
000E3800
000E3800
000E3800
000E3800
000E3800
000E3800
000E3800
000E3800
000E3800
000E3800
000E3800
000E3800
000E3800
000E3800
000E3800
000E3800
000E3800
000E3800
000E3800
000E3800
000E3800
000E3800
000E3800
000E3800
FFFE3800
FFFE3800
FFFE3800
00003800
00003800
00003800
FFFE3800
FFFE3800
FFFE3800
000E3800
000E3800
000E3800
000E3800
000E3800
000E3800
000E3800
000E3800
000E3800
000E3800
000E3800
000E3800
000E3800
000E3800
000E3800
000E3800
000E3800
000E3800
000E3800
000E3800
000E3800
000E3800
000E3800
000E3800
000E3800
000E3800
000E3800
000E3800
ENDCHAR

STARTCHAR CODE186
ENCODING 186
SWIDTH 451 0
DWIDTH 32 0
BBX 32 64 0 -6
BITMAP
000E3800
000E3800
000E3800
000E3800
000E3800
000E3800
000E3800
000E3800
000E3800
000E3800
000E3800
000E3800
000E3800
000E3800
000E3800
000E3800
000E3800
000E3800
000E3800
000E3800
000E3800
000E3800
000E3800
000E3800
000E3800
000E3800
000E3800
000E3800
000E3800
000E3800
000E3800
000E3800
000E3800
000E3800
000E3800
000E3800
000E3800
000E3800
000E3800
000E3800
000E3800
000E3800
000E3800
000E3800
000E3800
000E3800
000E3800
000E3800
000E3800
000E3800
000E3800
000E3800
000E3800
000E3800
000E3800
000E3800
000E3800
000E3800
000E3800
000E3800
000E3800
000E3800
000E3800
000E3800
ENDCHAR

STARTCHAR CODE187
ENCODING 187
SWIDTH 451 0
DWIDTH 32 0
BBX 32 64 0 -6
BITMAP
00000000
00000000
00000000
00000000
00000000
00000000
00000000
00000000
00000000
00000000
00000000
00000000
00000000
00000000
00000000
00000000
00000000
00000000
00000000
00000000
00000000
00000000
00000000
00000000
00000000
00000000
00000000
FFFFF800
FFFFF800
FFFFF800
00003800
00003800
00003800
FFFE3800
FFFE3800
FFFE3800
000E3800
000E3800
000E3800
000E3800
000E3800
000E3800
000E3800
000E3800
000E3800
000E3800
000E3800
000E3800
000E3800
000E3800
000E3800
000E3800
000E3800
000E3800
000E3800
000E3800
000E3800
000E3800
000E3800
000E3800
000E3800
000E3800
000E3800
000E3800
ENDCHAR

STARTCHAR CODE188
ENCODING 188
SWIDTH 451 0
DWIDTH 32 0
BBX 32 64 0 -6
BITMAP
000E3800
000E3800
000E3800
000E3800
000E3800
000E3800
000E3800
000E3800
000E3800
000E3800
000E3800
000E3800
000E3800
000E3800
000E3800
000E3800
000E3800
000E3800
000E3800
000E3800
000E3800
000E3800
000E3800
000E3800
000E3800
000E3800
000E3800
FFFE3800
FFFE3800
FFFE3800
00003800
00003800
00003800
FFFFF800
FFFFF800
FFFFF800
00000000
00000000
00000000
00000000
00000000
00000000
00000000
00000000
00000000
00000000
00000000
00000000
00000000
00000000
00000000
00000000
00000000
00000000
00000000
00000000
00000000
00000000
00000000
00000000
00000000
00000000
00000000
00000000
ENDCHAR

STARTCHAR CODE189
ENCODING 189
SWIDTH 451 0
DWIDTH 32 0
BBX 32 64 0 -6
BITMAP
000E3800
000E3800
000E3800
000E3800
000E3800
000E3800
000E3800
000E3800
000E3800
000E3800
000E3800
000E3800
000E3800
000E3800
000E3800
000E3800
000E3800
000E3800
000E3800
000E3800
000E3800
000E3800
000E3800
000E3800
000E3800
000E3800
000E3800
000E3800
000E3800
000E3800
FFFFF800
FFFFF800
FFFFF800
00000000
00000000
00000000
00000000
00000000
00000000
00000000
00000000
00000000
00000000
00000000
00000000
00000000
00000000
00000000
00000000
00000000
00000000
00000000
00000000
00000000
00000000
00000000
00000000
00000000
00000000
00000000
00000000
00000000
00000000
00000000
ENDCHAR

STARTCHAR CODE190
ENCODING 190
SWIDTH 451 0
DWIDTH 32 0
BBX 32 64 0 -6
BITMAP
0001C000
0001C000
0001C000
0001C000
0001C000
0001C000
0001C000
0001C000
0001C000
0001C000
0001C000
0001C000
0001C000
0001C000
0001C000
0001C000
0001C000
0001C000
0001C000
0001C000
0001C000
0001C000
0001C000
0001C000
0001C000
0001C000
0001C000
FFFFC000
FFFFC000
FFFFC000
0001C000
0001C000
0001C000
FFFFC000
FFFFC000
FFFFC000
00000000
00000000
00000000
00000000
00000000
00000000
00000000
00000000
00000000
00000000
00000000
00000000
00000000
00000000
00000000
00000000
00000000
00000000
00000000
00000000
00000000
00000000
00000000
00000000
00000000
00000000
00000000
00000000
ENDCHAR

STARTCHAR CODE191
ENCODING 191
SWIDTH 451 0
DWIDTH 32 0
BBX 32 64 0 -6
BITMAP
00000000
00000000
00000000
00000000
00000000
00000000
00000000
00000000
00000000
00000000
00000000
00000000
00000000
00000000
00000000
00000000
00000000
00000000
00000000
00000000
00000000
00000000
00000000
00000000
00000000
00000000
00000000
00000000
00000000
00000000
FFFFC000
FFFFC000
FFFFC000
0001C000
0001C000
0001C000
0001C000
0001C000
0001C000
0001C000
0001C000
0001C000
0001C000
0001C000
0001C000
0001C000
0001C000
0001C000
0001C000
0001C000
0001C000
0001C000
0001C000
0001C000
0001C000
0001C000
0001C000
0001C000
0001C000
0001C000
0001C000
0001C000
0001C000
0001C000
ENDCHAR

STARTCHAR CODE192
ENCODING 192
SWIDTH 451 0
DWIDTH 32 0
BBX 32 64 0 -6
BITMAP
0001C000
0001C000
0001C000
0001C000
0001C000
0001C000
0001C000
0001C000
0001C000
0001C000
0001C000
0001C000
0001C000
0001C000
0001C000
0001C000
0001C000
0001C000
0001C000
0001C000
0001C000
0001C000
0001C000
0001C000
0001C000
0001C000
0001C000
0001C000
0001C000
0001C000
0001FFFF
0001FFFF
0001FFFF
00000000
00000000
00000000
00000000
00000000
00000000
00000000
00000000
00000000
00000000
00000000
00000000
00000000
00000000
00000000
00000000
00000000
00000000
00000000
00000000
00000000
00000000
00000000
00000000
00000000
00000000
00000000
00000000
00000000
00000000
00000000
ENDCHAR

STARTCHAR CODE193
ENCODING 193
SWIDTH 451 0
DWIDTH 32 0
BBX 32 64 0 -6
BITMAP
0001C000
0001C000
0001C000
0001C000
0001C000
0001C000
0001C000
0001C000
0001C000
0001C000
0001C000
0001C000
0001C000
0001C000
0001C000
0001C000
0001C000
0001C000
0001C000
0001C000
0001C000
0001C000
0001C000
0001C000
0001C000
0001C000
0001C000
0001C000
0001C000
0001C000
FFFFFFFF
FFFFFFFF
FFFFFFFF
00000000
00000000
00000000
00000000
00000000
00000000
00000000
00000000
00000000
00000000
00000000
00000000
00000000
00000000
00000000
00000000
00000000
00000000
00000000
00000000
00000000
00000000
00000000
00000000
00000000
00000000
00000000
00000000
00000000
00000000
00000000
ENDCHAR

STARTCHAR CODE194
ENCODING 194
SWIDTH 451 0
DWIDTH 32 0
BBX 32 64 0 -6
BITMAP
00000000
00000000
00000000
00000000
00000000
00000000
00000000
00000000
00000000
00000000
00000000
00000000
00000000
00000000
00000000
00000000
00000000
00000000
00000000
00000000
00000000
00000000
00000000
00000000
00000000
00000000
00000000
00000000
00000000
00000000
FFFFFFFF
FFFFFFFF
FFFFFFFF
0001C000
0001C000
0001C000
0001C000
0001C000
0001C000
0001C000
0001C000
0001C000
0001C000
0001C000
0001C000
0001C000
0001C000
0001C000
0001C000
0001C000
0001C000
0001C000
0001C000
0001C000
0001C000
0001C000
0001C000
0001C000
0001C000
0001C000
0001C000
0001C000
0001C000
0001C000
ENDCHAR

STARTCHAR CODE195
ENCODING 195
SWIDTH 451 0
DWIDTH 32 0
BBX 32 64 0 -6
BITMAP
0001C000
0001C000
0001C000
0001C000
0001C000
0001C000
0001C000
0001C000
0001C000
0001C000
0001C000
0001C000
0001C000
0001C000
0001C000
0001C000
0001C000
0001C000
0001C000
0001C000
0001C000
0001C000
0001C000
0001C000
0001C000
0001C000
0001C000
0001C000
0001C000
0001C000
0001FFFF
0001FFFF
0001FFFF
0001C000
0001C000
0001C000
0001C000
0001C000
0001C000
0001C000
0001C000
0001C000
0001C000
0001C000
0001C000
0001C000
0001C000
0001C000
0001C000
0001C000
0001C000
0001C000
0001C000
0001C000
0001C000
0001C000
0001C000
0001C000
0001C000
0001C000
0001C000
0001C000
0001C000
0001C000
ENDCHAR

STARTCHAR CODE196
ENCODING 196
SWIDTH 451 0
DWIDTH 32 0
BBX 32 64 0 -6
BITMAP
00000000
00000000
00000000
00000000
00000000
00000000
00000000
00000000
00000000
00000000
00000000
00000000
00000000
00000000
00000000
00000000
00000000
00000000
00000000
00000000
00000000
00000000
00000000
00000000
00000000
00000000
00000000
00000000
00000000
00000000
FFFFFFFF
FFFFFFFF
FFFFFFFF
00000000
00000000
00000000
00000000
00000000
00000000
00000000
00000000
00000000
00000000
00000000
00000000
00000000
00000000
00000000
00000000
00000000
00000000
00000000
00000000
00000000
00000000
00000000
00000000
00000000
00000000
00000000
00000000
00000000
00000000
00000000
ENDCHAR

STARTCHAR CODE197
ENCODING 197
SWIDTH 451 0
DWIDTH 32 0
BBX 32 64 0 -6
BITMAP
0001C000
0001C000
0001C000
0001C000
0001C000
0001C000
0001C000
0001C000
0001C000
0001C000
0001C000
0001C000
0001C000
0001C000
0001C000
0001C000
0001C000
0001C000
0001C000
0001C000
0001C000
0001C000
0001C000
0001C000
0001C000
0001C000
0001C000
0001C000
0001C000
0001C000
FFFFFFFF
FFFFFFFF
FFFFFFFF
0001C000
0001C000
0001C000
0001C000
0001C000
0001C000
0001C000
0001C000
0001C000
0001C000
0001C000
0001C000
0001C000
0001C000
0001C000
0001C000
0001C000
0001C000
0001C000
0001C000
0001C000
0001C000
0001C000
0001C000
0001C000
0001C000
0001C000
0001C000
0001C000
0001C000
0001C000
ENDCHAR

STARTCHAR CODE198
ENCODING 198
SWIDTH 451 0
DWIDTH 32 0
BBX 32 64 0 -6
BITMAP
0001C000
0001C000
0001C000
0001C000
0001C000
0001C000
0001C000
0001C000
0001C000
0001C000
0001C000
0001C000
0001C000
0001C000
0001C000
0001C000
0001C000
0001C000
0001C000
0001C000
0001C000
0001C000
0001C000
0001C000
0001C000
0001C000
0001C000
0001FFFF
0001FFFF
0001FFFF
0001C000
0001C000
0001C000
0001FFFF
0001FFFF
0001FFFF
0001C000
0001C000
0001C000
0001C000
0001C000
0001C000
0001C000
0001C000
0001C000
0001C000
0001C000
0001C000
0001C000
0001C000
0001C000
0001C000
0001C000
0001C000
0001C000
0001C000
0001C000
0001C000
0001C000
0001C000
0001C000
0001C000
0001C000
0001C000
ENDCHAR

STARTCHAR CODE199
ENCODING 199
SWIDTH 451 0
DWIDTH 32 0
BBX 32 64 0 -6
BITMAP
000E3800
000E3800
000E3800
000E3800
000E3800
000E3800
000E3800
000E3800
000E3800
000E3800
000E3800
000E3800
000E3800
000E3800
000E3800
000E3800
000E3800
000E3800
000E3800
000E3800
000E3800
000E3800
000E3800
000E3800
000E3800
000E3800
000E3800
000E3800
000E3800
000E3800
000E3FFF
000E3FFF
000E3FFF
000E3800
000E3800
000E3800
000E3800
000E3800
000E3800
000E3800
000E3800
000E3800
000E3800
000E3800
000E3800
000E3800
000E3800
000E3800
000E3800
000E3800
000E3800
000E3800
000E3800
000E3800
000E3800
000E3800
000E3800
000E3800
000E3800
000E3800
000E3800
000E3800
000E3800
000E3800
ENDCHAR

STARTCHAR CODE200
ENCODING 200
SWIDTH 451 0
DWIDTH 32 0
BBX 32 64 0 -6
BITMAP
000E3800
000E3800
000E3800
000E3800
000E3800
000E3800
000E3800
000E3800
000E3800
000E3800
000E3800
000E3800
000E3800
000E3800
000E3800
000E3800
000E3800
000E3800
000E3800
000E3800
000E3800
000E3800
000E3800
000E3800
000E3800
000E3800
000E3800
000E3FFF
000E3FFF
000E3FFF
000E0000
000E0000
000E0000
000FFFFF
000FFFFF
000FFFFF
00000000
00000000
00000000
00000000
00000000
00000000
00000000
00000000
00000000
00000000
00000000
00000000
00000000
00000000
00000000
00000000
00000000
00000000
00000000
00000000
00000000
00000000
00000000
00000000
00000000
00000000
00000000
00000000
ENDCHAR

STARTCHAR CODE201
ENCODING 201
SWIDTH 451 0
DWIDTH 32 0
BBX 32 64 0 -6
BITMAP
00000000
00000000
00000000
00000000
00000000
00000000
00000000
00000000
00000000
00000000
00000000
00000000
00000000
00000000
00000000
00000000
00000000
00000000
00000000
00000000
00000000
00000000
00000000
00000000
00000000
00000000
00000000
000FFFFF
000FFFFF
000FFFFF
000E0000
000E0000
000E0000
000E3FFF
000E3FFF
000E3FFF
000E3800
000E3800
000E3800
000E3800
000E3800
000E3800
000E3800
000E3800
000E3800
000E3800
000E3800
000E3800
000E3800
000E3800
000E3800
000E3800
000E3800
000E3800
000E3800
000E3800
000E3800
000E3800
000E3800
000E3800
000E3800
000E3800
000E3800
000E3800
ENDCHAR

STARTCHAR CODE202
ENCODING 202
SWIDTH 451 0
DWIDTH 32 0
BBX 32 64 0 -6
BITMAP
000E3800
000E3800
000E3800
000E3800
000E3800
000E3800
000E3800
000E3800
000E3800
000E3800
000E3800
000E3800
000E3800
000E3800
000E3800
000E3800
000E3800
000E3800
000E3800
000E3800
000E3800
000E3800
000E3800
000E3800
000E3800
000E3800
000E3800
FFFE3FFF
FFFE3FFF
FFFE3FFF
00000000
00000000
00000000
FFFFFFFF
FFFFFFFF
FFFFFFFF
00000000
00000000
00000000
00000000
00000000
00000000
00000000
00000000
00000000
00000000
00000000
00000000
00000000
00000000
00000000
00000000
00000000
00000000
00000000
00000000
00000000
00000000
00000000
00000000
00000000
00000000
00000000
00000000
ENDCHAR

STARTCHAR CODE203
ENCODING 203
SWIDTH 451 0
DWIDTH 32 0
BBX 32 64 0 -6
BITMAP
00000000
00000000
00000000
00000000
00000000
00000000
00000000
00000000
00000000
00000000
00000000
00000000
00000000
00000000
00000000
00000000
00000000
00000000
00000000
00000000
00000000
00000000
00000000
00000000
00000000
00000000
00000000
FFFFFFFF
FFFFFFFF
FFFFFFFF
00000000
00000000
00000000
FFFE3FFF
FFFE3FFF
FFFE3FFF
000E3800
000E3800
000E3800
000E3800
000E3800
000E3800
000E3800
000E3800
000E3800
000E3800
000E3800
000E3800
000E3800
000E3800
000E3800
000E3800
000E3800
000E3800
000E3800
000E3800
000E3800
000E3800
000E3800
000E3800
000E3800
000E3800
000E3800
000E3800
ENDCHAR

STARTCHAR CODE204
ENCODING 204
SWIDTH 451 0
DWIDTH 32 0
BBX 32 64 0 -6
BITMAP
000E3800
000E3800
000E3800
000E3800
000E3800
000E3800
000E3800
000E3800
000E3800
000E3800
000E3800
000E3800
000E3800
000E3800
000E3800
000E3800
000E3800
000E3800
000E3800
000E3800
000E3800
000E3800
000E3800
000E3800
000E3800
000E3800
000E3800
000E3FFF
000E3FFF
000E3FFF
000E0000
000E0000
000E0000
000E3FFF
000E3FFF
000E3FFF
000E3800
000E3800
000E3800
000E3800
000E3800
000E3800
000E3800
000E3800
000E3800
000E3800
000E3800
000E3800
000E3800
000E3800
000E3800
000E3800
000E3800
000E3800
000E3800
000E3800
000E3800
000E3800
000E3800
000E3800
000E3800
000E3800
000E3800
000E3800
ENDCHAR

STARTCHAR CODE205
ENCODING 205
SWIDTH 451 0
DWIDTH 32 0
BBX 32 64 0 -6
BITMAP
00000000
00000000
00000000
00000000
00000000
00000000
00000000
00000000
00000000
00000000
00000000
00000000
00000000
00000000
00000000
00000000
00000000
00000000
00000000
00000000
00000000
00000000
00000000
00000000
00000000
00000000
00000000
FFFFFFFF
FFFFFFFF
FFFFFFFF
00000000
00000000
00000000
FFFFFFFF
FFFFFFFF
FFFFFFFF
00000000
00000000
00000000
00000000
00000000
00000000
00000000
00000000
00000000
00000000
00000000
00000000
00000000
00000000
00000000
00000000
00000000
00000000
00000000
00000000
00000000
00000000
00000000
00000000
00000000
00000000
00000000
00000000
ENDCHAR

STARTCHAR CODE206
ENCODING 206
SWIDTH 451 0
DWIDTH 32 0
BBX 32 64 0 -6
BITMAP
000E3800
000E3800
000E3800
000E3800
000E3800
000E3800
000E3800
000E3800
000E3800
000E3800
000E3800
000E3800
000E3800
000E3800
000E3800
000E3800
000E3800
000E3800
000E3800
000E3800
000E3800
000E3800
000E3800
000E3800
000E3800
000E3800
000E3800
FFFE3FFF
FFFE3FFF
FFFE3FFF
00000000
00000000
00000000
FFFE3FFF
FFFE3FFF
FFFE3FFF
000E3800
000E3800
000E3800
000E3800
000E3800
000E3800
000E3800
000E3800
000E3800
000E3800
000E3800
000E3800
000E3800
000E3800
000E3800
000E3800
000E3800
000E3800
000E3800
000E3800
000E3800
000E3800
000E3800
000E3800
000E3800
000E3800
000E3800
000E3800
ENDCHAR

STARTCHAR CODE207
ENCODING 207
SWIDTH 451 0
DWIDTH 32 0
BBX 32 64 0 -6
BITMAP
0001C000
0001C000
0001C000
0001C000
0001C000
0001C000
0001C000
0001C000
0001C000
0001C000
0001C000
0001C000
0001C000
0001C000
0001C000
0001C000
0001C000
0001C000
0001C000
0001C000
0001C000
0001C000
0001C000
0001C000
0001C000
0001C000
0001C000
FFFFFFFF
FFFFFFFF
FFFFFFFF
00000000
00000000
00000000
FFFFFFFF
FFFFFFFF
FFFFFFFF
00000000
00000000
00000000
00000000
00000000
00000000
00000000
00000000
00000000
00000000
00000000
00000000
00000000
00000000
00000000
00000000
00000000
00000000
00000000
00000000
00000000
00000000
00000000
00000000
00000000
00000000
00000000
00000000
ENDCHAR

STARTCHAR CODE208
ENCODING 208
SWIDTH 451 0
DWIDTH 32 0
BBX 32 64 0 -6
BITMAP
000E3800
000E3800
000E3800
000E3800
000E3800
000E3800
000E3800
000E3800
000E3800
000E3800
000E3800
000E3800
000E3800
000E3800
000E3800
000E3800
000E3800
000E3800
000E3800
000E3800
000E3800
000E3800
000E3800
000E3800
000E3800
000E3800
000E3800
000E3800
000E3800
000E3800
FFFFFFFF
FFFFFFFF
FFFFFFFF
00000000
00000000
00000000
00000000
00000000
00000000
00000000
00000000
00000000
00000000
00000000
00000000
00000000
00000000
00000000
00000000
00000000
00000000
00000000
00000000
00000000
00000000
00000000
00000000
00000000
00000000
00000000
00000000
00000000
00000000
00000000
ENDCHAR

STARTCHAR CODE209
ENCODING 209
SWIDTH 451 0
DWIDTH 32 0
BBX 32 64 0 -6
BITMAP
00000000
00000000
00000000
00000000
00000000
00000000
00000000
00000000
00000000
00000000
00000000
00000000
00000000
00000000
00000000
00000000
00000000
00000000
00000000
00000000
00000000
00000000
00000000
00000000
00000000
00000000
00000000
FFFFFFFF
FFFFFFFF
FFFFFFFF
00000000
00000000
00000000
FFFFFFFF
FFFFFFFF
FFFFFFFF
0001C000
0001C000
0001C000
0001C000
0001C000
0001C000
0001C000
0001C000
0001C000
0001C000
0001C000
0001C000
0001C000
0001C000
0001C000
0001C000
0001C000
0001C000
0001C000
0001C000
0001C000
0001C000
0001C000
0001C000
0001C000
0001C000
0001C000
0001C000
ENDCHAR

STARTCHAR CODE210
ENCODING 210
SWIDTH 451 0
DWIDTH 32 0
BBX 32 64 0 -6
BITMAP
00000000
00000000
00000000
00000000
00000000
00000000
00000000
00000000
00000000
00000000
00000000
00000000
00000000
00000000
00000000
00000000
00000000
00000000
00000000
00000000
00000000
00000000
00000000
00000000
00000000
00000000
00000000
00000000
00000000
00000000
FFFFFFFF
FFFFFFFF
FFFFFFFF
000E3800
000E3800
000E3800
000E3800
000E3800
000E3800
000E3800
000E3800
000E3800
000E3800
000E3800
000E3800
000E3800
000E3800
000E3800
000E3800
000E3800
000E3800
000E3800
000E3800
000E3800
000E3800
000E3800
000E3800
000E3800
000E3800
000E3800
000E3800
000E3800
000E3800
000E3800
ENDCHAR

STARTCHAR CODE211
ENCODING 211
SWIDTH 451 0
DWIDTH 32 0
BBX 32 64 0 -6
BITMAP
000E3800
000E3800
000E3800
000E3800
000E3800
000E3800
000E3800
000E3800
000E3800
000E3800
000E3800
000E3800
000E3800
000E3800
000E3800
000E3800
000E3800
000E3800
000E3800
000E3800
000E3800
000E3800
000E3800
000E3800
000E3800
000E3800
000E3800
000E3800
000E3800
000E3800
000FFFFF
000FFFFF
000FFFFF
00000000
00000000
00000000
00000000
00000000
00000000
00000000
00000000
00000000
00000000
00000000
00000000
00000000
00000000
00000000
00000000
00000000
00000000
00000000
00000000
00000000
00000000
00000000
00000000
00000000
00000000
00000000
00000000
00000000
00000000
00000000
ENDCHAR

STARTCHAR CODE212
ENCODING 212
SWIDTH 451 0
DWIDTH 32 0
BBX 32 64 0 -6
BITMAP
0001C000
0001C000
0001C000
0001C000
0001C000
0001C000
0001C000
0001C000
0001C000
0001C000
0001C000
0001C000
0001C000
0001C000
0001C000
0001C000
0001C000
0001C000
0001C000
0001C000
0001C000
0001C000
0001C000
0001C000
0001C000
0001C000
0001C000
0001FFFF
0001FFFF
0001FFFF
0001C000
0001C000
0001C000
0001FFFF
0001FFFF
0001FFFF
00000000
00000000
00000000
00000000
00000000
00000000
00000000
00000000
00000000
00000000
00000000
00000000
00000000
00000000
00000000
00000000
00000000
00000000
00000000
00000000
00000000
00000000
00000000
00000000
00000000
00000000
00000000
00000000
ENDCHAR

STARTCHAR CODE213
ENCODING 213
SWIDTH 451 0
DWIDTH 32 0
BBX 32 64 0 -6
BITMAP
00000000
00000000
00000000
00000000
00000000
00000000
00000000
00000000
00000000
00000000
00000000
00000000
00000000
00000000
00000000
00000000
00000000
00000000
00000000
00000000
00000000
00000000
00000000
00000000
00000000
00000000
00000000
0001FFFF
0001FFFF
0001FFFF
0001C000
0001C000
0001C000
0001FFFF
0001FFFF
0001FFFF
0001C000
0001C000
0001C000
0001C000
0001C000
0001C000
0001C000
0001C000
0001C000
0001C000
0001C000
0001C000
0001C000
0001C000
0001C000
0001C000
0001C000
0001C000
0001C000
0001C000
0001C000
0001C000
0001C000
0001C000
0001C000
0001C000
0001C000
0001C000
ENDCHAR

STARTCHAR CODE214
ENCODING 214
SWIDTH 451 0
DWIDTH 32 0
BBX 32 64 0 -6
BITMAP
00000000
00000000
00000000
00000000
00000000
00000000
00000000
00000000
00000000
00000000
00000000
00000000
00000000
00000000
00000000
00000000
00000000
00000000
00000000
00000000
00000000
00000000
00000000
00000000
00000000
00000000
00000000
00000000
00000000
00000000
000FFFFF
000FFFFF
000FFFFF
000E3800
000E3800
000E3800
000E3800
000E3800
000E3800
000E3800
000E3800
000E3800
000E3800
000E3800
000E3800
000E3800
000E3800
000E3800
000E3800
000E3800
000E3800
000E3800
000E3800
000E3800
000E3800
000E3800
000E3800
000E3800
000E3800
000E3800
000E3800
000E3800
000E3800
000E3800
ENDCHAR

STARTCHAR CODE215
ENCODING 215
SWIDTH 451 0
DWIDTH 32 0
BBX 32 64 0 -6
BITMAP
000E3800
000E3800
000E3800
000E3800
000E3800
000E3800
000E3800
000E3800
000E3800
000E3800
000E3800
000E3800
000E3800
000E3800
000E3800
000E3800
000E3800
000E3800
000E3800
000E3800
000E3800
000E3800
000E3800
000E3800
000E3800
000E3800
000E3800
000E3800
000E3800
000E3800
FFFFFFFF
FFFFFFFF
FFFFFFFF
000E3800
000E3800
000E3800
000E3800
000E3800
000E3800
000E3800
000E3800
000E3800
000E3800
000E3800
000E3800
000E3800
000E3800
000E3800
000E3800
000E3800
000E3800
000E3800
000E3800
000E3800
000E3800
000E3800
000E3800
000E3800
000E3800
000E3800
000E3800
000E3800
000E3800
000E3800
ENDCHAR

STARTCHAR CODE216
ENCODING 216
SWIDTH 451 0
DWIDTH 32 0
BBX 32 64 0 -6
BITMAP
0001C000
0001C000
0001C000
0001C000
0001C000
0001C000
0001C000
0001C000
0001C000
0001C000
0001C000
0001C000
0001C000
0001C000
0001C000
0001C000
0001C000
0001C000
0001C000
0001C000
0001C000
0001C000
0001C000
0001C000
0001C000
0001C000
0001C000
FFFFFFFF
FFFFFFFF
FFFFFFFF
0001C000
0001C000
0001C000
FFFFFFFF
FFFFFFFF
FFFFFFFF
0001C000
0001C000
0001C000
0001C000
0001C000
0001C000
0001C000
0001C000
0001C000
0001C000
0001C000
0001C000
0001C000
0001C000
0001C000
0001C000
0001C000
0001C000
0001C000
0001C000
0001C000
0001C000
0001C000
0001C000
0001C000
0001C000
0001C000
0001C000
ENDCHAR

STARTCHAR CODE217
ENCODING 217
SWIDTH 451 0
DWIDTH 32 0
BBX 32 64 0 -6
BITMAP
0001C000
0001C000
0001C000
0001C000
0001C000
0001C000
0001C000
0001C000
0001C000
0001C000
0001C000
0001C000
0001C000
0001C000
0001C000
0001C000
0001C000
0001C000
0001C000
0001C000
0001C000
0001C000
0001C000
0001C000
0001C000
0001C000
0001C000
0001C000
0001C000
0001C000
FFFFC000
FFFFC000
FFFFC000
00000000
00000000
00000000
00000000
00000000
00000000
00000000
00000000
00000000
00000000
00000000
00000000
00000000
00000000
00000000
00000000
00000000
00000000
00000000
00000000
00000000
00000000
00000000
00000000
00000000
00000000
00000000
00000000
00000000
00000000
00000000
ENDCHAR

STARTCHAR CODE218
ENCODING 218
SWIDTH 451 0
DWIDTH 32 0
BBX 32 64 0 -6
BITMAP
00000000
00000000
00000000
00000000
00000000
00000000
00000000
00000000
00000000
00000000
00000000
00000000
00000000
00000000
00000000
00000000
00000000
00000000
00000000
00000000
00000000
00000000
00000000
00000000
00000000
00000000
00000000
00000000
00000000
00000000
0001FFFF
0001FFFF
0001FFFF
0001C000
0001C000
0001C000
0001C000
0001C000
0001C000
0001C000
0001C000
0001C000
0001C000
0001C000
0001C000
0001C000
0001C000
0001C000
0001C000
0001C000
0001C000
0001C000
0001C000
0001C000
0001C000
0001C000
0001C000
0001C000
0001C000
0001C000
0001C000
0001C000
0001C000
0001C000
ENDCHAR

STARTCHAR CODE219
ENCODING 219
SWIDTH 451 0
DWIDTH 32 0
BBX 32 64 0 -6
BITMAP
FFFFFFFF
FFFFFFFF
FFFFFFFF
FFFFFFFF
FFFFFFFF
FFFFFFFF
FFFFFFFF
FFFFFFFF
FFFFFFFF
FFFFFFFF
FFFFFFFF
FFFFFFFF
FFFFFFFF
FFFFFFFF
FFFFFFFF
FFFFFFFF
FFFFFFFF
FFFFFFFF
FFFFFFFF
FFFFFFFF
FFFFFFFF
FFFFFFFF
FFFFFFFF
FFFFFFFF
FFFFFFFF
FFFFFFFF
FFFFFFFF
FFFFFFFF
FFFFFFFF
FFFFFFFF
FFFFFFFF
FFFFFFFF
FFFFFFFF
FFFFFFFF
FFFFFFFF
FFFFFFFF
FFFFFFFF
FFFFFFFF
FFFFFFFF
FFFFFFFF
FFFFFFFF
FFFFFFFF
FFFFFFFF
FFFFFFFF
FFFFFFFF
FFFFFFFF
FFFFFFFF
FFFFFFFF
FFFFFFFF
FFFFFFFF
FFFFFFFF
FFFFFFFF
FFFFFFFF
FFFFFFFF
FFFFFFFF
FFFFFFFF
FFFFFFFF
FFFFFFFF
FFFFFFFF
FFFFFFFF
FFFFFFFF
FFFFFFFF
FFFFFFFF
FFFFFFFF
ENDCHAR

STARTCHAR CODE220
ENCODING 220
SWIDTH 451 0
DWIDTH 32 0
BBX 32 64 0 -6
BITMAP
00000000
00000000
00000000
00000000
00000000
00000000
00000000
00000000
00000000
00000000
00000000
00000000
00000000
00000000
00000000
00000000
00000000
00000000
00000000
00000000
00000000
00000000
00000000
00000000
00000000
00000000
00000000
00000000
00000000
00000000
00000000
FFFFFFFF
FFFFFFFF
FFFFFFFF
FFFFFFFF
FFFFFFFF
FFFFFFFF
FFFFFFFF
FFFFFFFF
FFFFFFFF
FFFFFFFF
FFFFFFFF
FFFFFFFF
FFFFFFFF
FFFFFFFF
FFFFFFFF
FFFFFFFF
FFFFFFFF
FFFFFFFF
FFFFFFFF
FFFFFFFF
FFFFFFFF
FFFFFFFF
FFFFFFFF
FFFFFFFF
FFFFFFFF
FFFFFFFF
FFFFFFFF
FFFFFFFF
FFFFFFFF
FFFFFFFF
FFFFFFFF
FFFFFFFF
FFFFFFFF
ENDCHAR

STARTCHAR CODE221
ENCODING 221
SWIDTH 451 0
DWIDTH 32 0
BBX 32 64 0 -6
BITMAP
FFFF8000
FFFF8000
FFFF8000
FFFF8000
FFFF8000
FFFF8000
FFFF8000
FFFF8000
FFFF8000
FFFF8000
FFFF8000
FFFF8000
FFFF8000
FFFF8000
FFFF8000
FFFF8000
FFFF8000
FFFF8000
FFFF8000
FFFF8000
FFFF8000
FFFF8000
FFFF8000
FFFF8000
FFFF8000
FFFF8000
FFFF8000
FFFF8000
FFFF8000
FFFF8000
FFFF8000
FFFF8000
FFFF8000
FFFF8000
FFFF8000
FFFF8000
FFFF8000
FFFF8000
FFFF8000
FFFF8000
FFFF8000
FFFF8000
FFFF8000
FFFF8000
FFFF8000
FFFF8000
FFFF8000
FFFF8000
FFFF8000
FFFF8000
FFFF8000
FFFF8000
FFFF8000
FFFF8000
FFFF8000
FFFF8000
FFFF8000
FFFF8000
FFFF8000
FFFF8000
FFFF8000
FFFF8000
FFFF8000
FFFF8000
ENDCHAR

STARTCHAR CODE222
ENCODING 222
SWIDTH 451 0
DWIDTH 32 0
BBX 32 64 0 -6
BITMAP
0000FFFF
0000FFFF
0000FFFF
0000FFFF
0000FFFF
0000FFFF
0000FFFF
0000FFFF
0000FFFF
0000FFFF
0000FFFF
0000FFFF
0000FFFF
0000FFFF
0000FFFF
0000FFFF
0000FFFF
0000FFFF
0000FFFF
0000FFFF
0000FFFF
0000FFFF
0000FFFF
0000FFFF
0000FFFF
0000FFFF
0000FFFF
0000FFFF
0000FFFF
0000FFFF
0000FFFF
0000FFFF
0000FFFF
0000FFFF
0000FFFF
0000FFFF
0000FFFF
0000FFFF
0000FFFF
0000FFFF
0000FFFF
0000FFFF
0000FFFF
0000FFFF
0000FFFF
0000FFFF
0000FFFF
0000FFFF
0000FFFF
0000FFFF
0000FFFF
0000FFFF
0000FFFF
0000FFFF
0000FFFF
0000FFFF
0000FFFF
0000FFFF
0000FFFF
0000FFFF
0000FFFF
0000FFFF
0000FFFF
0000FFFF
ENDCHAR

STARTCHAR CODE223
ENCODING 223
SWIDTH 451 0
DWIDTH 32 0
BBX 32 64 0 -6
BITMAP
FFFFFFFF
FFFFFFFF
FFFFFFFF
FFFFFFFF
FFFFFFFF
FFFFFFFF
FFFFFFFF
FFFFFFFF
FFFFFFFF
FFFFFFFF
FFFFFFFF
FFFFFFFF
FFFFFFFF
FFFFFFFF
FFFFFFFF
FFFFFFFF
FFFFFFFF
FFFFFFFF
FFFFFFFF
FFFFFFFF
FFFFFFFF
FFFFFFFF
FFFFFFFF
FFFFFFFF
FFFFFFFF
FFFFFFFF
FFFFFFFF
FFFFFFFF
FFFFFFFF
FFFFFFFF
FFFFFFFF
FFFFFFFF
00000000
00000000
00000000
00000000
00000000
00000000
00000000
00000000
00000000
00000000
00000000
00000000
00000000
00000000
00000000
00000000
00000000
00000000
00000000
00000000
00000000
00000000
00000000
00000000
00000000
00000000
00000000
00000000
00000000
00000000
00000000
00000000
ENDCHAR

STARTCHAR CODE224
ENCODING 224
SWIDTH 451 0
DWIDTH 32 0
BBX 32 64 0 -6
BITMAP
00000000
00000000
00000000
00000000
00000000
00000000
00000000
00000000
00000000
00000000
00000000
00000000
00000000
00000000
00000000
00000000
00000000
00000000
00000000
00000000
00000000
001FC000
007FF018
01FFF83C
01FFFC7E
03FFFC7E
07F07EFC
07C03EF8
0FC03FF8
0FC01FF0
0F801FF0
1F801FF0
1F800FE0
1F000FE0
1F000FE0
1F000FC0
1F000FC0
1F000FC0
1F000F80
1F001F80
1F001F80
1F001F00
1F803F00
1F803F00
0FC03F18
0FC07F3C
0FE1FFFE
07FFFFFE
07FFFFFC
03FFEFF8
01FFC7F0
007F07E0
000003C0
00000000
00000000
00000000
00000000
00000000
00000000
00000000
00000000
00000000
00000000
00000000
ENDCHAR

STARTCHAR CODE225
ENCODING 225
SWIDTH 451 0
DWIDTH 32 0
BBX 32 64 0 -6
BITMAP
00000000
00000000
00000000
00000000
00000000
001FF000
007FFC00
00FFFE00
01FFFF00
03FC7F80
03F01F80
07E00FC0
07E007C0
07C007E0
07C003E0
0F8003E0
0F8003E0
0F8003E0
0F8003E0
0F8007E0
1F8007C0
1F000FC0
1F000F80
1F001F80
1F007F00
1F07FE00
1F07FC00
1F07FF00
1F07FF80
1F003FC0
1F000FE0
1F0003F0
1F0001F0
1F0001F8
1F0000F8
1F0000FC
1F0000FC
1F00007C
1F00007C
1F00007C
1F00007C
1F8000FC
1F8000FC
1FC001F8
1FE001F8
1FF003F0
1FFC0FF0
1FFFFFE0
1FFFFFC0
1F7FFF80
1F1FFF00
1F07FC00
1F000000
1F000000
1F000000
1F000000
1F000000
1F000000
1F000000
00000000
00000000
00000000
00000000
00000000
ENDCHAR

STARTCHAR CODE226
ENCODING 226
SWIDTH 451 0
DWIDTH 32 0
BBX 32 64 0 -6
BITMAP
00000000
00000000
00000000
00000000
00000000
0FFFFFFC
0FFFFFFC
0FFFFFFC
0FFFFFFC
0FFFFFFC
0F800000
0F800000
0F800000
0F800000
0F800000
0F800000
0F800000
0F800000
0F800000
0F800000
0F800000
0F800000
0F800000
0F800000
0F800000
0F800000
0F800000
0F800000
0F800000
0F800000
0F800000
0F800000
0F800000
0F800000
0F800000
0F800000
0F800000
0F800000
0F800000
0F800000
0F800000
0F800000
0F800000
0F800000
0F800000
0F800000
0F800000
0F800000
0F800000
0F800000
0F800000
00000000
00000000
00000000
00000000
00000000
00000000
00000000
00000000
00000000
00000000
00000000
00000000
00000000
ENDCHAR

STARTCHAR CODE227
ENCODING 227
SWIDTH 451 0
DWIDTH 32 0
BBX 32 64 0 -6
BITMAP
00000000
00000000
00000000
00000000
00000000
00000000
00000000
00000000
00000000
00000000
00000000
00000000
00000000
00000000
00000000
00000000
00000000
00000000
00000000
00000000
00000000
00000000
00000000
00000000
0FFFFFF0
0FFFFFF0
0FFFFFF0
0FFFFFF0
0FFFFFF0
00F87C00
00F87C00
00F87C00
00F87C00
00F87C00
00F87C00
00F87C00
00F87C00
00F87C00
00F87C00
00F87C00
00F87C00
00F87C00
00F87C00
00F87C00
00F87C00
00F87C00
00F87C00
00F87E00
00F87FF8
00F83FF8
00F83FF8
00F80FF8
00000000
00000000
00000000
00000000
00000000
00000000
00000000
00000000
00000000
00000000
00000000
00000000
ENDCHAR

STARTCHAR CODE228
ENCODING 228
SWIDTH 451 0
DWIDTH 32 0
BBX 32 64 0 -6
BITMAP
00000000
00000000
00000000
00000000
00000000
0FFFFFE0
0FFFFFE0
0FFFFFE0
0FFFFFE0
0FFFFFE0
07C00000
07E00000
03F00000
01F00000
01F80000
00FC0000
007C0000
007E0000
003F0000
001F0000
001F8000
000FC000
0007C000
0007E000
0003F000
0001F000
0001F800
0000F800
0001F800
0001F000
0003F000
0007E000
0007C000
000FC000
001F8000
001F0000
003F0000
007E0000
007C0000
00FC0000
01F80000
01F00000
03F00000
07E00000
07C00000
0FC00000
0F800000
0FFFFFE0
0FFFFFE0
0FFFFFE0
0FFFFFE0
0FFFFFE0
00000000
00000000
00000000
00000000
00000000
00000000
00000000
00000000
00000000
00000000
00000000
00000000
ENDCHAR

STARTCHAR CODE229
ENCODING 229
SWIDTH 451 0
DWIDTH 32 0
BBX 32 64 0 -6
BITMAP
00000000
00000000
00000000
00000000
00000000
00000000
00000000
00000000
00000000
00000000
00000000
00000000
00000000
00000000
0000003C
000003FC
00001FFC
00007FFC
0001FFFC
0007FFE0
000FFC00
001FF000
003FFC00
007FFE00
00FFFF00
00FC7F00
01F81F80
01F00F80
01F00F80
03E007C0
03E007C0
03E007C0
07C003E0
07C003E0
07C003E0
07C003E0
07C003E0
07C003E0
07C003E0
07C003E0
07C003E0
07C003E0
07E007C0
07E007C0
03E007C0
03F00F80
03F00F80
01F81F80
01FC7F00
00FFFF00
007FFE00
001FF800
0007E000
00000000
00000000
00000000
00000000
00000000
00000000
00000000
00000000
00000000
00000000
00000000
ENDCHAR

STARTCHAR CODE230
ENCODING 230
SWIDTH 451 0
DWIDTH 32 0
BBX 32 64 0 -6
BITMAP
00000000
00000000
00000000
00000000
00000000
00000000
00000000
00000000
00000000
00000000
00000000
00000000
00000000
00000000
00000000
00000000
00000000
00000000
00000000
00000000
00000000
0F807C00
0F807C00
0F807C00
0F807C00
0F807C00
0F807C00
0F807C00
0F807C00
0F807C00
0F807C00
0F807C00
0F807C00
0F807C00
0F807C00
0F807C00
0F807C00
0F807C00
0F807C00
0F807C00
0F807C00
0F807C00
0F807E00
0FC07E30
0FC0FF78
0FF1FFFC
0FFFFFFC
0FFFFFF8
0FFFE7F0
0FFFC3E0
0F9F0000
0F800000
0F800000
0F800000
0F800000
0F800000
0F800000
0F800000
0F800000
00000000
00000000
00000000
00000000
00000000
ENDCHAR

STARTCHAR CODE231
ENCODING 231
SWIDTH 451 0
DWIDTH 32 0
BBX 32 64 0 -6
BITMAP
00000000
00000000
00000000
00000000
00000000
00000000
00000000
00000000
00000000
00000000
00000000
00000000
00000000
00000000
00000000
00000000
00000000
00000000
00000000
00000000
00000000
00000000
00000000
00000000
07FFFFC0
07FFFFC0
07FFFFC0
07FFFFC0
07FFFFC0
000F8000
000F8000
000F8000
000F8000
000F8000
000F8000
000F8000
000F8000
000F8000
000F8000
000F8000
000F8000
000F8000
000F8000
000F8000
000F8000
000F8000
000F8180
000FC7C0
000FFFE0
000FFFE0
0007FFC0
0007FF80
0001FE00
00000000
00000000
00000000
00000000
00000000
00000000
00000000
00000000
00000000
00000000
00000000
ENDCHAR

STARTCHAR CODE232
ENCODING 232
SWIDTH 451 0
DWIDTH 32 0
BBX 32 64 0 -6
BITMAP
00000000
00000000
00000000
00000000
00000000
00000000
0003E000
0003E000
0003E000
0003E000
001FFC00
007FFF00
00FFFF80
01FFFFC0
03FFFFE0
03FBEFE0
07E3E3F0
07C3E1F0
0FC3E1F8
0F83E0F8
0F83E0F8
0F83E0F8
1F83E0FC
1F03E07C
1F03E07C
1F03E07C
1F03E07C
1F03E07C
1F03E07C
1F03E07C
1F03E07C
1F03E07C
1F03E07C
1F83E0FC
0F83E0F8
0F83E0F8
0F83E0F8
0FC3E1F8
07C3E1F0
07E3E3F0
03FBEFE0
03FFFFE0
01FFFFC0
00FFFF80
007FFF00
001FFC00
0003E000
0003E000
0003E000
0003E000
0003E000
0003E000
00000000
00000000
00000000
00000000
00000000
00000000
00000000
00000000
00000000
00000000
00000000
00000000
ENDCHAR

STARTCHAR CODE233
ENCODING 233
SWIDTH 451 0
DWIDTH 32 0
BBX 32 64 0 -6
BITMAP
00000000
00000000
00000000
00000000
00000000
0007E000
001FF800
007FFE00
00FFFF00
01FFFF80
03FC3FC0
03F00FC0
07E007E0
07E007E0
07C003E0
07C003E0
0F8001F0
0F8001F0
0F8001F0
0F8001F0
1F8001F8
1F0000F8
1F0000F8
1F0000F8
1F0000F8
1F0000F8
1FFFFFF8
1FFFFFF8
1FFFFFF8
1FFFFFF8
1FFFFFF8
1F0000F8
1F0000F8
1F0000F8
1F0000F8
1F0000F8
1F8001F8
0F8001F0
0F8001F0
0F8001F0
0F8001F0
07C003E0
07C003E0
07E007E0
07E007E0
03F00FC0
03FC3FC0
01FFFF80
00FFFF00
007FFE00
001FF800
0007E000
00000000
00000000
00000000
00000000
00000000
00000000
00000000
00000000
00000000
00000000
00000000
00000000
ENDCHAR

STARTCHAR CODE234
ENCODING 234
SWIDTH 451 0
DWIDTH 32 0
BBX 32 64 0 -6
BITMAP
00000000
00000000
00000000
00000000
00000000
000FF000
003FFC00
00FFFF00
01FFFF80
03FFFFC0
07F81FE0
0FE007F0
0FC003F0
1F8001F8
1F8000F8
1F0000F8
3F00007C
3E00007C
3E00007C
3E00007C
3E00007C
3E00007C
3E00007C
3E00007C
3E00007C
3E00007C
3E00007C
3E00007C
3F0000FC
1F0000F8
1F8001F8
1F8001F8
0FC003F0
0FE007F0
07F00FE0
03F00FC0
01F81F80
00F81F00
00FC3F00
007C3E00
007C3E00
007C3E00
007C3E00
007C3E00
007C3E00
007C3E00
1FFC3FF8
1FFC3FF8
1FFC3FF8
1FFC3FF8
1FFC3FF8
00000000
00000000
00000000
00000000
00000000
00000000
00000000
00000000
00000000
00000000
00000000
00000000
00000000
ENDCHAR

STARTCHAR CODE235
ENCODING 235
SWIDTH 451 0
DWIDTH 32 0
BBX 32 64 0 -6
BITMAP
00000000
00000000
00000000
00000000
00000000
00000000
0003FC00
000FFF00
001FFF80
001FFFC0
003F9FE0
003F07F0
003E03F8
003E01F8
003E00F0
003E0060
003F0000
001F0000
001F8000
001FC000
000FC000
0007E000
0007E000
0003F000
001FF000
007FF800
00FFF800
01FFF800
01FFFC00
03F9FC00
03F0FC00
03E07E00
07E07E00
07E07E00
07C03E00
07C03E00
07C03E00
07C03E00
07C03E00
07C03E00
07C03E00
07C03E00
07C03E00
07E07E00
07E07E00
03E07C00
03F0FC00
03F9F800
01FFF800
00FFF800
007FF000
003FE000
001FC000
00000000
00000000
00000000
00000000
00000000
00000000
00000000
00000000
00000000
00000000
00000000
ENDCHAR

STARTCHAR CODE236
ENCODING 236
SWIDTH 451 0
DWIDTH 32 0
BBX 32 64 0 -6
BITMAP
00000000
00000000
00000000
00000000
00000000
00000000
00000000
00000000
00000000
00000000
00000000
00000000
00000000
00000000
00000000
00000000
00000000
03E007C0
0FF81FF0
1FFC3FF8
1FFC3FF8
3FFE7FFC
3F3E7CFC
3E1FF87C
7E1FF87E
7C0FF03E
7C0FF03E
7C07E03E
7C07E03E
7C07E03E
7C07E03E
7C07E03E
7C0FF03E
7C0FF03E
7E1FF87E
3E1FF87C
3F3FFCFC
3FFE7FFC
1FFE7FF8
1FFC3FF8
0FF81FF0
03E007C0
00000000
00000000
00000000
00000000
00000000
00000000
00000000
00000000
00000000
00000000
00000000
00000000
00000000
00000000
00000000
00000000
00000000
00000000
00000000
00000000
00000000
00000000
ENDCHAR

STARTCHAR CODE237
ENCODING 237
SWIDTH 451 0
DWIDTH 32 0
BBX 32 64 0 -6
BITMAP
00000000
00000000
00000000
00000000
00000000
00000000
00000000
00000000
00000000
00000000
00000000
00000000
00000000
00001E00
00001E00
00003E00
00003E00
00003E00
00007C00
00007C00
00007C00
000FF800
003FFC00
007FFE00
00FFFF00
01FCFF80
01F8FF80
03F0FFC0
03E1F7C0
03E1F7C0
03E1F7C0
07E1F7E0
07C3E3E0
07C3E3E0
07C3E3E0
07C3E3E0
07C3E3E0
07C7C3E0
07C7C3E0
07C7C3E0
07C7C3E0
07C783E0
07CF83E0
03EF87C0
03EF87C0
03FF8FC0
01FF0F80
01FF1F80
00FF7F00
00FFFF00
007FFE00
003FF800
003FE000
003E0000
003C0000
003C0000
007C0000
007C0000
007C0000
00780000
00000000
00000000
00000000
00000000
ENDCHAR

STARTCHAR CODE238
ENCODING 238
SWIDTH 451 0
DWIDTH 32 0
BBX 32 64 0 -6
BITMAP
00000000
00000000
00000000
00000000
00000000
00000000
00000000
00000000
00000000
00000000
00000000
00000000
00000000
00000000
00000000
00000000
00000000
00000000
00000000
00000000
001FE000
007FF800
00FFFE00
01FFFF00
03F87F80
03E01FC0
07E007C0
07C003C0
07C00180
07C00000
07E00000
07E00000
03F80000
01FFF000
00FFF000
03FFF000
07FFF000
0FFFF000
0FF00000
1FC00000
1F800000
1F000000
1F000030
1F800078
1F8000F8
1FC001F8
0FE007F0
0FFC3FE0
07FFFFC0
03FFFF00
00FFFC00
003FF000
00000000
00000000
00000000
00000000
00000000
00000000
00000000
00000000
00000000
00000000
00000000
00000000
ENDCHAR

STARTCHAR CODE239
ENCODING 239
SWIDTH 451 0
DWIDTH 32 0
BBX 32 64 0 -6
BITMAP
00000000
00000000
00000000
00000000
00000000
00000000
00000000
00000000
003FF800
007FFE00
00FFFF00
01F81F80
03E007C0
03C003C0
078003C0
078001E0
070001E0
0F0000E0
0F0000F0
0F0000F0
0F0000F0
0E0000F0
0E0000F0
0E0000F0
0E0000F0
0E0000F0
0E0000F0
0E0000F0
0E0000F0
0E0000F0
0E0000F0
0E0000F0
0E0000F0
0E0000F0
0E0000F0
0E0000F0
0E0000F0
0E0000F0
0E0000F0
0E0000F0
0E0000F0
0E0000F0
0E0000F0
0E0000F0
0E0000F0
0E0000F0
0E0000F0
0E0000F0
0E0000F0
0E0000F0
0E0000F0
0E0000F0
0E0000F0
0E0000F0
00000000
00000000
00000000
00000000
00000000
00000000
00000000
00000000
00000000
00000000
ENDCHAR

STARTCHAR CODE240
ENCODING 240
SWIDTH 451 0
DWIDTH 32 0
BBX 32 64 0 -6
BITMAP
00000000
00000000
00000000
00000000
00000000
00000000
00000000
00000000
00000000
00000000
00000000
00000000
00000000
00000000
00000000
00000000
00000000
00000000
00000000
00000000
1FFFFFFC
1FFFFFFC
1FFFFFFC
00000000
00000000
00000000
00000000
00000000
00000000
00000000
1FFFFFFC
1FFFFFFC
1FFFFFFC
00000000
00000000
00000000
00000000
00000000
00000000
00000000
1FFFFFFC
1FFFFFFC
1FFFFFFC
00000000
00000000
00000000
00000000
00000000
00000000
00000000
00000000
00000000
00000000
00000000
00000000
00000000
00000000
00000000
00000000
00000000
00000000
00000000
00000000
00000000
ENDCHAR

STARTCHAR CODE241
ENCODING 241
SWIDTH 451 0
DWIDTH 32 0
BBX 32 64 0 -6
BITMAP
00000000
00000000
00000000
00000000
00000000
0003C000
0003C000
0003C000
0003C000
0003C000
0003C000
0003C000
0003C000
0003C000
0003C000
0003C000
0003C000
0003C000
0003C000
0003C000
1FFFFFF8
1FFFFFF8
1FFFFFF8
1FFFFFF8
0003C000
0003C000
0003C000
0003C000
0003C000
0003C000
0003C000
0003C000
0003C000
0003C000
0003C000
0003C000
0003C000
0003C000
0003C000
0003C000
00000000
00000000
00000000
00000000
1FFFFFF8
1FFFFFF8
1FFFFFF8
00000000
00000000
00000000
00000000
00000000
00000000
00000000
00000000
00000000
00000000
00000000
00000000
00000000
00000000
00000000
00000000
00000000
ENDCHAR

STARTCHAR CODE242
ENCODING 242
SWIDTH 451 0
DWIDTH 32 0
BBX 32 64 0 -6
BITMAP
00000000
00000000
00000000
00000000
00000000
00000000
00000000
00000000
0C000000
0E000000
1F000000
1F800000
07E00000
03F00000
01FC0000
007E0000
003F0000
000FC000
0007E000
0003F800
0000FC00
00007E00
00001F80
00000FC0
000007F0
000001F8
000003F8
000007F0
00000FC0
00003F80
00007E00
0001FC00
0003F000
000FE000
001F8000
007F0000
00FC0000
03F80000
07E00000
1FC00000
1F000000
0E000000
00000000
00000000
1FFFFFF8
1FFFFFF8
1FFFFFF8
00000000
00000000
00000000
00000000
00000000
00000000
00000000
00000000
00000000
00000000
00000000
00000000
00000000
00000000
00000000
00000000
00000000
ENDCHAR

STARTCHAR CODE243
ENCODING 243
SWIDTH 451 0
DWIDTH 32 0
BBX 32 64 0 -6
BITMAP
00000000
00000000
00000000
00000000
00000000
00000000
00000000
00000000
00000000
00000030
00000078
000001F8
000003F0
00000FE0
00001F80
00007F00
0000FC00
0003F800
0007E000
000FC000
003F0000
007E0000
01FC0000
03F00000
0FE00000
1F800000
3F800000
3FC00000
07F00000
03F80000
00FE0000
003F8000
001FC000
0007F000
0003FC00
0000FE00
00003F80
00001FC0
000007F0
000003F8
000000F8
00000030
00000000
00000000
1FFFFFF0
1FFFFFF0
1FFFFFF0
00000000
00000000
00000000
00000000
00000000
00000000
00000000
00000000
00000000
00000000
00000000
00000000
00000000
00000000
00000000
00000000
00000000
ENDCHAR

STARTCHAR CODE244
ENCODING 244
SWIDTH 451 0
DWIDTH 32 0
BBX 32 64 0 -6
BITMAP
00000000
00000000
00000000
00000000
00000000
00000000
00000000
00000000
00000000
00000000
0007C000
000FE000
000FE000
001FE000
001FE000
001BC000
0019C000
00180000
00380000
00380000
00380000
00380000
00380000
00380000
00380000
00380000
00380000
00380000
00380000
003C0000
003C0000
003C0000
003C0000
003C0000
001C0000
001C0000
001C0000
001C0000
001C0000
001E0000
001E0000
001E0000
001E0000
001E0000
001E0000
001E0000
001E0000
000E0000
000F0000
000F0000
000F0000
000F0000
000F0000
000F0000
000F0000
000F0000
000F0000
000F8000
00078000
00078000
00078000
00078000
00078000
00078000
ENDCHAR

STARTCHAR CODE245
ENCODING 245
SWIDTH 451 0
DWIDTH 32 0
BBX 32 64 0 -6
BITMAP
00078000
00078000
00078000
0007C000
0003C000
0003C000
0003C000
0003C000
0003C000
0003C000
0003C000
0003C000
0003C000
0001C000
0001C000
0001E000
0001E000
0001E000
0001E000
0001E000
0001E000
0001E000
0001E000
0000E000
0000E000
0000E000
0000E000
0000E000
0000E000
0000F000
0000F000
0000F000
0000F000
00007000
00007000
00007000
00007000
00007000
00007000
00007000
00007000
00007000
00007000
00007000
00067000
000F7000
001F6000
001FE000
001FE000
001FC000
000F8000
00000000
00000000
00000000
00000000
00000000
00000000
00000000
00000000
00000000
00000000
00000000
00000000
00000000
ENDCHAR

STARTCHAR CODE246
ENCODING 246
SWIDTH 451 0
DWIDTH 32 0
BBX 32 64 0 -6
BITMAP
00000000
00000000
00000000
00000000
00000000
00000000
00000000
00000000
00000000
00000000
00000000
00000000
00000000
0003C000
0007E000
0007E000
0007E000
0007E000
0003C000
00000000
00000000
00000000
00000000
00000000
00000000
00000000
00000000
00000000
00000000
1FFFFFF8
1FFFFFF8
1FFFFFF8
1FFFFFF8
00000000
00000000
00000000
00000000
00000000
00000000
00000000
00000000
00000000
00018000
0003E000
0007E000
0007E000
0007E000
0007E000
0003C000
00000000
00000000
00000000
00000000
00000000
00000000
00000000
00000000
00000000
00000000
00000000
00000000
00000000
00000000
00000000
ENDCHAR

STARTCHAR CODE247
ENCODING 247
SWIDTH 451 0
DWIDTH 32 0
BBX 32 64 0 -6
BITMAP
00000000
00000000
00000000
00000000
00000000
00000000
00000000
00000000
00000000
00000000
00000000
00000000
00000000
00000000
00000000
00000000
00000000
00000000
00000000
00F80000
01FC0000
03FE000C
07FF001C
0F1F803C
1E07C078
1C03E0F0
1803F1F0
1801FFE0
0000FFC0
00003F80
00001F00
00000000
01F80000
03FC0000
07FE0018
0FFF0018
0F0F8038
1E07C078
1C03E0F0
1801FBE0
1800FFE0
00007FC0
00003F80
00000600
00000000
00000000
00000000
00000000
00000000
00000000
00000000
00000000
00000000
00000000
00000000
00000000
00000000
00000000
00000000
00000000
00000000
00000000
00000000
00000000
ENDCHAR

STARTCHAR CODE248
ENCODING 248
SWIDTH 451 0
DWIDTH 32 0
BBX 32 64 0 -6
BITMAP
00000000
00000000
00000000
0007E000
001FF800
003FFC00
00781E00
00700E00
00E00700
00E00700
00E00700
00E00700
00E00700
00E00700
00700E00
00781E00
003FFC00
001FF800
0003C000
00000000
00000000
00000000
00000000
00000000
00000000
00000000
00000000
00000000
00000000
00000000
00000000
00000000
00000000
00000000
00000000
00000000
00000000
00000000
00000000
00000000
00000000
00000000
00000000
00000000
00000000
00000000
00000000
00000000
00000000
00000000
00000000
00000000
00000000
00000000
00000000
00000000
00000000
00000000
00000000
00000000
00000000
00000000
00000000
00000000
ENDCHAR

STARTCHAR CODE249
ENCODING 249
SWIDTH 451 0
DWIDTH 32 0
BBX 32 64 0 -6
BITMAP
00000000
00000000
00000000
00000000
00000000
00000000
00000000
00000000
00000000
00000000
00000000
00000000
00000000
00000000
00000000
00000000
00000000
00000000
00000000
00000000
00000000
00000000
00000000
0007E000
001FF800
003FFC00
007FFE00
007FFE00
00FFFF00
00FFFF00
00FFFF00
00FFFF00
00FFFF00
00FFFF00
007FFE00
007FFE00
003FFC00
001FF800
0007E000
00000000
00000000
00000000
00000000
00000000
00000000
00000000
00000000
00000000
00000000
00000000
00000000
00000000
00000000
00000000
00000000
00000000
00000000
00000000
00000000
00000000
00000000
00000000
00000000
00000000
ENDCHAR

STARTCHAR CODE250
ENCODING 250
SWIDTH 451 0
DWIDTH 32 0
BBX 32 64 0 -6
BITMAP
00000000
00000000
00000000
00000000
00000000
00000000
00000000
00000000
00000000
00000000
00000000
00000000
00000000
00000000
00000000
00000000
00000000
00000000
00000000
00000000
00000000
00000000
00000000
00000000
00000000
000FF000
001FF800
003FFC00
007FFE00
007FFE00
007FFE00
007FFE00
007FFE00
007FFE00
003FFC00
001FF800
000FF000
00000000
00000000
00000000
00000000
00000000
00000000
00000000
00000000
00000000
00000000
00000000
00000000
00000000
00000000
00000000
00000000
00000000
00000000
00000000
00000000
00000000
00000000
00000000
00000000
00000000
00000000
00000000
ENDCHAR

STARTCHAR CODE251
ENCODING 251
SWIDTH 451 0
DWIDTH 32 0
BBX 32 64 0 -6
BITMAP
0000FFFF
0000FFFF
0000FFFF
0000E000
0000E000
0000E000
0001E000
0001E000
0001C000
0001C000
0001C000
0003C000
0003C000
00038000
00038000
00038000
00078000
00078000
00070000
00070000
00070000
000F0000
000F0000
000F0000
000E0000
000E0000
000E0000
001E0000
001E0000
001C0000
001C0000
001C0000
003C0000
0C3C0000
0C380000
1C380000
1C380000
3C780000
3E780000
7E700000
7E700000
7E700000
7F700000
6FF00000
07E00000
07E00000
07E00000
07E00000
03E00000
03E00000
03C00000
03C00000
03C00000
01C00000
01C00000
01800000
01C00000
00C00000
00000000
00000000
00000000
00000000
00000000
00000000
ENDCHAR

STARTCHAR CODE252
ENCODING 252
SWIDTH 451 0
DWIDTH 32 0
BBX 32 64 0 -6
BITMAP
00000000
00000000
00000000
00000000
00000000
0001F000
007BF800
007FFC00
007FFC00
007E7E00
007C3E00
007C3E00
00781E00
00781E00
00781E00
00781E00
00781E00
00781E00
00781E00
00781E00
00781E00
00781E00
00781E00
00781E00
00781E00
00781E00
00781E00
00781E00
00000000
00000000
00000000
00000000
00000000
00000000
00000000
00000000
00000000
00000000
00000000
00000000
00000000
00000000
00000000
00000000
00000000
00000000
00000000
00000000
00000000
00000000
00000000
00000000
00000000
00000000
00000000
00000000
00000000
00000000
00000000
00000000
00000000
00000000
00000000
00000000
ENDCHAR

STARTCHAR CODE253
ENCODING 253
SWIDTH 451 0
DWIDTH 32 0
BBX 32 64 0 -6
BITMAP
00000000
00000000
00000000
0007E000
001FF800
003FFC00
003FFC00
007E7E00
007C3E00
00781E00
00781E00
00783E00
00003E00
00007C00
0000FC00
0001F800
0003F000
0007E000
000FC000
001F8000
003F0000
007E0000
007FFE00
007FFE00
007FFE00
007FFE00
00000000
00000000
00000000
00000000
00000000
00000000
00000000
00000000
00000000
00000000
00000000
00000000
00000000
00000000
00000000
00000000
00000000
00000000
00000000
00000000
00000000
00000000
00000000
00000000
00000000
00000000
00000000
00000000
00000000
00000000
00000000
00000000
00000000
00000000
00000000
00000000
00000000
00000000
ENDCHAR

STARTCHAR CODE254
ENCODING 254
SWIDTH 451 0
DWIDTH 32 0
BBX 32 64 0 -6
BITMAP
00000000
00000000
00000000
00000000
00000000
00000000
00000000
00000000
00000000
00000000
00000000
00FFFF00
00FFFF00
00FFFF00
00FFFF00
00FFFF00
00FFFF00
00FFFF00
00FFFF00
00FFFF00
00FFFF00
00FFFF00
00FFFF00
00FFFF00
00FFFF00
00FFFF00
00FFFF00
00FFFF00
00FFFF00
00FFFF00
00FFFF00
00FFFF00
00FFFF00
00FFFF00
00FFFF00
00FFFF00
00FFFF00
00FFFF00
00FFFF00
00FFFF00
00FFFF00
00FFFF00
00FFFF00
00FFFF00
00FFFF00
00FFFF00
00FFFF00
00FFFF00
00FFFF00
00FFFF00
00FFFF00
00FFFF00
00000000
00000000
00000000
00000000
00000000
00000000
00000000
00000000
00000000
00000000
00000000
00000000
ENDCHAR

STARTCHAR CODE255
ENCODING 255
SWIDTH 451 0
DWIDTH 32 0
BBX 32 64 0 -6
BITMAP
00000000
00000000
00000000
00000000
00000000
00000000
00000000
00000000
00000000
00000000
00000000
00000000
00000000
00000000
00000000
00000000
00000000
00000000
00000000
00000000
00000000
00000000
00000000
00000000
00000000
00000000
00000000
00000000
00000000
00000000
00000000
00000000
00000000
00000000
00000000
00000000
00000000
00000000
00000000
00000000
00000000
00000000
00000000
00000000
00000000
00000000
00000000
00000000
00000000
00000000
00000000
00000000
00000000
00000000
00000000
00000000
00000000
00000000
00000000
00000000
00000000
00000000
00000000
00000000
ENDCHAR
ENDFONT
